<?xml version="1.0" standalone="no"?>
<!DOCTYPE svg PUBLIC "-//W3C//DTD SVG 1.1//EN" "http://www.w3.org/Graphics/SVG/1.1/DTD/svg11.dtd" >
<svg xmlns="http://www.w3.org/2000/svg">
<metadata></metadata>
<defs>
<font id="MovistarTextRegular" horiz-adv-x="1130" >
<font-face units-per-em="2048" ascent="1536" descent="-512" />
<missing-glyph horiz-adv-x="417" />
<glyph unicode="&#xfb01;" horiz-adv-x="1110" d="M29 879v96l182 26v103q0 395 399 395q112 0 226 -22v-129q-141 12 -199 12q-141 0 -199 -60q-57 -57 -57 -196v-100h582v-1004h-170v879h-412v-879h-170v879h-182z" />
<glyph unicode="&#xfb02;" horiz-adv-x="1114" d="M29 879v96l182 26v117q0 179 84 273q102 109 344 108q163 0 330 -31v-1468h-170v1352q-72 10 -152 10q-161 0 -215 -62q-51 -51 -51 -192v-104h264v-125h-264v-879h-170v879h-182z" />
<glyph horiz-adv-x="0" />
<glyph horiz-adv-x="2048" />
<glyph unicode="&#xd;" horiz-adv-x="417" />
<glyph unicode=" "  horiz-adv-x="417" />
<glyph unicode="&#x09;" horiz-adv-x="417" />
<glyph unicode="&#xa0;" horiz-adv-x="417" />
<glyph unicode="!" horiz-adv-x="559" d="M172 72v16q0 100 102 100h11q102 0 102 -100v-16q0 -101 -102 -101h-11q-102 0 -102 101zM186 1401h183l-29 -1026h-125z" />
<glyph unicode="&#x22;" horiz-adv-x="790" d="M150 1401h174l-21 -430h-133zM465 1401h176l-20 -430h-136z" />
<glyph unicode="#" d="M102 420v135h164l56 287h-220v137h248l82 422h154l-84 -422h235l84 422h152l-84 -422h139v-137h-166l-53 -287h221v-135h-248l-80 -420h-151l78 420h-236l-80 -420h-153l82 420h-140zM420 555h235l56 287h-236z" />
<glyph unicode="$" d="M141 1053q0 168 104.5 261t284.5 109v254h121v-252q185 -9 299 -51l-26 -139q-141 35 -273 41v-492q70 -29 138.5 -60.5t122.5 -78.5q122 -105 122 -270q0 -183 -105 -281t-278 -117v-256h-121v250q-234 10 -374 68l30 139q187 -55 344 -55v524q-187 70 -254 126 t-101 120.5t-34 159.5zM313 1065q0 -116 131 -189q39 -22 86 -42v436q-217 -25 -217 -205zM651 131q80 14 133 55q76 59 76 161.5t-60.5 157t-148.5 93.5v-467z" />
<glyph unicode="%" horiz-adv-x="1890" d="M111 1014q0 289 183 380q64 33 155 33q173 0 260 -123q77 -107 77 -290q0 -288 -182 -381q-65 -33 -155 -33q-173 0 -261 123q-77 107 -77 291zM268 1014q0 -127 38 -200t143 -73q104 0 142 73t38 200t-38 199.5t-142 72.5t-142.5 -72.5t-38.5 -199.5zM510 -29l719 1456 h151l-716 -1456h-154zM1104 385q0 287 184 381q64 33 154 33q172 0 260 -123q78 -110 78 -291q0 -287 -184 -381q-64 -33 -154 -33q-172 0 -260 123q-78 110 -78 291zM1262 385q0 -127 37.5 -199.5t142.5 -72.5q104 0 142 72.5t38 199.5t-38 199.5t-142 72.5t-142 -72.5 t-38 -199.5z" />
<glyph unicode="&#x26;" horiz-adv-x="1378" d="M104 367q0 141 80 240.5t222 174.5q-138 156 -160 260q-8 39 -8 96.5t24.5 114t68.5 95.5q91 79 232 79q214 0 291 -165q25 -54 25 -121q0 -222 -258 -371l378 -416q86 138 99 342h137q-8 -245 -143 -442q14 -16 31 -33.5t35 -38.5q53 -60 140 -153l-112 -97l-195 209 q-178 -170 -438 -170q-199 0 -323 107q-126 108 -126 289zM279 381q0 -129 79 -198.5t220 -69.5q185 0 323 127l-418 454q-204 -110 -204 -313zM387 1135q0 -118 158 -283q104 74 148 139.5t44 141.5t-45 123t-127 47t-130 -44t-48 -124z" />
<glyph unicode="'" horiz-adv-x="473" d="M150 1401h174l-21 -430h-133z" />
<glyph unicode="(" horiz-adv-x="681" d="M152 528q0 313 114.5 566.5t311.5 427.5l92 -70q-326 -395 -326 -924q0 -528 326 -923l-92 -70q-197 174 -311.5 427t-114.5 566z" />
<glyph unicode=")" horiz-adv-x="681" d="M12 -395q326 395 326 923q0 529 -326 924l92 70q197 -174 311.5 -427.5t114.5 -566.5t-114.5 -566t-311.5 -427z" />
<glyph unicode="*" horiz-adv-x="897" d="M70 1061l49 139l278 -129l-24 330h147l-20 -330l278 129l49 -139l-297 -88l203 -240l-115 -90l-169 264l-170 -264l-115 90l203 240z" />
<glyph unicode="+" horiz-adv-x="1105" d="M213 610v129h274v275h129v-275h277v-129h-277v-276h-129v276h-274z" />
<glyph unicode="," horiz-adv-x="464" d="M115 84v6q0 111 104 111h2q59 0 88 -32t29 -136.5t-47 -321.5h-80v256q-96 21 -96 117z" />
<glyph unicode="-" horiz-adv-x="659" d="M123 459v145h414v-145h-414z" />
<glyph unicode="." horiz-adv-x="464" d="M123 82v8q0 111 102 111h15q102 0 102 -111v-8q0 -111 -102 -111h-15q-102 0 -102 111z" />
<glyph unicode="/" horiz-adv-x="925" d="M78 -29l604 1456h166l-604 -1456h-166z" />
<glyph unicode="0" d="M84 698q0 537 259 679q91 50 222 50q371 0 455 -421q27 -136 27 -308q0 -537 -259 -678q-92 -49 -223 -49q-371 0 -455 421q-26 134 -26 306zM262 698q0 -293 66.5 -437t236.5 -144t236.5 144t66.5 437t-66.5 438.5t-236.5 145.5t-236.5 -145.5t-66.5 -438.5z" />
<glyph unicode="1" d="M262 0v131h242v1147h-238v115q170 22 262.5 22t118 -20.5t25.5 -75.5v-1188h213v-131h-623z" />
<glyph unicode="2" d="M139 54q0 34 15.5 70t66.5 97l322 393q123 150 160 222q61 123 61 215q0 131 -79 183t-230.5 52t-286.5 -31v134q156 38 293 38q260 0 375 -102q106 -94 106 -266q0 -176 -140 -365q-52 -71 -132 -164l-336 -395h633v-135h-820q-8 20 -8 54z" />
<glyph unicode="3" d="M154 6v135q128 -26 252 -26t188 15q196 46 197 257q0 200 -185 247q-69 17 -170 17h-37v127h35q154 0 238 61.5t84 192.5q0 200 -172 240q-60 14 -161.5 14t-246.5 -22v133q128 30 289 30q246 0 354 -104t109 -274q0 -125 -59.5 -204t-151.5 -114q117 -41 184.5 -127 t67.5 -202q0 -212 -131 -322q-136 -109 -402 -109q-149 0 -282 35z" />
<glyph unicode="4" d="M84 396q0 61 37 159l295 846h166l-326 -922h465v355h168v-355h170v-137h-170v-342h-168v342h-633q-4 20 -4 54z" />
<glyph unicode="5" d="M178 4v133q149 -22 256 -22q196 0 285 71q84 72 84 220q0 224 -183 268q-71 18 -188 18h-229q-6 12 -6 34v36q0 14 2 49l26 590h670v-135h-526l-19 -437h107q160 0 257 -28.5t160 -93.5q106 -111 106.5 -302.5t-112.5 -304.5q-127 -129 -397 -129q-163 0 -293 33z" />
<glyph unicode="6" d="M127 627q0 455 164 649q128 151 371 151q115 0 237 -24v-131q-125 16 -222 16t-167 -32.5t-115 -95.5q-79 -112 -92 -376q181 76 350.5 76t275 -105.5t105.5 -314.5q0 -208 -114 -336q-118 -133 -330 -133q-361 0 -438 383q-25 121 -25 273zM301 588q0 -234 63 -348 q69 -129 230 -129q133 0 200.5 86t67.5 231t-57 220t-194 75t-310 -53v-82z" />
<glyph unicode="7" d="M147 1266v135h842q6 -16 6 -45q0 -59 -22 -123l-420 -1233h-186l456 1266h-676z" />
<glyph unicode="8" d="M104 344q0 131 79 231.5t200 159.5q-223 128 -223 336q0 160 113.5 258t293.5 98q178 0 292 -101q110 -97 110 -224q0 -241 -254 -365q148 -75 204 -133q107 -109 107 -242q0 -176 -129 -284q-128 -107 -338 -107q-212 0 -335 103q-120 101 -120 270zM272 350 q0 -113 77 -175t212 -62t215 60t80 173q0 156 -218 262l-126 62q-240 -118 -240 -320zM319 1081q0 -95 80 -165q65 -57 191 -117q221 111 221 280q0 90 -65.5 149.5t-177.5 59.5t-180.5 -56t-68.5 -151z" />
<glyph unicode="9" d="M96 958q0 207 114 336q117 133 331 133q359 0 438 -383q25 -122 25 -272q0 -455 -164 -649q-129 -152 -368 -152q-111 0 -241 25v131q125 -16 222 -16t167 32.5t115 96.5q79 111 92 374q-179 -75 -349.5 -75t-276 105.5t-105.5 313.5zM268 971q0 -145 57.5 -220t195 -75 t308.5 53v82q0 236 -62 349q-71 128 -217 128t-214 -86t-68 -231z" />
<glyph unicode=":" horiz-adv-x="464" d="M123 82v8q0 111 102 111h15q102 0 102 -111v-8q0 -111 -102 -111h-15q-102 0 -102 111zM123 719v8q0 111 102 111h15q102 0 102 -111v-8q0 -111 -102 -111h-15q-102 0 -102 111z" />
<glyph unicode=";" horiz-adv-x="464" d="M121 84v6q0 111 104 111h2q59 0 88 -32t29 -136.5t-47 -321.5h-80v256q-96 21 -96 117zM123 719v8q0 111 102 111h15q102 0 102 -111v-8q0 -111 -102 -111h-15q-102 0 -102 111z" />
<glyph unicode="&#x3c;" horiz-adv-x="1105" d="M213 606v139l680 340v-147l-535 -262l535 -256v-152z" />
<glyph unicode="=" horiz-adv-x="1105" d="M213 426v129h680v-129h-680zM213 795v129h680v-129h-680z" />
<glyph unicode="&#x3e;" horiz-adv-x="1105" d="M213 268v152l535 256l-535 262v147l680 -340v-139z" />
<glyph unicode="?" horiz-adv-x="847" d="M74 1382q147 45 278 45q232 0 338 -98q88 -84 88 -209t-45 -210t-114.5 -164.5t-103.5 -120.5t-55 -78q-38 -70 -42 -172h-125q-6 33 -6 67.5t6 69.5t21 70q33 75 108 161l24 29q74 86 113 155.5t39 161.5q0 144 -134 179q-46 12 -149 12t-215 -31zM256 72v16 q0 100 102 100h11q102 0 102 -100v-16q0 -101 -102 -101h-11q-102 0 -102 101z" />
<glyph unicode="@" horiz-adv-x="1562" d="M82 694q0 332 190 530q195 203 521 203q312 0 500 -186q184 -182 184 -481q0 -205 -90.5 -319.5t-238 -114.5t-208.5 57q-92 -59 -206 -59t-176 60t-62 159q0 223 303 223h116v47q0 79 -32.5 111.5t-130 32t-191.5 -20.5l-6 108q109 29 215 29q154 0 216 -64t63 -192 v-373q40 -8 79 -8q213 0 213 305q0 266 -143 414t-405 148q-270 0 -421 -165q-147 -160 -147 -445.5t158 -444t473 -158.5q173 0 373 39v-113q-167 -45 -372 -45t-346.5 51.5t-236.5 144.5q-192 186 -192 527zM629 551q0 -117 137 -117q75 0 149 37v193h-116 q-100 0 -135.5 -31t-34.5 -82z" />
<glyph unicode="A" horiz-adv-x="1210" d="M37 0l444 1401h209l484 -1401h-191l-123 373h-530l-115 -373h-178zM375 516h438l-225 692h-2z" />
<glyph unicode="B" horiz-adv-x="1212" d="M170 0v1401h375q270 0 375 -105q88 -88 88 -243q0 -223 -187 -308q131 -31 204 -119.5t73 -230.5q0 -290 -264 -367q-97 -28 -240 -28h-424zM352 143h187q123 0 191.5 14.5t105.5 47.5q73 65 73 189q0 204 -167 242q-66 15 -179 15h-211v-508zM352 795h180q171 0 232 62 t61 174q0 178 -147 213q-55 13 -148 13h-178v-462z" />
<glyph unicode="C" horiz-adv-x="1136" d="M115 692q0 394 182 580q147 155 424 155q182 0 326 -53l-25 -139q-152 39 -281 39q-213 0 -313 -113q-123 -134 -123 -465q0 -325 129 -458q111 -115 352 -115q124 0 248 29l17 -140q-139 -41 -310 -41q-317 0 -471.5 179.5t-154.5 541.5z" />
<glyph unicode="D" horiz-adv-x="1323" d="M170 0v1401h354q195 0 323 -40t208 -128q153 -168 153 -540q0 -541 -362 -656q-117 -37 -283 -37h-393zM352 145h205q223 0 328 103q135 128 135 459q0 290 -102 415q-57 70 -150.5 101.5t-253.5 31.5h-162v-1110z" />
<glyph unicode="E" horiz-adv-x="1087" d="M170 0v1401h803l-17 -144h-604v-475h490v-147h-490v-492h633v-143h-815z" />
<glyph unicode="F" horiz-adv-x="987" d="M170 0v1401h788l-16 -144h-590v-475h475v-147h-475v-635h-182z" />
<glyph unicode="G" horiz-adv-x="1310" d="M115 678q0 398 194 592q160 157 453 157q185 0 338 -53l-25 -139q-155 41 -287 41q-371 0 -454 -320q-29 -114 -29 -268q0 -289 107.5 -428t345.5 -139q115 0 211 14v430h-238v144h416v-684q-167 -54 -362 -54t-314 45t-197 134q-160 182 -159 528z" />
<glyph unicode="H" horiz-adv-x="1347" d="M170 0v1401h182v-619h643v619h183v-1401h-183v635h-643v-635h-182z" />
<glyph unicode="I" horiz-adv-x="534" d="M176 0v1401h182v-1401h-182z" />
<glyph unicode="J" horiz-adv-x="761" d="M74 131q82 -10 149 -10q130 0 170 69q31 56 31 175v1036h182v-1034q0 -214 -82 -308q-81 -88 -278 -88q-86 0 -156 17z" />
<glyph unicode="K" horiz-adv-x="1214" d="M170 0v1401h182v-723l584 723h205l-475 -580l497 -821h-207l-405 686l-199 -240v-446h-182z" />
<glyph unicode="L" horiz-adv-x="1032" d="M170 0v1401h182v-1258h611v-143h-793z" />
<glyph unicode="M" horiz-adv-x="1636" d="M170 0v1401h160l487 -922l494 922h155v-1401h-172v1042l-407 -745h-152l-403 754v-1051h-162z" />
<glyph unicode="N" horiz-adv-x="1396" d="M170 0v1401h127l768 -1090v1090h162v-1401h-140l-755 1067v-1067h-162z" />
<glyph unicode="O" horiz-adv-x="1347" d="M115 698q0 518 295 673q106 56 264 56q295 0 436 -211q123 -183 123 -518q0 -514 -295 -670q-107 -57 -264 -57q-295 0 -436 211q-123 182 -123 516zM305 698q0 -279 77 -414q89 -155 292 -155q297 0 351 335q17 105 17 234q0 279 -76 415q-88 157 -292 157 q-296 0 -352 -338q-17 -105 -17 -234z" />
<glyph unicode="P" horiz-adv-x="1159" d="M170 0v1401h401q297 0 412 -119q102 -102 102 -316q0 -444 -473 -444h-260v-522h-182zM352 670h199q197 0 271.5 70.5t74.5 223t-66 218.5q-75 75 -274 75h-205v-587z" />
<glyph unicode="Q" horiz-adv-x="1347" d="M115 698q0 518 295 673q106 56 264 56q295 0 436 -211q123 -183 123 -518q0 -495 -264 -655q96 -6 192 -38t156 -68q-13 -46 -40.5 -95t-35.5 -59l-305 137q-35 14 -60.5 24.5t-51.5 16.5q-42 10 -119 10h-31q-295 0 -436 211q-123 182 -123 516zM305 698q0 -279 77 -414 q89 -155 292 -155q297 0 351 335q17 105 17 234q0 279 -76 415q-88 157 -292 157q-296 0 -352 -338q-17 -105 -17 -234z" />
<glyph unicode="R" horiz-adv-x="1232" d="M170 0v1401h408q298 0 409 -113q104 -102 105 -311q0 -318 -263 -408l301 -569h-202q-203 402 -273 539q-36 -4 -90 -4h-213v-535h-182zM352 682h217q197 0 273 84q61 68 61 211t-63 207q-73 73 -283 73h-205v-575z" />
<glyph unicode="S" horiz-adv-x="1112" d="M109 1038.5q0 106.5 33.5 177t93.5 117.5q122 94 337 94q192 0 345 -53l-27 -139q-160 41 -303 41q-307 0 -307 -211q0 -80 53 -129t133 -86t174 -71t174 -84t133 -125.5t53 -181.5q0 -196 -110 -298q-125 -119 -371 -119q-154 0 -309 39q-49 13 -88 29l31 139 q191 -55 350 -55q323 0 323 230q0 91 -53 143.5t-133 90.5t-173 69.5t-173 79.5t-133 122t-53 180.5z" />
<glyph unicode="T" horiz-adv-x="1165" d="M45 1257v144h1083l-16 -144h-438v-1257h-182v1257h-447z" />
<glyph unicode="U" horiz-adv-x="1329" d="M154 504v897h182v-887q0 -117 20.5 -186.5t64.5 -113.5q87 -87 255 -87q248 0 312 203q22 73 22 184v887h166v-897q0 -276 -133.5 -404.5t-375 -128.5t-370.5 117q-143 128 -143 416z" />
<glyph unicode="V" horiz-adv-x="1204" d="M41 1401h188l387 -1202h5l362 1202h180l-448 -1401h-203z" />
<glyph unicode="W" horiz-adv-x="1812" d="M41 1401h186l318 -1186h4l272 1186h191l299 -1178h4l287 1178h170l-359 -1401h-215l-280 1116h-5l-260 -1116h-221z" />
<glyph unicode="X" horiz-adv-x="1103" d="M45 0l418 698l-400 703h193l311 -565l301 565h191l-410 -694l406 -707h-199l-313 565l-299 -565h-199z" />
<glyph unicode="Y" horiz-adv-x="1177" d="M33 1401h200l357 -674l371 674h184l-475 -832v-569h-183v573z" />
<glyph unicode="Z" horiz-adv-x="1148" d="M102 0v104l723 1153h-710v144h929v-109l-720 -1149h723v-143h-945z" />
<glyph unicode="[" horiz-adv-x="700" d="M233 -424v1913h408v-133h-229v-1647h229v-133h-408z" />
<glyph unicode="\" horiz-adv-x="925" d="M78 1427h166l604 -1456h-166z" />
<glyph unicode="]" horiz-adv-x="700" d="M59 -291h230v1647h-230v133h408v-1913h-408v133z" />
<glyph unicode="^" horiz-adv-x="1105" d="M150 815l333 586h138l333 -586h-157l-246 457l-246 -457h-155z" />
<glyph unicode="_" horiz-adv-x="880" d="M45 -57h791v-125h-791v125z" />
<glyph unicode="`" horiz-adv-x="839" d="M190 1446l97 129l360 -320l-65 -90z" />
<glyph unicode="a" horiz-adv-x="1034" d="M90 285q0 313 426 313h209v64q0 118 -56 173t-195 55q-3 0 -5 1q-136 0 -274 -25l-7 131q158 35 288 35q235 0 331 -92q88 -88 88 -272v-668h-137l-10 68q-149 -97 -316 -97t-262 97q-80 84 -80 217zM262 289q0 -180 207 -180q133 0 256 65v299h-184q-162 0 -220.5 -48 t-58.5 -136z" />
<glyph unicode="b" horiz-adv-x="1081" d="M143 0v1464h170v-512q139 80 289 80q182 0 285.5 -128t103.5 -400t-101.5 -402.5t-289.5 -130.5q-82 0 -167 28t-144 69l-8 -68h-138zM313 184q117 -71 248 -71q130 0 189 87q63 91 63 300t-61.5 298t-189.5 89t-249 -58v-645z" />
<glyph unicode="c" horiz-adv-x="921" d="M90 494q0 259 131 401q129 137 369 137q129 0 239 -31l-10 -131q-117 25 -209 25q-178 0 -260 -101.5t-82 -296.5t83 -290.5t277 -95.5q102 0 199 20l13 -127q-116 -33 -252 -33q-242 0 -365 125q-133 139 -133 398z" />
<glyph unicode="d" horiz-adv-x="1085" d="M90 489.5q0 256.5 108.5 399.5t307.5 143q143 0 266 -71v503h170v-1464h-139l-12 61q-61 -41 -143.5 -65.5t-153.5 -24.5q-193 0 -298.5 131t-105.5 387.5zM268 494q0 -383 273 -383q115 0 231 59v670q-117 49 -213 49t-147.5 -29t-83.5 -81q-60 -95 -60 -285z" />
<glyph unicode="e" horiz-adv-x="1036" d="M90 500q0 259 121 400q113 132 318.5 132t308 -140t102.5 -388v-39q0 -23 -25 -23h-647q0 -252 188 -312q60 -19 168 -19t236 26l17 -127q-143 -39 -297 -39q-369 0 -458 291q-32 103 -32 238zM268 567h504q-6 231 -139 303q-45 25 -109 25q-129 0 -191.5 -87t-64.5 -241 z" />
<glyph unicode="f" horiz-adv-x="653" d="M29 879v96l182 26v138q0 180 78 270t258 90q94 0 168 -16v-129q-62 8 -156 8q-144 0 -169 -110q-9 -40 -9 -109v-139h264v-125h-264v-879h-170v879h-182z" />
<glyph unicode="g" horiz-adv-x="1046" d="M82 -207q0 66 30.5 126.5t84.5 96.5q-47 39 -47 109q0 113 118 231q-141 96 -141 303q0 264 225 345q76 28 155.5 28t125.5 -8l121 262q84 -19 141 -65l-139 -238q178 -91 178 -324q0 -262 -226 -345q-75 -27 -171.5 -27t-163.5 20q-56 -66 -56 -125t82 -59h193 q133 0 212 -22.5t123 -66.5q79 -79 79 -219.5t-111 -222t-365 -81.5q-448 0 -448 282zM242 -176q0 -82 68.5 -126t236.5 -44q299 0 299 166q0 74 -52 112.5t-202 38.5h-217q-43 0 -74 6q-59 -71 -59 -153zM289 659q0 -237 241 -237q242 0 242 237q0 238 -242 238 q-241 0 -241 -238z" />
<glyph unicode="h" horiz-adv-x="1114" d="M143 0v1464h170v-524q171 92 326 92q336 0 336 -350v-682h-170v662q0 120 -50 170q-49 50 -175 50q-1 0 -2 1q-125 0 -265 -66v-817h-170z" />
<glyph unicode="i" horiz-adv-x="464" d="M127 1303v4q0 108 100 108h11q100 0 100 -108v-4q0 -109 -100 -109h-11q-100 0 -100 109zM147 0v1004h170v-1004h-170z" />
<glyph unicode="j" horiz-adv-x="464" d="M-143 -346q86 2 142 17.5t90 53.5t46 94t12 148v1037h170v-1010q0 -145 -23.5 -230.5t-80.5 -142.5q-102 -104 -338 -104zM127 1303v4q0 108 100 108h11q100 0 100 -108v-4q0 -109 -100 -109h-11q-100 0 -100 109z" />
<glyph unicode="k" horiz-adv-x="1024" d="M143 0v1464h170v-970l449 510h196l-354 -390l391 -614h-194l-307 498l-181 -201v-297h-170z" />
<glyph unicode="l" horiz-adv-x="460" d="M145 0v1464h170v-1464h-170z" />
<glyph unicode="m" horiz-adv-x="1724" d="M143 0v1004h142l8 -74q162 102 335.5 102t260.5 -112q184 112 357 112h3q336 0 336 -350v-682h-170v662q0 122 -50 171t-134 49h-5q-153 0 -288 -67q14 -68 14 -133v-682h-170v662q0 66 -11 104q-33 116 -203 116h-3q-113 0 -252 -65v-817h-170z" />
<glyph unicode="n" horiz-adv-x="1114" d="M143 0v1004h142l8 -74q169 102 346 102q336 0 336 -350v-682h-170v662q0 120 -50 170q-49 50 -175 50q-1 0 -2 1q-125 0 -265 -66v-817h-170z" />
<glyph unicode="o" horiz-adv-x="1093" d="M90 502q0 250 111.5 390t345.5 140q233 0 345 -140t112 -390t-112 -390.5t-345 -140.5t-345 140.5t-112 390.5zM268 502q0 -193 62.5 -292t216.5 -99t216 99t62 292t-62.5 292t-215.5 99q-154 0 -216.5 -99.5t-62.5 -291.5z" />
<glyph unicode="p" horiz-adv-x="1081" d="M143 -461v1465h142l8 -74q150 102 313 102q191 0 290 -144q95 -137 95 -401t-105.5 -390t-278 -126t-294.5 76v-508h-170zM313 174q102 -61 241.5 -61t199 90t59.5 294t-58.5 297t-184 93t-257.5 -68v-645z" />
<glyph unicode="q" horiz-adv-x="1087" d="M90 494q0 256 112.5 397t309.5 141q150 0 281 -96l10 68h141v-1453l-170 -30v526q-128 -76 -280 -76q-190 0 -297 133.5t-107 389.5zM268 500q0 -389 273 -389q117 0 233 59v649q-117 70 -242 70q-264 0 -264 -389z" />
<glyph unicode="r" horiz-adv-x="686" d="M143 0v1004h142l10 -86q139 114 285 114q31 0 65 -6v-152q-40 5 -88 5q-137 0 -244 -68v-811h-170z" />
<glyph unicode="s" horiz-adv-x="909" d="M94 743q0 145 102.5 217t262.5 72q157 0 293 -43l-15 -125q-140 33 -264 33q-219 0 -219 -141q0 -55 41 -88t103.5 -56.5t135 -45t134.5 -55.5q145 -79 145 -232q0 -230 -241 -289q-74 -19 -198.5 -19t-260.5 43l8 131q137 -36 280 -36q252 0 252 157q0 55 -41 87 t-103.5 54.5t-135 43t-135 55.5t-103.5 90t-41 147z" />
<glyph unicode="t" horiz-adv-x="747" d="M23 879v96l182 26v238q96 31 170 31v-266h264v-125h-264v-557q0 -72 6 -113t25 -61q41 -44 136 -44q62 0 148 19l8 -125q-113 -28 -203 -28q-76 0 -135 20q-115 40 -142 158q-13 57 -13 151v580h-182z" />
<glyph unicode="u" horiz-adv-x="1110" d="M139 322v682h170v-662q0 -119 50 -170t172 -51t266 65v818h170v-1004h-142l-8 74q-171 -103 -342 -103q-336 0 -336 351z" />
<glyph unicode="v" horiz-adv-x="962" d="M33 1004h178l278 -830l269 830h172l-352 -1004h-187z" />
<glyph unicode="w" horiz-adv-x="1466" d="M33 1004h172l225 -826l215 826h172l244 -836l215 836h158l-279 -1004h-194l-230 768l-209 -768h-196z" />
<glyph unicode="x" horiz-adv-x="944" d="M41 1004h190l256 -383l226 383h186l-332 -502l336 -502h-192l-252 379l-226 -379h-188l334 496z" />
<glyph unicode="y" horiz-adv-x="1110" d="M139 322v682h170v-662q0 -119 50 -170t172 -51t266 65v818h170v-1082q0 -203 -93 -301q-101 -110 -321 -110h-4q-115 0 -203 20l-14 133q111 -12 186 -12q153 0 215 55q64 60 64 217v137q-159 -90 -322 -90q-336 0 -336 351z" />
<glyph unicode="z" horiz-adv-x="870" d="M74 0v92l518 787h-514v125h717v-99l-514 -780h528v-125h-735z" />
<glyph unicode="{" horiz-adv-x="735" d="M115 463v139q120 21 164 68q57 57 57 223v334q0 147 64.5 204t226.5 58h51v-133h-35q-84 0 -103 -19.5t-24.5 -43t-5.5 -68.5v-336q0 -182 -51 -250.5t-135 -106.5q84 -37 122 -87t51 -109.5t13 -159.5v-336q0 -83 25 -107t108 -24h35v-133h-51q-236 0 -277 138 q-14 46 -14 124v334q0 166 -57 223q-44 47 -164 68z" />
<glyph unicode="|" horiz-adv-x="499" d="M176 -518v2040h148v-2040h-148z" />
<glyph unicode="}" horiz-adv-x="735" d="M57 -291h35q84 0 103.5 19.5t24.5 43t5 68.5v336q0 183 51.5 251t135.5 105q-84 37 -122 87.5t-51.5 109.5t-13.5 160v336q0 82 -24.5 106.5t-108.5 24.5h-35v133h52q235 0 276 -137q14 -47 14 -125v-334q0 -167 58 -223q44 -47 164 -68v-139q-122 -21 -164 -68 q-58 -58 -58 -223v-334q0 -148 -64.5 -204.5t-225.5 -57.5h-52v133z" />
<glyph unicode="~" horiz-adv-x="1105" d="M166 657q8 199 188 199q64 0 159 -28q178 -54 232 -54q41 0 59.5 20.5t29.5 67.5l106 -22q-8 -199 -188 -199q-71 0 -162.5 27.5t-140 41t-89.5 13.5t-59 -20.5t-29 -67.5z" />
<glyph unicode="&#xa1;" horiz-adv-x="559" d="M172 915v16q0 101 102 101h11q102 0 102 -101v-16q0 -100 -102 -100h-11q-102 0 -102 100zM190 -398l29 1026h125l29 -1026h-183z" />
<glyph unicode="&#xa2;" d="M193 494q0 259 131 401q103 111 278 131v236h119v-230q115 -4 211 -31l-10 -131q-129 22 -201 25v-784q111 0 209 20l12 -127q-80 -22 -221 -33v-229h-119v235q-185 20 -276 119q-133 139 -133 398zM371 492q0 -319 231 -371v762q-121 -29 -176 -127.5t-55 -263.5z" />
<glyph unicode="&#xa3;" d="M123 670v92l158 18q-33 139 -33 246q0 205 123 303t327 98q144 0 293 -32v-133q-151 24 -291.5 24t-211 -66.5t-70.5 -183t33 -248.5h360v-118h-336q25 -118 25 -205q0 -160 -170 -330h706v-135h-864q-10 35 -10 71t9 58.5t53 76.5t76 118.5t32 137t-29 208.5h-180z" />
<glyph unicode="&#xa4;" d="M106 326l156 155q-57 88 -57 217t57 217l-156 156l93 92l153 -155q88 59 214 59t210 -59l156 155l92 -92l-156 -156q58 -92 58 -217t-58 -217l156 -155l-92 -93l-156 154q-86 -57 -210 -57t-214 57l-153 -154zM367 698q0 -233 198 -233q199 0 199 233t-199 234 q-199 0 -198 -234z" />
<glyph unicode="&#xa5;" d="M57 1401h195l313 -674l330 674h178l-397 -770h242v-117h-277v-96h277v-117h-277v-301h-172v301h-274v117h274v96h-274v117h245z" />
<glyph unicode="&#xa6;" horiz-adv-x="499" d="M176 274h148v-792h-148v792zM176 731v791h148v-791h-148z" />
<glyph unicode="&#xa7;" horiz-adv-x="1136" d="M180 1143q0 147 114 222q95 62 273 62q157 0 297 -38l-22 -129q-130 32 -259 32t-184 -32.5t-55 -101t38 -102.5t132 -57l148 -32q152 -33 221 -91q73 -63 73 -194t-100 -217q100 -74 100 -209q0 -149 -114 -222q-100 -63 -273 -63q-158 0 -317 41l22 131 q151 -37 281.5 -37t184 35t53.5 102.5t-38 100.5t-132 55l-148 33q-147 33 -220 95.5t-73 189t101 213.5q-103 77 -103 213zM338 731q0 -65 40 -99q42 -34 159 -59l129 -28q39 -8 79 -23q56 60 56 142q0 67 -43 102q-44 35 -158 59l-129 29q-47 10 -76 20q-57 -57 -57 -143z " />
<glyph unicode="&#xa8;" horiz-adv-x="839" d="M119 1339v23q0 98 98 98h19q98 0 98 -98v-23q0 -98 -98 -98h-19q-98 0 -98 98zM506 1339v23q0 98 98 98h19q98 0 98 -98v-23q0 -98 -98 -98h-19q-98 0 -98 98z" />
<glyph unicode="&#xa9;" horiz-adv-x="1572" d="M82 700q0 309 183 514q191 213 521 213q331 0 522 -213q183 -205 183 -514q0 -310 -183 -514q-89 -100 -221.5 -157.5t-301.5 -57.5t-300 57.5t-220 157.5q-183 204 -183 514zM225 700q0 -279 151 -440q150 -160 410 -160q261 0 411 160q151 161 151 440q0 281 -151 440 q-150 158 -411 158q-260 0 -410 -158q-151 -159 -151 -440zM506 705q0 176 83 269t226 93q100 0 172 -31l-12 -92q-81 23 -146 23q-109 0 -152.5 -69t-43.5 -199.5t48 -193.5t153 -63q47 0 145 19l4 -94q-87 -25 -166 -25q-311 0 -311 363z" />
<glyph unicode="&#xaa;" horiz-adv-x="833" d="M123 926q0 209 287 209h135v55q0 72 -35 99.5t-132 27.5t-183 -21l-7 107q103 24 234 24t193.5 -59t62.5 -184v-459h-105l-12 45q-90 -59 -201 -59t-174 55.5t-63 159.5zM258 928q0 -102 131 -103q83 0 156 33v174h-127q-86 0 -123 -25.5t-37 -78.5z" />
<glyph unicode="&#xab;" horiz-adv-x="1077" d="M147 537q0 29 13.5 52t48.5 64l270 308l80 -66l-244 -358l244 -359l-80 -65l-270 307q-35 41 -48.5 64.5t-13.5 52.5zM535 537q0 29 13 52t48 64l270 308l80 -66l-244 -358l244 -359l-80 -65l-270 307q-35 41 -48 64.5t-13 52.5z" />
<glyph unicode="&#xac;" horiz-adv-x="1105" d="M213 795v129h680v-498h-129v369h-551z" />
<glyph unicode="&#xad;" horiz-adv-x="659" d="M123 459v145h414v-145h-414z" />
<glyph unicode="&#xae;" horiz-adv-x="1572" d="M82 700q0 309 183 514q191 213 521 213q331 0 522 -213q183 -205 183 -514q0 -310 -183 -514q-89 -100 -221.5 -157.5t-301.5 -57.5t-300 57.5t-220 157.5q-183 204 -183 514zM225 700q0 -279 151 -440q150 -160 410 -160q261 0 411 160q151 161 151 440q0 281 -151 440 q-150 158 -411 158q-260 0 -410 -158q-151 -159 -151 -440zM555 358v701h215q151 0 207.5 -56.5t56.5 -154.5q0 -152 -123 -201l146 -289h-127l-129 269h-127v-269h-119zM674 721h96q82 0 113 25.5t30.5 94t-22.5 91t-50 28t-71 5.5h-96v-244z" />
<glyph unicode="&#xaf;" horiz-adv-x="839" d="M152 1272v137h536v-137h-536z" />
<glyph unicode="&#xb0;" horiz-adv-x="966" d="M135 1067q0 168 91 264t257 96t257 -96t91 -264t-91 -264t-257 -96t-257 96t-91 264zM287 1067q0 -229 196 -229q197 0 197 229t-197 229t-196 -229z" />
<glyph unicode="&#xb1;" horiz-adv-x="1105" d="M213 0v129h680v-129h-680zM213 610v129h274v275h129v-275h277v-129h-277v-276h-129v276h-274z" />
<glyph unicode="&#xb2;" horiz-adv-x="966" d="M213 784q0 55 59 123l164 191q81 94 100 127q33 56 33 106.5t-33.5 78.5t-109 28t-197.5 -17v109q103 24 207 24q156 0 220.5 -64t64.5 -153t-71 -185t-273 -302h350v-117h-508q-6 18 -6 51z" />
<glyph unicode="&#xb3;" horiz-adv-x="966" d="M221 739v115q79 -18 160 -18q194 0 192 133q0 61 -39.5 95t-156.5 34h-21v104h21q111 0 146.5 35t35.5 91t-36 83t-117 27t-177 -13v111q79 18 200.5 18t196 -56t74.5 -163q0 -135 -112 -180q137 -50 137 -199q0 -117 -88 -177t-215 -60t-201 20z" />
<glyph unicode="&#xb4;" horiz-adv-x="839" d="M190 1255l361 320l96 -129l-391 -281z" />
<glyph unicode="&#xb6;" horiz-adv-x="1232" d="M119 1023q0 271 222 349q83 29 191 29h576v-135h-143v-1682h-148v1682h-162v-1682h-147v1084q-178 0 -283.5 94t-105.5 261z" />
<glyph unicode="&#xb7;" horiz-adv-x="464" d="M123 723v8q0 111 102 111h15q102 0 102 -111v-8q0 -111 -102 -111h-15q-102 0 -102 111z" />
<glyph unicode="&#xb8;" horiz-adv-x="839" d="M233 -338q72 -16 138 -16q104 0 104 57q0 31 -37 47.5t-81 32.5t-80.5 41.5t-36.5 81t53 108.5h94q-18 -36 -18 -67t36.5 -45.5t81.5 -34t82 -53t37 -111.5t-56 -125t-146.5 -47t-170.5 25v106z" />
<glyph unicode="&#xb9;" horiz-adv-x="966" d="M272 733v115h164v577h-155v109q100 10 181 10t99.5 -16.5t18.5 -54.5v-625h137v-115h-445z" />
<glyph unicode="&#xba;" horiz-adv-x="860" d="M109 1069q0 168 81.5 263t239.5 95t240 -95t82 -263t-82 -263t-240 -95t-239.5 95t-81.5 263zM252 1069q0 -240 178 -240t178 240t-178 240t-178 -240z" />
<glyph unicode="&#xbb;" horiz-adv-x="1077" d="M131 178l244 359l-244 358l80 66l270 -308q35 -41 48.5 -64t13.5 -52t-13.5 -52.5t-48.5 -64.5l-270 -307zM518 178l244 359l-244 358l80 66l270 -308q35 -41 48.5 -64t13.5 -52t-13.5 -52.5t-48.5 -64.5l-270 -307z" />
<glyph unicode="&#xbc;" horiz-adv-x="1945" d="M221 608v115h164v577h-156v109q100 10 181 10t99.5 -16.5t18.5 -54.5v-625h138v-115h-445zM528 -29l719 1456h156l-717 -1456h-158zM1159 240.5q0 29.5 21 89.5l170 489h137l-172 -506h219v176h139v-176h96v-118h-96v-195h-139v195h-371q-4 16 -4 45.5z" />
<glyph unicode="&#xbd;" horiz-adv-x="1945" d="M215 610v115h164v577h-155v109q100 10 181 10t99.5 -16.5t18.5 -54.5v-625h137v-115h-445zM521 -29l718 1456h156l-717 -1456h-157zM1214 53q0 55 59 123l164 191q81 94 100 127q33 56 33 106.5t-33.5 78.5t-109 28t-197.5 -17v109q103 24 207 24q156 0 220.5 -64 t64.5 -153t-71 -185t-273 -302h350v-117h-508q-6 18 -6 51z" />
<glyph unicode="&#xbe;" horiz-adv-x="1945" d="M201 614v115q79 -18 159 -18q193 0 193 133q0 61 -40 95t-157 34h-20v104h20q111 0 147 35t36 91t-36 83t-117 27t-177 -13v111q83 19 202 19t194 -56.5t75 -163.5q0 -135 -113 -180q138 -50 138 -199q0 -117 -88.5 -177t-215 -60t-200.5 20zM532 -29l719 1456h156 l-717 -1456h-158zM1159 240.5q0 29.5 21 89.5l170 489h137l-172 -506h219v176h139v-176h96v-118h-96v-195h-139v195h-371q-4 16 -4 45.5z" />
<glyph unicode="&#xbf;" horiz-adv-x="847" d="M70 -117q0 125 45 210t114.5 164.5t103.5 120.5t55 78q38 70 42 172h125q6 -33 6 -67.5t-6 -69.5t-21 -70q-33 -75 -108 -161l-24 -29q-74 -86 -113 -155.5t-39 -161.5q0 -144 134 -179q46 -12 149 -12t215 31l26 -133q-147 -45 -278 -45q-232 0 -338 98q-88 84 -88 209z M377 915v16q0 101 102 101h11q102 0 102 -101v-16q0 -100 -102 -100h-11q-102 0 -102 100z" />
<glyph unicode="&#xc0;" horiz-adv-x="1210" d="M37 0l444 1401h209l484 -1401h-191l-123 373h-530l-115 -373h-178zM335 1835l97 129l360 -319l-65 -91zM375 516h438l-225 692h-2z" />
<glyph unicode="&#xc1;" horiz-adv-x="1210" d="M37 0l444 1401h209l484 -1401h-191l-123 373h-530l-115 -373h-178zM356 1645l361 319l96 -129l-391 -281zM375 516h438l-225 692h-2z" />
<glyph unicode="&#xc2;" horiz-adv-x="1210" d="M37 0l444 1401h209l484 -1401h-191l-123 373h-530l-115 -373h-178zM264 1620l244 301h146l241 -301l-61 -61l-254 219l-254 -219zM375 516h438l-225 692h-2z" />
<glyph unicode="&#xc3;" horiz-adv-x="1210" d="M37 0l444 1401h209l484 -1401h-191l-123 373h-530l-115 -373h-178zM264 1667q8 102 52.5 157.5t119.5 55.5q55 0 123 -27.5t99.5 -40t60.5 -12.5q65 0 82 82l96 -16q-8 -102 -52 -157.5t-120 -55.5q-60 0 -125 27q-124 53 -157 53q-65 0 -82 -82zM375 516h438l-225 692 h-2z" />
<glyph unicode="&#xc4;" horiz-adv-x="1210" d="M37 0l444 1401h209l484 -1401h-191l-123 373h-530l-115 -373h-178zM283 1729v22q0 98 98 98h19q98 0 98 -98v-22q0 -98 -98 -99h-19q-98 0 -98 99zM375 516h438l-225 692h-2zM670 1729v22q0 98 98 98h19q98 0 98 -98v-22q0 -98 -98 -99h-19q-98 0 -98 99z" />
<glyph unicode="&#xc5;" horiz-adv-x="1210" d="M37 0l444 1401h209l484 -1401h-191l-123 373h-530l-115 -373h-178zM352 1784v18q0 113 63.5 165t166.5 52h8q102 0 165.5 -52t63.5 -165v-18q0 -113 -63.5 -165t-165.5 -52h-8q-102 0 -166 52t-64 165zM375 516h438l-225 692h-2zM467 1788q0 -63 29.5 -90t87.5 -27h4 q57 0 87 26.5t30 90.5v10q0 117 -117 117h-4q-57 0 -87 -26.5t-30 -90.5v-10z" />
<glyph unicode="&#xc6;" horiz-adv-x="1845" d="M20 0l820 1401h891l-17 -144h-604v-475h489v-147h-489v-492h633v-143h-815v373h-502l-215 -373h-191zM508 516h420v725z" />
<glyph unicode="&#xc7;" horiz-adv-x="1136" d="M115 692q0 394 182 580q147 155 424 155q182 0 326 -53l-25 -139q-152 39 -281 39q-213 0 -313 -113q-123 -134 -123 -465q0 -325 129 -458q111 -115 352 -115q124 0 248 29l17 -140q-139 -41 -310 -41h-37q-20 0 -34 2q-2 -10 -2 -33.5t36.5 -38t81.5 -34t82 -53 t37 -111.5t-56 -125t-146.5 -47t-170.5 25v106q72 -16 138 -16q104 0 104 57q0 31 -37 47.5t-81 32.5t-80.5 41.5t-36.5 76t24 89.5q-449 92 -448 702z" />
<glyph unicode="&#xc8;" horiz-adv-x="1087" d="M170 0v1401h803l-17 -144h-604v-475h490v-147h-490v-492h633v-143h-815zM352 1835l97 129l360 -319l-65 -91z" />
<glyph unicode="&#xc9;" horiz-adv-x="1087" d="M170 0v1401h803l-17 -144h-604v-475h490v-147h-490v-492h633v-143h-815zM360 1645l361 319l96 -129l-391 -281z" />
<glyph unicode="&#xca;" horiz-adv-x="1087" d="M170 0v1401h803l-17 -144h-604v-475h490v-147h-490v-492h633v-143h-815zM262 1620l244 301h146l241 -301l-61 -61l-254 219l-254 -219z" />
<glyph unicode="&#xcb;" horiz-adv-x="1087" d="M170 0v1401h803l-17 -144h-604v-475h490v-147h-490v-492h633v-143h-815zM271 1729v22q0 98 98 98h19q98 0 98 -98v-22q0 -98 -98 -99h-19q-98 0 -98 99zM658 1729v22q0 98 98 98h19q98 0 98 -98v-22q0 -98 -98 -99h-19q-98 0 -98 99z" />
<glyph unicode="&#xcc;" horiz-adv-x="534" d="M36 1835l97 129l360 -319l-65 -91zM176 0v1401h182v-1401h-182z" />
<glyph unicode="&#xcd;" horiz-adv-x="534" d="M49 1645l361 319l96 -129l-391 -281zM176 0v1401h182v-1401h-182z" />
<glyph unicode="&#xce;" horiz-adv-x="534" d="M-46 1620l244 301h146l241 -301l-61 -61l-254 219l-254 -219zM176 0v1401h182v-1401h-182z" />
<glyph unicode="&#xcf;" horiz-adv-x="534" d="M-31 1729v22q0 98 98 98h19q98 0 98 -98v-22q0 -98 -98 -99h-19q-98 0 -98 99zM176 0v1401h182v-1401h-182zM356 1729v22q0 98 98 98h19q98 0 98 -98v-22q0 -98 -98 -99h-19q-98 0 -98 99z" />
<glyph unicode="&#xd0;" horiz-adv-x="1351" d="M25 635v147h174v619h354q195 0 323 -40t208 -128q153 -170 153 -540q0 -541 -363 -656q-116 -37 -282 -37h-393v635h-174zM381 145h205q224 0 327 103q136 128 136 459q0 289 -103 415q-57 70 -150.5 101.5t-252.5 31.5h-162v-473h244v-147h-244v-490z" />
<glyph unicode="&#xd1;" horiz-adv-x="1396" d="M170 0v1401h127l768 -1090v1090h162v-1401h-140l-755 1067v-1067h-162zM381 1667q8 102 52.5 157.5t119.5 55.5q55 0 123 -27.5t99.5 -40t60.5 -12.5q65 0 82 82l96 -16q-8 -102 -52 -157.5t-120 -55.5q-60 0 -125 27q-124 53 -157 53q-65 0 -82 -82z" />
<glyph unicode="&#xd2;" horiz-adv-x="1347" d="M115 698q0 518 295 673q106 56 264 56q295 0 436 -211q123 -183 123 -518q0 -514 -295 -670q-107 -57 -264 -57q-295 0 -436 211q-123 182 -123 516zM305 698q0 -279 77 -414q89 -155 292 -155q297 0 351 335q17 105 17 234q0 279 -76 415q-88 157 -292 157 q-296 0 -352 -338q-17 -105 -17 -234zM444 1835l97 129l360 -319l-65 -91z" />
<glyph unicode="&#xd3;" horiz-adv-x="1347" d="M115 698q0 518 295 673q106 56 264 56q295 0 436 -211q123 -183 123 -518q0 -514 -295 -670q-107 -57 -264 -57q-295 0 -436 211q-123 182 -123 516zM305 698q0 -279 77 -414q89 -155 292 -155q297 0 351 335q17 105 17 234q0 279 -76 415q-88 157 -292 157 q-296 0 -352 -338q-17 -105 -17 -234zM444 1645l361 319l96 -129l-391 -281z" />
<glyph unicode="&#xd4;" horiz-adv-x="1347" d="M115 698q0 518 295 673q106 56 264 56q295 0 436 -211q123 -183 123 -518q0 -514 -295 -670q-107 -57 -264 -57q-295 0 -436 211q-123 182 -123 516zM305 698q0 -279 77 -414q89 -155 292 -155q297 0 351 335q17 105 17 234q0 279 -76 415q-88 157 -292 157 q-296 0 -352 -338q-17 -105 -17 -234zM358 1620l244 301h146l241 -301l-61 -61l-254 219l-254 -219z" />
<glyph unicode="&#xd5;" horiz-adv-x="1347" d="M115 698q0 518 295 673q106 56 264 56q295 0 436 -211q123 -183 123 -518q0 -514 -295 -670q-107 -57 -264 -57q-295 0 -436 211q-123 182 -123 516zM305 698q0 -279 77 -414q89 -155 292 -155q297 0 351 335q17 105 17 234q0 279 -76 415q-88 157 -292 157 q-296 0 -352 -338q-17 -105 -17 -234zM356 1667q8 102 52.5 157.5t119.5 55.5q55 0 123 -27.5t99.5 -40t60.5 -12.5q65 0 82 82l96 -16q-8 -102 -52 -157.5t-120 -55.5q-60 0 -125 27q-124 53 -157 53q-65 0 -82 -82z" />
<glyph unicode="&#xd6;" horiz-adv-x="1347" d="M115 698q0 518 295 673q106 56 264 56q295 0 436 -211q123 -183 123 -518q0 -514 -295 -670q-107 -57 -264 -57q-295 0 -436 211q-123 182 -123 516zM305 698q0 -279 77 -414q89 -155 292 -155q297 0 351 335q17 105 17 234q0 279 -76 415q-88 157 -292 157 q-296 0 -352 -338q-17 -105 -17 -234zM373 1729v22q0 98 98 98h19q98 0 98 -98v-22q0 -98 -98 -99h-19q-98 0 -98 99zM760 1729v22q0 98 98 98h19q98 0 98 -98v-22q0 -98 -98 -99h-19q-98 0 -98 99z" />
<glyph unicode="&#xd7;" horiz-adv-x="1105" d="M266 479l195 195l-195 194l92 90l193 -192l197 195l90 -93l-195 -194l195 -195l-90 -92l-197 195l-193 -193z" />
<glyph unicode="&#xd8;" horiz-adv-x="1347" d="M115 698q0 518 295 673q106 56 241.5 56t220.5 -30l60 153h141l-82 -211q242 -170 242 -641q0 -514 -295 -670q-107 -57 -241 -57t-214 27l-55 -150h-141l78 205q-250 164 -250 645zM305 661q0 -315 123 -442l387 1026q-61 25 -155.5 25t-165 -41t-112.5 -116 q-77 -137 -77 -452zM541 150q55 -20 148.5 -20.5t164 40.5t112.5 114q76 134 76 444.5t-114 438.5z" />
<glyph unicode="&#xd9;" horiz-adv-x="1329" d="M154 504v897h182v-887q0 -117 20.5 -186.5t64.5 -113.5q87 -87 255 -87q248 0 312 203q22 73 22 184v887h166v-897q0 -276 -133.5 -404.5t-375 -128.5t-370.5 117q-143 128 -143 416zM436 1835l97 129l360 -319l-65 -91z" />
<glyph unicode="&#xda;" horiz-adv-x="1329" d="M154 504v897h182v-887q0 -117 20.5 -186.5t64.5 -113.5q87 -87 255 -87q248 0 312 203q22 73 22 184v887h166v-897q0 -276 -133.5 -404.5t-375 -128.5t-370.5 117q-143 128 -143 416zM477 1645l361 319l96 -129l-391 -281z" />
<glyph unicode="&#xdb;" horiz-adv-x="1329" d="M154 504v897h182v-887q0 -117 20.5 -186.5t64.5 -113.5q87 -87 255 -87q248 0 312 203q22 73 22 184v887h166v-897q0 -276 -133.5 -404.5t-375 -128.5t-370.5 117q-143 128 -143 416zM348 1620l244 301h146l241 -301l-61 -61l-254 219l-254 -219z" />
<glyph unicode="&#xdc;" horiz-adv-x="1329" d="M154 504v897h182v-887q0 -117 20.5 -186.5t64.5 -113.5q87 -87 255 -87q248 0 312 203q22 73 22 184v887h166v-897q0 -276 -133.5 -404.5t-375 -128.5t-370.5 117q-143 128 -143 416zM363 1729v22q0 98 98 98h19q98 0 98 -98v-22q0 -98 -98 -99h-19q-98 0 -98 99z M750 1729v22q0 98 98 98h19q98 0 98 -98v-22q0 -98 -98 -99h-19q-98 0 -98 99z" />
<glyph unicode="&#xdd;" horiz-adv-x="1177" d="M33 1401h200l357 -674l371 674h184l-475 -832v-569h-183v573zM401 1645l361 319l96 -129l-391 -281z" />
<glyph unicode="&#xde;" horiz-adv-x="1187" d="M170 0v1401h182v-256h219q297 0 412 -119q102 -102 102 -316q0 -444 -473 -444h-260v-266h-182zM352 414h199q197 0 271.5 70.5t74.5 223t-66 218.5q-75 75 -274 75h-205v-587z" />
<glyph unicode="&#xdf;" horiz-adv-x="1323" d="M29 879v96l182 26v23q0 236 116.5 355.5t317 119.5t303.5 -84t103 -223q0 -157 -147 -272q-95 -73 -120.5 -107.5t-25.5 -75.5t35.5 -69.5t89 -51t115 -46t114.5 -60.5q125 -87 125 -233t-96.5 -226t-274 -80t-323.5 41l10 131q134 -34 281 -34q239 0 239 151 q0 57 -36 92t-89 59.5t-116.5 46t-116.5 53.5q-125 75 -125 204q0 93 76 174q32 35 70 66.5t71 65.5q76 78 76 161.5t-55.5 131.5t-177 48t-195.5 -86t-74 -272v-1004h-170v879h-182z" />
<glyph unicode="&#xe0;" horiz-adv-x="1034" d="M90 285q0 313 426 313h209v64q0 118 -56 173t-195 55.5t-279 -24.5l-7 131q158 35 288 35q235 0 331 -92q88 -88 88 -272v-668h-137l-10 68q-149 -97 -316 -97t-262 97q-80 84 -80 217zM262 289q0 -180 207 -180q133 0 256 65v299h-184q-162 0 -220.5 -48t-58.5 -136z M276 1446l97 129l360 -320l-65 -90z" />
<glyph unicode="&#xe1;" horiz-adv-x="1034" d="M90 285q0 313 426 313h209v64q0 118 -56 173t-195 55.5t-279 -24.5l-7 131q158 35 288 35q235 0 331 -92q88 -88 88 -272v-668h-137l-10 68q-149 -97 -316 -97t-262 97q-80 84 -80 217zM262 289q0 -180 207 -180q133 0 256 65v299h-184q-162 0 -220.5 -48t-58.5 -136z M305 1255l361 320l96 -129l-391 -281z" />
<glyph unicode="&#xe2;" horiz-adv-x="1034" d="M90 285q0 313 426 313h209v64q0 118 -56 173t-195 55.5t-279 -24.5l-7 131q158 35 288 35q235 0 331 -92q88 -88 88 -272v-668h-137l-10 68q-149 -97 -316 -97t-262 97q-80 84 -80 217zM202 1229l244 301h146l241 -301l-61 -62l-254 219l-254 -219zM262 289 q0 -180 207 -180q133 0 256 65v299h-184q-162 0 -220.5 -48t-58.5 -136z" />
<glyph unicode="&#xe3;" horiz-adv-x="1034" d="M90 285q0 313 426 313h209v64q0 118 -56 173t-195 55.5t-279 -24.5l-7 131q158 35 288 35q235 0 331 -92q88 -88 88 -272v-668h-137l-10 68q-149 -97 -316 -97t-262 97q-80 84 -80 217zM190 1268q8 102 52.5 157.5t119.5 55.5q57 0 124 -28t98.5 -40t60.5 -12q65 0 82 82 l96 -17q-8 -102 -52 -157.5t-120 -55.5q-58 0 -124 28q-123 52 -158 52q-65 0 -82 -82zM262 289q0 -180 207 -180q133 0 256 65v299h-184q-162 0 -220.5 -48t-58.5 -136z" />
<glyph unicode="&#xe4;" horiz-adv-x="1034" d="M90 285q0 313 426 313h209v64q0 118 -56 173t-195 55.5t-279 -24.5l-7 131q158 35 288 35q235 0 331 -92q88 -88 88 -272v-668h-137l-10 68q-149 -97 -316 -97t-262 97q-80 84 -80 217zM207 1339v23q0 98 98 98h19q98 0 98 -98v-23q0 -98 -98 -98h-19q-98 0 -98 98z M262 289q0 -180 207 -180q133 0 256 65v299h-184q-162 0 -220.5 -48t-58.5 -136zM594 1339v23q0 98 98 98h19q98 0 98 -98v-23q0 -98 -98 -98h-19q-98 0 -98 98z" />
<glyph unicode="&#xe5;" horiz-adv-x="1034" d="M90 285q0 313 426 313h209v64q0 118 -56 173t-195 55.5t-279 -24.5l-7 131q158 35 288 35q235 0 331 -92q88 -88 88 -272v-668h-137l-10 68q-149 -97 -316 -97t-262 97q-80 84 -80 217zM262 289q0 -180 207 -180q133 0 256 65v299h-184q-162 0 -220.5 -48t-58.5 -136z M276 1395v18q0 113 63.5 165t166.5 52h8q102 0 165.5 -52t63.5 -165v-18q0 -113 -63.5 -165t-165.5 -52h-8q-102 0 -166 52t-64 165zM391 1399q0 -63 29.5 -90t87.5 -27h4q57 0 87 26.5t30 90.5v10q0 117 -117 117h-4q-57 0 -87 -26.5t-30 -90.5v-10z" />
<glyph unicode="&#xe6;" horiz-adv-x="1671" d="M90 285q0 313 426 313h209v64q0 118 -56 173t-195 55.5t-279 -24.5l-7 131q158 35 288 35q235 0 331 -92q20 -23 37 -43q113 135 319.5 135t309 -140t102.5 -388v-39q0 -23 -25 -23h-647q0 -252 189 -312q59 -19 167 -19t236 26l16 -127q-143 -39 -297 -39 q-238 0 -358 121l-12 12q-188 -133 -402 -133q-177 0 -272 97q-80 80 -80 217zM262 289q0 -180 207 -180q157 0 309 94q-51 113 -53 270h-184q-162 0 -220.5 -48t-58.5 -136zM903 567h504q-6 231 -139 303q-45 25 -109 25q-129 0 -191.5 -87t-64.5 -241z" />
<glyph unicode="&#xe7;" horiz-adv-x="921" d="M90 493.5q0 259.5 131 401.5q129 137 369 137q129 0 239 -31l-10 -131q-117 25 -209 25q-178 0 -260 -101.5t-82 -296.5t83 -290.5t277 -95.5q102 0 199 20l13 -127q-116 -33 -252 -33h-24q-11 0 -23 2q-4 -12 -4 -26q0 -31 36.5 -45.5t81.5 -34t82 -53t37 -111.5 t-56 -125t-146.5 -47t-170.5 25v106q72 -16 138 -16q104 0 104 57q0 31 -37 47.5t-81 32.5t-80.5 41.5t-36.5 75t28 86.5q-133 29 -204 102q-142 146 -142 405.5z" />
<glyph unicode="&#xe8;" horiz-adv-x="1036" d="M90 500q0 259 121 400q113 132 318.5 132t308 -140t102.5 -388v-39q0 -23 -25 -23h-647q0 -252 188 -312q60 -19 168 -19t236 26l17 -127q-143 -39 -297 -39q-369 0 -458 291q-32 103 -32 238zM268 567h504q-6 231 -139 303q-45 25 -109 25q-129 0 -191.5 -87t-64.5 -241 zM288 1446l97 129l360 -320l-65 -90z" />
<glyph unicode="&#xe9;" horiz-adv-x="1036" d="M90 500q0 259 121 400q113 132 318.5 132t308 -140t102.5 -388v-39q0 -23 -25 -23h-647q0 -252 188 -312q60 -19 168 -19t236 26l17 -127q-143 -39 -297 -39q-369 0 -458 291q-32 103 -32 238zM268 567h504q-6 231 -139 303q-45 25 -109 25q-129 0 -191.5 -87t-64.5 -241 zM309 1255l361 320l96 -129l-391 -281z" />
<glyph unicode="&#xea;" horiz-adv-x="1036" d="M90 500q0 259 121 400q113 132 318.5 132t308 -140t102.5 -388v-39q0 -23 -25 -23h-647q0 -252 188 -312q60 -19 168 -19t236 26l17 -127q-143 -39 -297 -39q-369 0 -458 291q-32 103 -32 238zM217 1229l244 301h146l241 -301l-61 -62l-254 219l-254 -219zM268 567h504 q-6 231 -139 303q-45 25 -109 25q-129 0 -191.5 -87t-64.5 -241z" />
<glyph unicode="&#xeb;" horiz-adv-x="1036" d="M90 500q0 259 121 400q113 132 318.5 132t308 -140t102.5 -388v-39q0 -23 -25 -23h-647q0 -252 188 -312q60 -19 168 -19t236 26l17 -127q-143 -39 -297 -39q-369 0 -458 291q-32 103 -32 238zM230 1339v23q0 98 98 98h19q98 0 98 -98v-23q0 -98 -98 -98h-19 q-98 0 -98 98zM268 567h504q-6 231 -139 303q-45 25 -109 25q-129 0 -191.5 -87t-64.5 -241zM617 1339v23q0 98 98 98h19q98 0 98 -98v-23q0 -98 -98 -98h-19q-98 0 -98 98z" />
<glyph unicode="&#xec;" horiz-adv-x="464" d="M-3 1446l97 129l360 -320l-65 -90zM147 0v1004h170v-1004h-170z" />
<glyph unicode="&#xed;" horiz-adv-x="464" d="M34 1255l361 320l96 -129l-391 -281zM147 0v1004h170v-1004h-170z" />
<glyph unicode="&#xee;" horiz-adv-x="464" d="M-80 1229l244 301h146l241 -301l-61 -62l-254 219l-254 -219zM147 0v1004h170v-1004h-170z" />
<glyph unicode="&#xef;" horiz-adv-x="464" d="M-65 1339v23q0 98 98 98h19q98 0 98 -98v-23q0 -98 -98 -98h-19q-98 0 -98 98zM147 0v1004h170v-1004h-170zM322 1339v23q0 98 98 98h19q98 0 98 -98v-23q0 -98 -98 -98h-19q-98 0 -98 98z" />
<glyph unicode="&#xf0;" horiz-adv-x="1097" d="M90 462.5q0 223.5 109.5 356.5t310.5 133q143 0 270 -55q-57 195 -205 373l-157 -125l-66 82l152 121q-78 80 -172 159l80 82q109 -78 192 -155l166 133l66 -82l-154 -125q317 -340 317 -791q0 -429 -248 -554q-87 -44 -204 -44t-201 35t-140 100q-116 133 -116 356.5z M264 467q0 -253 152 -331q53 -27 130 -27t131 33.5t87 93.5q61 112 61 331q0 105 -18 195q-122 53 -256 53q-287 0 -287 -348z" />
<glyph unicode="&#xf1;" horiz-adv-x="1114" d="M143 0v1004h142l8 -74q169 102 346 102q336 0 336 -350v-682h-170v662q0 120 -50 170t-175.5 50.5t-266.5 -65.5v-817h-170zM266 1268q8 102 52.5 157.5t119.5 55.5q57 0 124 -28t98.5 -40t60.5 -12q65 0 82 82l96 -17q-8 -102 -52 -157.5t-120 -55.5q-58 0 -124 28 q-123 52 -158 52q-65 0 -82 -82z" />
<glyph unicode="&#xf2;" horiz-adv-x="1093" d="M90 502q0 250 111.5 390t345.5 140q233 0 345 -140t112 -390t-112 -390.5t-345 -140.5t-345 140.5t-112 390.5zM268 502q0 -193 62.5 -292t216.5 -99t216 99t62 292t-62.5 292t-215.5 99q-154 0 -216.5 -99.5t-62.5 -291.5zM313 1446l97 129l360 -320l-65 -90z" />
<glyph unicode="&#xf3;" horiz-adv-x="1093" d="M90 502q0 250 111.5 390t345.5 140q233 0 345 -140t112 -390t-112 -390.5t-345 -140.5t-345 140.5t-112 390.5zM268 502q0 -193 62.5 -292t216.5 -99t216 99t62 292t-62.5 292t-215.5 99q-154 0 -216.5 -99.5t-62.5 -291.5zM329 1255l361 320l96 -129l-391 -281z" />
<glyph unicode="&#xf4;" horiz-adv-x="1093" d="M90 502q0 250 111.5 390t345.5 140q233 0 345 -140t112 -390t-112 -390.5t-345 -140.5t-345 140.5t-112 390.5zM231 1229l244 301h146l241 -301l-61 -62l-254 219l-254 -219zM268 502q0 -193 62.5 -292t216.5 -99t216 99t62 292t-62.5 292t-215.5 99q-154 0 -216.5 -99.5 t-62.5 -291.5z" />
<glyph unicode="&#xf5;" horiz-adv-x="1093" d="M90 502q0 250 111.5 390t345.5 140q233 0 345 -140t112 -390t-112 -390.5t-345 -140.5t-345 140.5t-112 390.5zM229 1268q8 102 52.5 157.5t119.5 55.5q57 0 124 -28t98.5 -40t60.5 -12q65 0 82 82l96 -17q-8 -102 -52 -157.5t-120 -55.5q-58 0 -124 28q-123 52 -158 52 q-65 0 -82 -82zM268 502q0 -193 62.5 -292t216.5 -99t216 99t62 292t-62.5 292t-215.5 99q-154 0 -216.5 -99.5t-62.5 -291.5z" />
<glyph unicode="&#xf6;" horiz-adv-x="1093" d="M90 502q0 250 111.5 390t345.5 140q233 0 345 -140t112 -390t-112 -390.5t-345 -140.5t-345 140.5t-112 390.5zM246 1339v23q0 98 98 98h19q98 0 98 -98v-23q0 -98 -98 -98h-19q-98 0 -98 98zM268 502q0 -193 62.5 -292t216.5 -99t216 99t62 292t-62.5 292t-215.5 99 q-154 0 -216.5 -99.5t-62.5 -291.5zM633 1339v23q0 98 98 98h19q98 0 98 -98v-23q0 -98 -98 -98h-19q-98 0 -98 98z" />
<glyph unicode="&#xf7;" horiz-adv-x="1105" d="M213 610v129h680v-129h-680zM455 358v2q0 107 102 107h6q103 0 103 -107v-2q0 -106 -103 -106h-6q-102 0 -102 106zM455 989v2q0 107 102 107h6q103 0 103 -107v-2q0 -106 -103 -106h-6q-102 0 -102 106z" />
<glyph unicode="&#xf8;" horiz-adv-x="1093" d="M90 502q0 250 111.5 390t345.5 140q66 0 125 -12l51 141h135l-67 -186q213 -115 213 -473q0 -250 -112 -390.5t-345 -140.5q-63 0 -119 13l-51 -142h-135l65 183q-217 115 -217 477zM268 477q0 -218 94 -305l261 713q-31 8 -76 8q-154 0 -216.5 -99t-62.5 -317zM477 117 q31 -6 70 -6q154 0 216 99t62 312t-90 303z" />
<glyph unicode="&#xf9;" horiz-adv-x="1110" d="M139 322v682h170v-662q0 -119 50 -170t172 -51t266 65v818h170v-1004h-142l-8 74q-171 -103 -342 -103q-336 0 -336 351zM305 1446l97 129l360 -320l-65 -90z" />
<glyph unicode="&#xfa;" horiz-adv-x="1110" d="M139 322v682h170v-662q0 -119 50 -170t172 -51t266 65v818h170v-1004h-142l-8 74q-171 -103 -342 -103q-336 0 -336 351zM366 1255l361 320l96 -129l-391 -281z" />
<glyph unicode="&#xfb;" horiz-adv-x="1110" d="M139 322v682h170v-662q0 -119 50 -170t172 -51t266 65v818h170v-1004h-142l-8 74q-171 -103 -342 -103q-336 0 -336 351zM239 1229l244 301h146l241 -301l-61 -62l-254 219l-254 -219z" />
<glyph unicode="&#xfc;" horiz-adv-x="1110" d="M139 322v682h170v-662q0 -119 50 -170t172 -51t266 65v818h170v-1004h-142l-8 74q-171 -103 -342 -103q-336 0 -336 351zM254 1339v23q0 98 98 98h19q98 0 98 -98v-23q0 -98 -98 -98h-19q-98 0 -98 98zM641 1339v23q0 98 98 98h19q98 0 98 -98v-23q0 -98 -98 -98h-19 q-98 0 -98 98z" />
<glyph unicode="&#xfd;" horiz-adv-x="1110" d="M139 322v682h170v-662q0 -119 50 -170t172 -51t266 65v818h170v-1082q0 -203 -93 -301q-102 -111 -325 -110q-115 0 -203 20l-14 133q111 -12 186 -12q153 0 215 55q64 60 64 217v137q-159 -90 -322 -90q-336 0 -336 351zM350 1255l361 320l96 -129l-391 -281z" />
<glyph unicode="&#xfe;" horiz-adv-x="1081" d="M143 -461v1925h170v-522q142 90 293 90q191 0 290 -144q95 -137 95 -401t-105.5 -390t-278 -126t-294.5 76v-508h-170zM313 174q102 -61 241.5 -61t199 90t59.5 294t-58.5 297t-184 93t-257.5 -68v-645z" />
<glyph unicode="&#xff;" horiz-adv-x="1110" d="M139 322v682h170v-662q0 -119 50 -170t172 -51t266 65v818h170v-1082q0 -203 -93 -301q-102 -111 -325 -110q-115 0 -203 20l-14 133q111 -12 186 -12q153 0 215 55q64 60 64 217v137q-159 -90 -322 -90q-336 0 -336 351zM254 1339v23q0 98 98 98h19q98 0 98 -98v-23 q0 -98 -98 -98h-19q-98 0 -98 98zM641 1339v23q0 98 98 98h19q98 0 98 -98v-23q0 -98 -98 -98h-19q-98 0 -98 98z" />
<glyph unicode="&#x152;" horiz-adv-x="1873" d="M115 694q0 351 186 529t573 178h885l-16 -144h-604v-475h489v-147h-489v-492h633v-143h-914q-370 0 -547 162q-196 176 -196 532zM305 700q0 -433 317 -528q109 -33 271 -33h63v1123h-59q-330 0 -463 -144q-129 -139 -129 -418z" />
<glyph unicode="&#x153;" horiz-adv-x="1771" d="M90 502q0 250 111.5 390t356 140t357.5 -172q118 172 337 172t321 -140t102 -388v-39q0 -23 -24 -23h-647q0 -251 188 -312q59 -19 167 -19t236 26l17 -127q-143 -39 -297 -39q-238 0 -359 121q-25 20 -43 49q-113 -170 -356 -170t-355 140.5t-112 390.5zM268 502 q0 -193 62.5 -292t214.5 -99t214 93t66 277v21q0 193 -62.5 292t-215.5 99q-154 0 -216.5 -99.5t-62.5 -291.5zM1004 567h503q-6 231 -139 303q-45 25 -108 25q-129 0 -191.5 -87t-64.5 -241z" />
<glyph unicode="&#x178;" horiz-adv-x="1177" d="M33 1401h200l357 -674l371 674h184l-475 -832v-569h-183v573zM287 1729v22q0 98 98 98h19q98 0 98 -98v-22q0 -98 -98 -99h-19q-98 0 -98 99zM674 1729v22q0 98 98 98h19q98 0 98 -98v-22q0 -98 -98 -99h-19q-98 0 -98 99z" />
<glyph unicode="&#x2c6;" horiz-adv-x="839" d="M104 1229l244 301h146l241 -301l-61 -62l-254 219l-254 -219z" />
<glyph unicode="&#x2dc;" horiz-adv-x="839" d="M102 1268q8 102 52.5 157.5t119.5 55.5q57 0 124 -28t98.5 -40t60.5 -12q65 0 82 82l96 -17q-8 -102 -52 -157.5t-120 -55.5q-58 0 -124 28q-123 52 -158 52q-65 0 -82 -82z" />
<glyph unicode="&#x2000;" horiz-adv-x="1009" />
<glyph unicode="&#x2001;" horiz-adv-x="2019" />
<glyph unicode="&#x2002;" horiz-adv-x="1009" />
<glyph unicode="&#x2003;" horiz-adv-x="2019" />
<glyph unicode="&#x2004;" horiz-adv-x="673" />
<glyph unicode="&#x2005;" horiz-adv-x="504" />
<glyph unicode="&#x2006;" horiz-adv-x="336" />
<glyph unicode="&#x2007;" horiz-adv-x="336" />
<glyph unicode="&#x2008;" horiz-adv-x="252" />
<glyph unicode="&#x2009;" horiz-adv-x="403" />
<glyph unicode="&#x200a;" horiz-adv-x="112" />
<glyph unicode="&#x2010;" horiz-adv-x="659" d="M123 459v145h414v-145h-414z" />
<glyph unicode="&#x2011;" horiz-adv-x="659" d="M123 459v145h414v-145h-414z" />
<glyph unicode="&#x2012;" horiz-adv-x="659" d="M123 459v145h414v-145h-414z" />
<glyph unicode="&#x2013;" horiz-adv-x="1024" d="M0 459v145h1024v-145h-1024z" />
<glyph unicode="&#x2014;" horiz-adv-x="2048" d="M0 459v145h2048v-145h-2048z" />
<glyph unicode="&#x2018;" horiz-adv-x="448" d="M123 1108.5q0 107.5 47 318.5h80v-256q96 -21 96 -116v-6q0 -111 -104 -111h-2q-59 0 -88 31.5t-29 139z" />
<glyph unicode="&#x2019;" horiz-adv-x="448" d="M102 1311v6q0 110 105 110h2q59 0 88 -31.5t29 -136t-47 -321.5h-80v256q-97 22 -97 117z" />
<glyph unicode="&#x201a;" horiz-adv-x="448" d="M102 59v7q0 110 105 110h2q59 0 88 -31.5t29 -136t-47 -321.5h-80v256q-97 22 -97 116z" />
<glyph unicode="&#x201c;" horiz-adv-x="788" d="M123 1108.5q0 107.5 47 318.5h80v-256q96 -21 96 -116v-6q0 -111 -104 -111h-2q-59 0 -88 31.5t-29 139zM463 1108.5q0 107.5 47 318.5h80v-256q96 -21 96 -116v-6q0 -111 -104 -111h-2q-59 0 -88 31.5t-29 139z" />
<glyph unicode="&#x201d;" horiz-adv-x="788" d="M102 1311v6q0 110 105 110h2q59 0 88 -31.5t29 -136t-47 -321.5h-80v256q-97 22 -97 117zM442 1311v6q0 110 105 110h2q59 0 88 -31.5t29 -86t-4.5 -99.5t-11.5 -93q-17 -118 -32 -179h-79v256q-97 22 -97 117z" />
<glyph unicode="&#x201e;" horiz-adv-x="788" d="M102 59v7q0 110 105 110h2q59 0 88 -31.5t29 -136t-47 -321.5h-80v256q-97 22 -97 116zM442 59v7q0 110 105 110h2q59 0 88 -31.5t29 -86t-4.5 -99.5t-11.5 -93q-17 -118 -32 -179h-79v256q-97 22 -97 116z" />
<glyph unicode="&#x2022;" horiz-adv-x="745" d="M117 682v33q0 133 60.5 188t176.5 55h37q117 0 177.5 -55t60.5 -188v-33q0 -133 -60.5 -188.5t-177.5 -55.5h-37q-117 0 -177 55.5t-60 188.5z" />
<glyph unicode="&#x2026;" horiz-adv-x="1394" d="M123 82v8q0 111 102 111h15q102 0 102 -111v-8q0 -111 -102 -111h-15q-102 0 -102 111zM588 82v8q0 111 102 111h15q102 0 102 -111v-8q0 -111 -102 -111h-15q-102 0 -102 111zM1053 82v8q0 111 102 111h14q103 0 103 -111v-8q0 -111 -103 -111h-14q-102 0 -102 111z" />
<glyph unicode="&#x202f;" horiz-adv-x="403" />
<glyph unicode="&#x2039;" horiz-adv-x="690" d="M147 537q0 29 13.5 52t48.5 64l270 308l80 -66l-244 -358l244 -359l-80 -65l-270 307q-35 41 -48.5 64.5t-13.5 52.5z" />
<glyph unicode="&#x203a;" horiz-adv-x="690" d="M131 178l244 359l-244 358l80 66l270 -308q35 -41 48.5 -64t13.5 -52t-13.5 -52.5t-48.5 -64.5l-270 -307z" />
<glyph unicode="&#x205f;" horiz-adv-x="504" />
<glyph unicode="&#x20ac;" d="M82 494v94l147 18q-2 18 -2 41v84h-145v94l154 19q59 583 550 583q150 0 279 -38v-136q-137 29 -256 29q-195 0 -285 -110.5t-110 -323.5h411v-117h-419v-77q0 -25 2 -44h417v-116h-403q25 -199 121 -290t282 -91q133 0 265 32v-135q-154 -39 -291 -39q-260 0 -391.5 131 t-165.5 392h-160z" />
<glyph unicode="&#x2122;" horiz-adv-x="1390" d="M25 1296v105h534v-105h-203v-557h-129v557h-202zM659 739v662h123l197 -414l205 414h116v-662h-122v416l-158 -317h-88l-156 321v-420h-117z" />
<glyph unicode="&#xe000;" horiz-adv-x="1003" d="M0 0v1004h1004v-1004h-1004z" />
</font>
</defs>
</svg>
