<?xml version="1.0" standalone="no"?>
<!DOCTYPE svg PUBLIC "-//W3C//DTD SVG 1.1//EN" "http://www.w3.org/Graphics/SVG/1.1/DTD/svg11.dtd" >
<svg xmlns="http://www.w3.org/2000/svg">
<metadata></metadata>
<defs>
<font id="MovistarTextBold" horiz-adv-x="1228" >
<font-face units-per-em="2048" ascent="1536" descent="-512" />
<missing-glyph horiz-adv-x="460" />
<glyph horiz-adv-x="0" />
<glyph horiz-adv-x="2048" />
<glyph unicode="&#xd;" horiz-adv-x="682" />
<glyph unicode=" "  horiz-adv-x="460" />
<glyph unicode="&#x09;" horiz-adv-x="460" />
<glyph unicode="&#xa0;" horiz-adv-x="460" />
<glyph unicode="!" horiz-adv-x="593" d="M139 1401h307l-45 -963h-217zM141 113v24q0 141 150 142h14q150 0 150 -142v-24q0 -141 -150 -142h-14q-150 1 -150 142z" />
<glyph unicode="&#x22;" horiz-adv-x="976" d="M127 1401h285l-33 -541h-217zM565 1401h285l-33 -541h-217z" />
<glyph unicode="#" horiz-adv-x="1220" d="M109 418v186h163l35 193h-198v186h247l78 418h219l-78 -418h189l78 418h219l-78 -418h127v-186h-176l-33 -193h211v-186h-246l-78 -418h-219l74 418h-184l-78 -418h-219l78 418h-131zM494 604h186l35 193h-189z" />
<glyph unicode="$" d="M102 1018q0 180 111 281.5t301 121.5v217h186v-213q178 -10 312 -53v-242q-199 53 -381 54q-227 0 -228 -152q0 -102 143 -150q64 -22 140 -41.5t152.5 -50t140 -74.5t103.5 -125t40 -192q0 -184 -114.5 -292.5t-307.5 -129.5v-239h-186v235q-205 6 -391 70v246 q211 -74 424 -74q274 0 274 170q0 63 -53 104t-133 59.5t-173 50.5t-173 72t-133.5 129t-53.5 218z" />
<glyph unicode="%" horiz-adv-x="2045" d="M102 1001q0 207 91.5 316.5t273.5 109.5t275.5 -109.5t93.5 -316t-93.5 -317.5t-275.5 -111q-365 0 -365 428zM340 1001.5q0 -118.5 27.5 -176t99.5 -57.5t100.5 57.5t28.5 175t-28.5 175t-100.5 57.5t-99.5 -56.5t-27.5 -175zM522 -29l748 1456h252l-748 -1456h-252z M1210 398q0 208 92.5 317.5t274.5 109.5t274.5 -109.5t92.5 -317.5t-92.5 -317.5t-274.5 -109.5t-274.5 109.5t-92.5 317.5zM1450 398q0 -120 26.5 -176t99.5 -56t101.5 57.5t28.5 175t-28.5 175t-101.5 57.5t-99.5 -56.5t-26.5 -176.5z" />
<glyph unicode="&#x26;" horiz-adv-x="1419" d="M76 385q0 127 73.5 228.5t221.5 158.5q-145 162 -145.5 316t102 246.5t267.5 92.5t262 -86t97 -231q0 -100 -65.5 -187t-183.5 -143l317 -336q31 45 59.5 126t36.5 143h203q-8 -106 -52 -225t-102 -197l191 -201l-166 -166l-184 185q-176 -137 -418 -137.5t-378 112.5 t-136 301zM358 428q0 -102 70 -164.5t199 -62.5t231 63l-375 391q-125 -82 -125 -227zM467 1108q0 -51 27.5 -96t101.5 -119q137 111 137 211q0 55 -34.5 88t-97 33t-98.5 -33t-36 -84z" />
<glyph unicode="'" horiz-adv-x="538" d="M127 1401h285l-33 -541h-217z" />
<glyph unicode="(" horiz-adv-x="735" d="M84 532.5q0 321.5 125 579.5t369 420l135 -154q-307 -313 -307 -844.5t307 -844.5l-135 -154q-244 162 -369 419t-125 578.5z" />
<glyph unicode=")" horiz-adv-x="735" d="M23 -311q307 313 307 843.5t-307 843.5l135 154q244 -162 368.5 -419t124.5 -578.5t-125 -578.5t-368 -419z" />
<glyph unicode="*" horiz-adv-x="942" d="M57 1036l74 181l264 -115l-22 299h190l-16 -299l264 115l74 -181l-293 -82l196 -239l-147 -123l-170 260l-170 -260l-147 123l196 239z" />
<glyph unicode="+" d="M231 567v193h287v287h193v-287h286v-193h-286v-286h-193v286h-287z" />
<glyph unicode="," horiz-adv-x="489" d="M86 125q0 154 150 154h14q150 0 149 -154v-55q0 -102 -14 -222t-31 -174h-147v291q-68 23 -94.5 58.5t-26.5 101.5z" />
<glyph unicode="-" horiz-adv-x="684" d="M94 410v243h496v-243h-496z" />
<glyph unicode="." horiz-adv-x="489" d="M88 113v24q0 141 150 142h14q150 0 149 -142v-24q0 -141 -149 -142h-14q-150 1 -150 142z" />
<glyph unicode="/" horiz-adv-x="983" d="M53 -29l617 1456h260l-617 -1456h-260z" />
<glyph unicode="0" d="M78 698.5q0 368.5 126 548.5t410.5 180t410.5 -180t126 -548.5t-126 -548t-410.5 -179.5t-410.5 179.5t-126 548zM383 700q0 -285 52 -389t179 -104t179.5 104.5t52.5 389t-52.5 398t-179.5 113.5t-179 -113.5t-52 -398.5z" />
<glyph unicode="1" d="M254 0v209h238v989h-228v199q168 25 301.5 24.5t176 -31t42.5 -108.5v-1073h201v-209h-731z" />
<glyph unicode="2" d="M147 66q0 117 82 215l273 331q127 154 174 235t47 166t-58 135t-199.5 50t-285.5 -27v218q156 39 326 38q289 0 420 -131q100 -100 100 -272q0 -129 -65.5 -247t-233.5 -302l-244 -266h566v-209h-893q-9 23 -9 66z" />
<glyph unicode="3" d="M180 4v221q141 -25 292 -24.5t223.5 49.5t72.5 156.5t-69 156.5t-273 49h-39v205h49q176 0 237.5 54.5t61.5 144.5t-53 137t-202.5 47t-286.5 -20v217q141 31 321 30q285 0 412 -127q96 -96 96 -258q0 -215 -186 -309q236 -86 235 -346q0 -170 -98 -270 q-139 -145 -455 -146q-186 0 -338 33z" />
<glyph unicode="4" d="M82 418.5q0 68.5 43 187.5l291 795h282l-315 -860h324v333h292v-333h164v-219h-164v-322h-292v322h-617q-8 28 -8 96.5z" />
<glyph unicode="5" d="M211 4v219q117 -23 273.5 -22.5t227 57.5t70.5 171t-57 167t-217 53h-285q-14 55 -10 158l25 594h766v-209h-515l-12 -315h74q274 0 404 -107.5t130 -334t-130 -345.5t-414 -119q-183 0 -330 33z" />
<glyph unicode="6" d="M127 635q0 467 190 657q135 135 412 135q135 0 289 -26v-223q-119 20 -221 20q-201 0 -279 -78t-84 -295q135 72 313 72t282 -113.5t104 -336t-127 -349.5t-384 -127t-376 167t-119 497zM430 578q0 -205 47 -294t166 -89q199 0 199 256q0 131 -46 178t-158 47t-208 -21 v-77z" />
<glyph unicode="7" d="M170 1192v209h913q14 -23 14.5 -109t-32.5 -176l-393 -1116h-314l465 1192h-653z" />
<glyph unicode="8" d="M113 350q0 236 235 359q-100 63 -144 141t-44 184q0 178 125 285.5t328.5 107.5t321.5 -96t118 -258q0 -195 -201 -321q143 -72 203.5 -155t60.5 -212q0 -195 -134 -304.5t-373.5 -109.5t-367.5 105.5t-128 273.5zM401 375q0 -82 55.5 -129t156 -47t156.5 46t56 113 t-43 113.5t-161 101.5l-91 41q-129 -112 -129 -239zM434 1065.5q0 -65.5 43 -112t148 -95.5l30 -14q131 100 131 203q0 72 -46 115.5t-126 43.5t-130 -37.5t-50 -103z" />
<glyph unicode="9" d="M96 951.5q0 222.5 127 349t384 126.5t376 -166.5t119 -496.5q0 -467 -191 -658q-135 -135 -411 -135q-135 0 -289 27v223q119 -20 221 -20q201 0 279 77.5t84 294.5q-135 -72 -313 -71.5t-282 114t-104 336zM387 948q0 -131 46 -178t158 -47t208 20v78q0 205 -47 294 t-166 89q-199 0 -199 -256z" />
<glyph unicode=":" horiz-adv-x="489" d="M88 113v24q0 141 150 142h14q150 0 149 -142v-24q0 -141 -149 -142h-14q-150 1 -150 142zM88 686v25q0 141 150 141h14q150 0 149 -141v-25q0 -141 -149 -141h-14q-150 0 -150 141z" />
<glyph unicode=";" horiz-adv-x="489" d="M88 125q0 154 150 154h14q150 0 149 -154v-55q0 -102 -14 -222t-31 -174h-147v291q-68 23 -94.5 58.5t-26.5 101.5zM88 686v25q0 141 150 141h14q150 0 149 -141v-25q0 -141 -149 -141h-14q-150 0 -150 141z" />
<glyph unicode="&#x3c;" d="M231 569v189l766 379v-217l-551 -254l551 -246v-230z" />
<glyph unicode="=" d="M231 371v192h766v-192h-766zM231 764v192h766v-192h-766z" />
<glyph unicode="&#x3e;" d="M231 190v230l551 246l-551 254v217l766 -379v-189z" />
<glyph unicode="?" horiz-adv-x="890" d="M74 1366q160 61 325 61q217 0 328 -94t111 -270q0 -158 -105 -279q-45 -51 -91 -100q-116 -123 -140 -244h-203q-6 35 -6 59.5t3 45t13 45t16.5 39t25 44t23.5 38t27.5 41t24.5 34.5q100 139 100 228.5t-45 132.5t-147 43t-221 -37zM246 113v24q0 141 149 142h15 q150 0 149 -142v-24q0 -141 -149 -142h-15q-149 1 -149 142z" />
<glyph unicode="@" horiz-adv-x="1617" d="M78 685q0 345 201.5 543.5t544 198.5t529.5 -186t187 -475q0 -209 -94 -337t-287 -128q-131 0 -196 76h-5q-90 -72 -209 -72t-185 64.5t-66 184.5t73.5 180.5t243.5 60.5h117v8q0 63 -32 83.5t-128 20.5t-190 -22l-11 172q141 31 265 30q170 0 241 -86q55 -63 56 -196 v-326q18 -6 43 -6q162 0 161.5 248t-130.5 381t-379 133t-388 -139.5t-139 -405.5t150 -397q152 -139 481 -139q164 0 323 30l11 -176q-168 -37 -379 -37q-389 0 -588 174q-221 195 -221 540zM707 557q0 -78 102 -78q59 0 123 23v139h-111q-63 0 -88.5 -19.5t-25.5 -64.5z " />
<glyph unicode="A" horiz-adv-x="1347" d="M10 0l469 1401h352l506 -1401h-342l-116 352h-455l-109 -352h-305zM498 584h303l-154 467h-4z" />
<glyph unicode="B" horiz-adv-x="1292" d="M152 0v1401h456q285 0 404 -105q98 -86 98 -239q0 -205 -197 -305q133 -18 215 -109.5t82 -226.5q0 -197 -122.5 -306.5t-438.5 -109.5h-497zM471 231h131q180 0 228.5 48.5t48.5 145t-54.5 142t-222.5 45.5h-131v-381zM471 844h109q127 0 170 42t43 123t-40 120.5 t-165 39.5h-117v-325z" />
<glyph unicode="C" horiz-adv-x="1206" d="M92 680.5q0 357.5 166 552t512 194.5q211 0 367 -63l-41 -234q-174 49 -301 50q-211 0 -291 -123t-80 -374t94 -357.5t313 -106.5q115 0 259 29l32 -234q-147 -43 -352 -43q-348 0 -513 176t-165 533.5z" />
<glyph unicode="D" horiz-adv-x="1404" d="M152 0v1401h432q205 0 339 -36t220 -122q170 -166 170 -537.5t-170 -547.5q-156 -158 -516 -158h-475zM471 233h135q217 0 301 125q74 109 74 349q0 147 -22.5 229t-75.5 139q-86 92 -314 92h-98v-934z" />
<glyph unicode="E" horiz-adv-x="1193" d="M152 0v1401h946l-25 -232h-602v-340h481v-239h-481v-359h637v-231h-956z" />
<glyph unicode="F" horiz-adv-x="1132" d="M152 0v1401h923l-24 -232h-580v-340h459v-239h-459v-590h-319z" />
<glyph unicode="G" horiz-adv-x="1374" d="M92 686q0 346 180.5 543.5t528.5 197.5q240 0 395 -67l-41 -234q-180 51 -332 52q-207 0 -303 -119t-96 -365.5t81 -360.5t271 -114q84 0 170 14v295h-196v230h514v-715q-233 -72 -500 -72q-360 0 -516 184.5t-156 530.5z" />
<glyph unicode="H" horiz-adv-x="1435" d="M152 0v1401h319v-572h494v572h319v-1401h-319v590h-494v-590h-319z" />
<glyph unicode="I" horiz-adv-x="630" d="M156 0v1401h319v-1401h-319z" />
<glyph unicode="J" horiz-adv-x="847" d="M41 233q84 -16 176 -16t130 39t38 154v991h320v-1000q0 -240 -96.5 -335t-327.5 -95q-88 0 -218 19z" />
<glyph unicode="K" horiz-adv-x="1335" d="M152 0v1401h319v-586l469 586h365l-496 -567l510 -834h-379l-338 596l-131 -150v-446h-319z" />
<glyph unicode="L" horiz-adv-x="1128" d="M152 0v1401h319v-1170h621v-231h-940z" />
<glyph unicode="M" horiz-adv-x="1699" d="M152 0v1401h251l443 -783l457 783h245v-1401h-293v807l-290 -488h-246l-299 496v-815h-268z" />
<glyph unicode="N" horiz-adv-x="1482" d="M152 0v1401h235l664 -897v897h280v-1401h-256l-643 850v-850h-280z" />
<glyph unicode="O" horiz-adv-x="1425" d="M92 699q0 728 620.5 728t620.5 -728t-620.5 -728t-620.5 728zM424 698q0 -254 66.5 -365.5t222 -111.5t222 111.5t66.5 365.5t-67.5 367t-221 113t-221 -113t-67.5 -367z" />
<glyph unicode="P" horiz-adv-x="1267" d="M152 0v1401h481q326 0 443.5 -109.5t117.5 -333t-104 -340.5q-121 -135 -394 -135h-225v-483h-319zM471 723h158q131 0 186 54t55 173t-53 170q-55 49 -196 49h-150v-446z" />
<glyph unicode="Q" horiz-adv-x="1429" d="M92 699q0 728 620.5 728t620.5 -729q0 -432 -217 -606q223 -2 350 -51q-14 -57 -50 -152.5t-60 -128.5l-416 177q-53 23 -87 28.5t-114 5.5h-26q-621 0 -621 728zM424 698q0 -254 66.5 -365.5t222 -111.5t222 111.5t66.5 365.5t-67.5 367t-221 113t-221 -113t-67.5 -367z " />
<glyph unicode="R" horiz-adv-x="1327" d="M152 0v1401h481q174 0 278.5 -24.5t171.5 -88.5q117 -111 117 -321q0 -145 -60.5 -253t-176.5 -163l303 -551h-361l-258 508h-176v-508h-319zM471 739h141q148 0 206 50q59 50 59 167q1 113 -51 163t-212 50h-143v-430z" />
<glyph unicode="S" horiz-adv-x="1208" d="M98 1018q0 205 143.5 307t373 102t397.5 -57l-49 -237q-184 49 -336 49q-227 0 -228 -150q0 -103 141 -150q64 -22 141 -41.5t152.5 -50t139 -74.5t102.5 -125t39 -192q0 -184 -117 -295q-141 -133 -415.5 -133t-481.5 72l50 244q199 -70 364.5 -70t232 41t66.5 137 q0 99 -141 143q-64 19 -140.5 37.5t-152.5 49t-139.5 74.5t-102.5 125t-39 194z" />
<glyph unicode="T" horiz-adv-x="1245" d="M29 1169v232h1202l-25 -232h-424v-1169h-319v1169h-434z" />
<glyph unicode="U" horiz-adv-x="1421" d="M139 514v887h318v-887q0 -164 66.5 -231.5t205.5 -67.5t205 67t65 230v889h283v-873q0 -289 -141 -422.5t-435 -133.5q-1 0 -2 -1q-292 1 -428 135t-137 408z" />
<glyph unicode="V" horiz-adv-x="1335" d="M25 1401h342l327 -1016l305 1016h312l-465 -1401h-334z" />
<glyph unicode="W" horiz-adv-x="1972" d="M25 1401h337l261 -1012l251 1012h261l274 -1010l250 1010h289l-379 -1401h-348l-230 817l-211 -817h-346z" />
<glyph unicode="X" horiz-adv-x="1300" d="M29 0l465 698l-428 703h333l279 -463l254 463h340l-459 -686l447 -715h-355l-278 475l-252 -475h-346z" />
<glyph unicode="Y" horiz-adv-x="1355" d="M25 1401h360l307 -565l320 565h319l-504 -832v-569h-319v571z" />
<glyph unicode="Z" horiz-adv-x="1220" d="M70 0v188l680 977h-660v236h1053v-197l-670 -968h674v-236h-1077z" />
<glyph unicode="[" horiz-adv-x="761" d="M199 -424v1913h518v-205h-217v-1503h217v-205h-518z" />
<glyph unicode="\" horiz-adv-x="983" d="M53 1427h260l617 -1456h-260z" />
<glyph unicode="]" horiz-adv-x="761" d="M45 -219h217v1503h-217v205h518v-1913h-518v205z" />
<glyph unicode="^" d="M174 776l358 627h162l361 -627h-242l-199 408l-204 -408h-236z" />
<glyph unicode="_" horiz-adv-x="880" d="M0 -57h881v-199h-881v199z" />
<glyph unicode="`" horiz-adv-x="876" d="M178 1425l144 195l374 -348l-102 -127z" />
<glyph unicode="a" horiz-adv-x="1087" d="M61 297.5q0 146.5 93.5 234.5t363.5 89h160v32q0 80 -42 117t-179.5 37t-266.5 -27l-14 215q184 37 356 37q262 0 361 -114q78 -90 78 -267v-651h-232l-24 61q-139 -90 -304 -90t-257.5 90t-92.5 236.5zM354 313q0 -118 142 -118h2q80 0 180 30v207h-156q-104 0 -136 -32 t-32 -87z" />
<glyph unicode="b" horiz-adv-x="1146" d="M123 0v1464h293v-499q113 67 271 67h5q383 0 383 -530.5t-397 -530.5q-160 0 -299 92l-14 -63h-242zM416 250q86 -49 180 -49t133 66.5t39 236.5t-41 231.5t-142 61.5t-169 -27v-520z" />
<glyph unicode="c" horiz-adv-x="948" d="M72 479q0 262 134 408q133 145 392 145h4q162 0 295 -37l-18 -217q-109 29 -238 29t-197 -73q-68 -72 -68 -229q0 -159 70 -235q70 -74 226 -75q102 0 209 20l22 -211q-143 -33 -282 -33q-338 0 -467 201q-82 125 -82 307z" />
<glyph unicode="d" horiz-adv-x="1150" d="M72 500q0 248 107.5 390t289.5 142q145 0 266 -74v506h293v-1464h-254l-6 72q-150 -100 -308 -100q-1 0 -2 -1q-157 0 -247 86q-139 138 -139 443zM379 495q0 -169 41 -231.5t134 -62.5t181 35v542q-72 23 -139 23q-109 0 -163 -68.5t-54 -237.5z" />
<glyph unicode="e" horiz-adv-x="1081" d="M72 496q0 266 127 401t360 135q461 0 461 -506v-92q0 -23 -25 -22h-616q6 -123 79.5 -170t212 -47t267.5 24l23 -213q-182 -35 -338 -35q-281 0 -416 129.5t-135 395.5zM379 602h354q0 98 -45 153.5t-131 55.5q-168 0 -178 -209z" />
<glyph unicode="f" horiz-adv-x="735" d="M29 813v158l172 30v140q0 180 86 269t297 89q104 0 213 -22v-209q-82 12 -160 12t-111 -33q-32 -32 -32 -118v-5v-120h237v-191h-237v-813h-293v813h-172z" />
<glyph unicode="g" horiz-adv-x="1107" d="M55 -232q0 128 119 189q-51 43 -51 131q0 133 133 244q-154 100 -154 315q0 385 453 385q49 0 98 -6l99 250q135 -33 227 -102l-145 -203q172 -96 172 -324q0 -387 -451 -387q-76 0 -131 8q-27 -47 -27 -77t29 -29h197q274 0 378 -107q74 -76 74 -213q0 -331 -507 -331 h-3h-16q-258 0 -376 64.5t-118 192.5zM315 -164q0 -51 53.5 -77.5t188.5 -26.5h31q225 0 225 98q0 49 -38 68.5t-138 19.5h-293q-29 -31 -29 -82zM367 647q0 -90 45 -134t143 -44q186 0 186 177t-187 177t-187 -176z" />
<glyph unicode="h" horiz-adv-x="1173" d="M123 0v1464h293v-514q145 82 311 82t248 -81t82 -261v-690h-293v655q0 70 -33 102q-32 32 -129 32q-2 -1 -3 -1q-99 0 -183 -32v-756h-293z" />
<glyph unicode="i" horiz-adv-x="550" d="M115 1311v26q0 141 153 142h15q154 0 153 -142v-26q0 -139 -153 -140h-15q-153 1 -153 140zM129 0v1004h293v-1004h-293z" />
<glyph unicode="j" horiz-adv-x="550" d="M-182 -262q53 -4 94 -4q123 0 170 46t47 163v1061h293v-957q0 -279 -101.5 -405.5t-363.5 -126.5q-41 0 -111 4zM115 1311v26q0 141 153 142h15q154 0 153 -142v-26q0 -139 -153 -140h-15q-153 1 -153 140z" />
<glyph unicode="k" horiz-adv-x="1114" d="M123 0v1464h293v-843l313 383h336l-354 -402l391 -602h-330l-252 399l-104 -131v-268h-293z" />
<glyph unicode="l" horiz-adv-x="550" d="M129 0v1464h293v-1464h-293z" />
<glyph unicode="m" horiz-adv-x="1769" d="M123 0v1004h254l6 -72q152 100 334 100t258 -106q158 106 336 106t260 -81t82 -261v-690h-293v655q0 70 -33 102q-32 32 -115 32q-1 -1 -3 -1q-85 0 -177 -26q4 -45 4 -72v-690h-293v655q-1 70 -33 102t-116 32q-1 -1 -3 -1q-87 0 -175 -32v-756h-293z" />
<glyph unicode="n" horiz-adv-x="1173" d="M123 0v1004h254l6 -72q156 100 333 100t259 -81t82 -261v-690h-293v655q0 70 -33 102q-32 32 -129 32q-2 -1 -3 -1q-99 0 -183 -32v-756h-293z" />
<glyph unicode="o" horiz-adv-x="1163" d="M72 502q0 250 128 390t382 140t382 -140t128 -390t-128 -390.5t-382 -140.5t-382 140.5t-128 390.5zM377 501.5q0 -157.5 48 -232t156.5 -74.5t156.5 74.5t48 232t-48 232.5t-156.5 75t-156.5 -75t-48 -232.5z" />
<glyph unicode="p" horiz-adv-x="1146" d="M123 -461v1465h254l8 -74q154 102 309.5 102t245.5 -86q135 -133 135 -438q0 -537 -391 -537q-150 0 -268 74v-506h-293zM416 231q65 -29 167 -29h4q105 1 143 66.5t38 234.5t-39 230.5t-130 61.5t-183 -27v-537z" />
<glyph unicode="q" horiz-adv-x="1148" d="M72 498q0 279 127 417q106 117 269 117t302 -92l14 64h242v-1446l-293 -37v518q-121 -68 -274 -68q-387 1 -387 527zM379 490q0 -164 43 -226.5t135 -62.5t176 32v537q-82 29 -155 29q-111 0 -155 -72.5t-44 -236.5z" />
<glyph unicode="r" horiz-adv-x="778" d="M123 0v1004h254l10 -82q55 51 142 79.5t139.5 28.5t76.5 -4v-256q-66 8 -143.5 8t-185.5 -24v-754h-293z" />
<glyph unicode="s" horiz-adv-x="972" d="M76 709q0 147 109.5 235t304 88t356.5 -55l-23 -215q-164 45 -317.5 45t-153.5 -82q0 -73 142 -92q143 -19 264 -75q61 -28 102 -93.5t41 -163.5q0 -158 -114.5 -244t-325.5 -86t-365 56l23 217q145 -47 324 -47t180 92q0 79 -143 95q-137 16 -262 70q-60 27 -101 92 t-41 163z" />
<glyph unicode="t" horiz-adv-x="821" d="M16 813v160l170 31v223q141 43 293 43v-266h260v-191h-260v-469q0 -88 28 -121t114 -33q37 0 141 13l10 -207q-113 -25 -275.5 -25t-236.5 80t-74 252v510h-170z" />
<glyph unicode="u" horiz-adv-x="1165" d="M117 313v691h293v-650q0 -76 32.5 -107.5t126.5 -31.5t181 29v760h292v-1004h-254l-8 68q-154 -96 -327 -96q-1 0 -2 -1q-171 0 -253 81t-81 261z" />
<glyph unicode="v" horiz-adv-x="1085" d="M20 1004h316l223 -697l213 697h293l-346 -1004h-340z" />
<glyph unicode="w" horiz-adv-x="1619" d="M20 1004h310l178 -715l178 715h264l193 -715l168 715h288l-288 -1004h-340l-160 532l-158 -532h-338z" />
<glyph unicode="x" horiz-adv-x="1089" d="M20 1004h334l217 -304l164 304h320l-346 -496l360 -508h-342l-209 301l-166 -301h-325l356 494z" />
<glyph unicode="y" horiz-adv-x="1169" d="M117 313v691h293v-650q0 -70 32.5 -101.5t124.5 -31.5t187 37v746h293v-961q0 -279 -101.5 -405.5t-363.5 -126.5q-133 0 -256 26l-21 217q122 -23 234 -23q3 0 5 1q114 0 162 47t48 162v122q-143 -81 -304 -81h-4q-329 1 -329 331z" />
<glyph unicode="z" horiz-adv-x="905" d="M37 0v166l467 651h-455v187h799v-170l-465 -648h489v-186h-835z" />
<glyph unicode="{" horiz-adv-x="804" d="M53 428v213q129 12 183.5 58t54.5 159v287q0 184 74.5 264t246.5 80h123v-205h-22q-72 0 -96.5 -21.5t-24.5 -93.5v-313q0 -129 -51.5 -205t-167.5 -116q117 -41 168 -117t51 -205v-317q0 -72 24.5 -93.5t96.5 -21.5h22v-205h-123q-172 0 -246.5 80t-74.5 264v291 q0 113 -54.5 159t-183.5 58z" />
<glyph unicode="|" horiz-adv-x="516" d="M131 -518v2040h254v-2040h-254z" />
<glyph unicode="}" horiz-adv-x="804" d="M70 -219h22q72 0 96.5 21.5t24.5 93.5v317q0 129 51 205t168 117q-117 41 -168 116.5t-51 204.5v313q0 72 -24.5 93.5t-96.5 21.5h-22v205h123q172 0 246.5 -80t74.5 -264v-287q0 -113 54.5 -159t183.5 -58v-213q-129 -12 -183.5 -58t-54.5 -159v-291q0 -184 -74.5 -264 t-246.5 -80h-123v205z" />
<glyph unicode="~" d="M164 614q0 293 258 293q74 0 198.5 -50t170.5 -50q76 0 102 113l172 -23q0 -297 -258 -297q-76 0 -199 51t-170 51q-78 0 -102 -114z" />
<glyph unicode="&#xa1;" horiz-adv-x="593" d="M139 866v25q0 141 150 141h14q150 0 150 -141v-25q0 -141 -150 -141h-14q-150 0 -150 141zM147 -397l46 962h217l45 -962h-308z" />
<glyph unicode="&#xa2;" d="M178 479q0 482 422 545v242h186v-236q119 -6 218 -33v-223q-139 33 -262 33t-191 -73t-68 -231.5t70 -234t225 -75.5q111 0 232 22v-211q-123 -29 -224 -31v-235h-186v242q-240 33 -340 192q-82 125 -82 307z" />
<glyph unicode="&#xa3;" d="M113 655v170l170 11q-12 82 -13 178q0 184 99 289q119 125 407 124q158 0 320 -36v-222q-162 29 -292 29t-183.5 -47t-53.5 -134.5t11 -178.5h321v-183h-295q8 -90 8 -127q0 -180 -137 -315h668v-213h-946q-10 45 -10.5 122t67.5 190.5t68 205.5q0 43 -13 137h-196z" />
<glyph unicode="&#xa5;" d="M12 1401h344l267 -565l278 565h316l-388 -707h189v-168h-258v-77h258v-168h-258v-281h-305v281h-258v168h258v77h-258v168h192z" />
<glyph unicode="&#xa8;" horiz-adv-x="876" d="M80 1339v23q0 70 33.5 100.5t103.5 30.5h12q139 0 140 -131v-23q0 -131 -140 -131h-12q-137 0 -137 131zM506 1339v23q0 131 139 131h12q70 0 104 -30.5t34 -100.5v-23q0 -131 -138 -131h-12q-139 0 -139 131z" />
<glyph unicode="&#xa9;" horiz-adv-x="1617" d="M88 700q0 344 200.5 535.5t520 191.5t520.5 -191.5t201 -535.5t-201 -536.5t-520.5 -192.5t-520 192.5t-200.5 536.5zM297 700.5q0 -262.5 131 -404.5t381 -142t381 142t131 404.5t-131 403.5t-381 141t-381 -141t-131 -403.5zM506 705q0 362 344 362q98 0 172 -35 l-21 -123q-84 23 -160.5 23t-115.5 -50.5t-39 -181t44 -176t122.5 -45.5t146.5 10l15 -127q-74 -18 -164 -18q-180 0 -262 88.5t-82 272.5z" />
<glyph unicode="&#xab;" horiz-adv-x="1165" d="M92 534.5q0 59.5 74 137.5l303 329l119 -114l-238 -352l238 -353l-119 -114l-303 329q-74 78 -74 137.5zM559 534.5q0 59.5 74 137.5l303 329l119 -114l-238 -352l238 -353l-119 -114l-303 329q-74 78 -74 137.5z" />
<glyph unicode="&#xad;" horiz-adv-x="684" d="M94 410v243h496v-243h-496z" />
<glyph unicode="&#xae;" horiz-adv-x="1617" d="M88 700q0 344 200.5 535.5t520 191.5t520.5 -191.5t201 -535.5t-201 -536.5t-520.5 -192.5t-520 192.5t-200.5 536.5zM297 700.5q0 -262.5 131 -404.5t381 -142t381 142t131 404.5t-131 403.5t-381 141t-381 -141t-131 -403.5zM575 360v699h236q147 0 215 -48t68 -171 q0 -152 -115 -201l149 -279h-190l-127 248h-66v-248h-170zM745 729h70q106 0 107 105q0 61 -25 81.5t-88 20.5h-64v-207z" />
<glyph unicode="&#xb4;" horiz-adv-x="876" d="M178 1272l375 348l143 -195l-415 -280z" />
<glyph unicode="&#xb8;" horiz-adv-x="876" d="M225 -334q78 -20 155 -20t77 47q0 20 -21.5 36.5t-87 37t-92.5 48t-27 85t43 110.5h146q-10 -35 -10 -53t13 -28.5t86.5 -38t108.5 -66.5t35 -124t-55 -146q-59 -70 -174.5 -70t-196.5 29v153z" />
<glyph unicode="&#xbb;" horiz-adv-x="1165" d="M111 182l237 353l-237 352l118 114l303 -329q74 -78 74 -137.5t-74 -137.5l-303 -329zM578 182l237 353l-237 352l118 114l303 -329q74 -78 74 -137.5t-74 -137.5l-303 -329z" />
<glyph unicode="&#xbf;" horiz-adv-x="888" d="M51 -67.5q0 167.5 105 286.5q45 51 91 101q116 124 140 243h203q6 -35 6 -59t-3 -45t-13.5 -45.5t-16.5 -39t-24.5 -44t-23.5 -37.5q-40 -64 -52 -76q-100 -139 -100.5 -228.5t44.5 -132t147.5 -42.5t221.5 36l39 -212q-160 -61 -351.5 -61.5t-302 94t-110.5 262z M330 866v25q0 141 149 141h15q150 0 149 -141v-25q0 -141 -149 -141h-15q-149 0 -149 141z" />
<glyph unicode="&#xc1;" horiz-adv-x="1347" d="M10 0l469 1401h352l506 -1401h-342l-116 352h-455l-109 -352h-305zM414 1681l374 349l144 -195l-416 -281zM498 584h303l-154 467h-4z" />
<glyph unicode="&#xc9;" horiz-adv-x="1193" d="M152 0v1401h946l-25 -232h-602v-340h481v-239h-481v-359h637v-231h-956zM358 1681l375 349l144 -195l-416 -281z" />
<glyph unicode="&#xcd;" horiz-adv-x="630" d="M57 1681l375 349l143 -195l-415 -281zM156 0v1401h319v-1401h-319z" />
<glyph unicode="&#xd1;" horiz-adv-x="1482" d="M152 0v1401h235l664 -897v897h280v-1401h-256l-643 850v-850h-280zM367 1645q0 133 57 206.5t160 73.5q66 0 165 -43t136 -43q68 0 86 94l145 -22q0 -133 -57.5 -207t-159.5 -74q-66 0 -164 43t-137 43q-68 0 -86 -94z" />
<glyph unicode="&#xd3;" horiz-adv-x="1425" d="M92 699q0 728 620.5 728t620.5 -728t-620.5 -728t-620.5 728zM424 698q0 -254 66.5 -365.5t222 -111.5t222 111.5t66.5 365.5t-67.5 367t-221 113t-221 -113t-67.5 -367zM453 1681l374 349l144 -195l-416 -281z" />
<glyph unicode="&#xda;" horiz-adv-x="1421" d="M139 514v887h318v-887q0 -164 66.5 -231.5t205.5 -67.5t205 67t65 230v889h283v-873q0 -289 -141 -422.5t-435 -134t-430.5 134t-136.5 408.5zM451 1681l374 349l144 -195l-416 -281z" />
<glyph unicode="&#xdc;" horiz-adv-x="1421" d="M139 514v887h318v-887q0 -164 66.5 -231.5t205.5 -67.5t205 67t65 230v889h283v-873q0 -289 -141 -422.5t-435 -134t-430.5 134t-136.5 408.5zM373 1749v23q0 70 33.5 100.5t103.5 30.5h12q139 0 140 -131v-23q0 -131 -140 -131h-12q-137 0 -137 131zM799 1749v23 q0 131 139 131h12q70 0 103.5 -31t33.5 -100v-23q0 -131 -137 -131h-12q-139 0 -139 131z" />
<glyph unicode="&#xe0;" horiz-adv-x="1087" d="M61 297.5q0 146.5 93.5 234.5t363.5 89h160v32q0 80 -42 117t-179.5 37t-266.5 -27l-14 215q184 37 356 37q262 0 361 -114q78 -90 78 -267v-651h-232l-24 61q-139 -90 -304 -90t-257.5 90t-92.5 236.5zM285 1425l143 195l375 -348l-103 -127zM354 313q0 -119 144 -118 q80 0 180 30v207h-156q-104 0 -136 -32t-32 -87z" />
<glyph unicode="&#xe1;" horiz-adv-x="1087" d="M61 297.5q0 146.5 93.5 234.5t363.5 89h160v32q0 80 -42 117t-179.5 37t-266.5 -27l-14 215q184 37 356 37q262 0 361 -114q78 -90 78 -267v-651h-232l-24 61q-139 -90 -304 -90t-257.5 90t-92.5 236.5zM285 1272l374 348l144 -195l-416 -280zM354 313q0 -119 144 -118 q80 0 180 30v207h-156q-104 0 -136 -32t-32 -87z" />
<glyph unicode="&#xe2;" horiz-adv-x="1087" d="M61 297.5q0 146.5 93.5 234.5t363.5 89h160v32q0 80 -42 117t-179.5 37t-266.5 -27l-14 215q184 37 356 37q262 0 361 -114q78 -90 78 -267v-651h-232l-24 61q-139 -90 -304 -90t-257.5 90t-92.5 236.5zM188 1255l256 295h197l256 -295l-102 -104l-252 201l-252 -201z M354 313q0 -119 144 -118q80 0 180 30v207h-156q-104 0 -136 -32t-32 -87z" />
<glyph unicode="&#xe3;" horiz-adv-x="1087" d="M61 297.5q0 146.5 93.5 234.5t363.5 89h160v32q0 80 -42 117t-179.5 37t-266.5 -27l-14 215q184 37 356 37q262 0 361 -114q78 -90 78 -267v-651h-232l-24 61q-139 -90 -304 -90t-257.5 90t-92.5 236.5zM168 1235q0 133 57.5 207t159.5 74q66 0 165 -43t136 -43 q68 0 86 94l146 -23q0 -133 -57.5 -206.5t-160.5 -73.5q-66 0 -164 43t-137 43q-68 0 -86 -95zM354 313q0 -119 144 -118q80 0 180 30v207h-156q-104 0 -136 -32t-32 -87z" />
<glyph unicode="&#xe4;" horiz-adv-x="1087" d="M61 297.5q0 146.5 93.5 234.5t363.5 89h160v32q0 80 -42 117t-179.5 37t-266.5 -27l-14 215q184 37 356 37q262 0 361 -114q78 -90 78 -267v-651h-232l-24 61q-139 -90 -304 -90t-257.5 90t-92.5 236.5zM186 1339v23q0 70 34 100.5t104 30.5h12q139 0 139 -131v-23 q0 -131 -139 -131h-12q-138 0 -138 131zM354 313q0 -119 144 -118q80 0 180 30v207h-156q-104 0 -136 -32t-32 -87zM612 1339v23q0 131 140 131h12q70 0 103.5 -30.5t33.5 -100.5v-23q0 -131 -137 -131h-12q-140 0 -140 131z" />
<glyph unicode="&#xe5;" horiz-adv-x="1087" d="M61 297.5q0 146.5 93.5 234.5t363.5 89h160v32q0 80 -42 117t-179.5 37t-266.5 -27l-14 215q184 37 356 37q262 0 361 -114q78 -90 78 -267v-651h-232l-24 61q-139 -90 -304 -90t-257.5 90t-92.5 236.5zM289 1393v28q0 227 248 228h14q246 0 246 -228v-28 q0 -227 -246 -228h-14q-248 1 -248 228zM354 313q0 -119 144 -118q80 0 180 30v207h-156q-104 0 -136 -32t-32 -87zM432 1401q0 -57 25.5 -82t83.5 -25h6q55 0 79.5 24.5t24.5 82.5v8q0 59 -24.5 81.5t-79.5 22.5h-6q-57 0 -83 -22.5t-26 -81.5v-8z" />
<glyph unicode="&#xe6;" horiz-adv-x="1673" d="M61 297.5q0 146.5 93.5 234.5t363.5 89h160v36q-2 74 -37 109q-47 41 -184.5 41t-266.5 -27l-14 215q184 37 377.5 37t302.5 -80q117 80 295 80q461 0 461 -506v-92q0 -23 -25 -22h-616q6 -123 79.5 -170t212 -47t267.5 24l22 -213q-182 -35 -338 -35q-276 0 -411 123 q-68 -51 -180.5 -87t-208.5 -36q-168 0 -260.5 90t-92.5 236.5zM354 313q0 -119 144 -118q94 0 211 38q-25 68 -31 199h-156q-104 0 -136 -32t-32 -87zM971 602h354q0 98 -45 153.5t-131 55.5q-168 0 -178 -209z" />
<glyph unicode="&#xe7;" horiz-adv-x="948" d="M72 479q0 262 134 408t396 145q162 0 295 -37l-18 -217q-109 29 -238 29t-197 -73t-67.5 -231.5t70 -233t225.5 -74.5q102 0 209 20l22 -211q-143 -33 -282 -33h-35v-14q0 -18 13 -28.5t87 -38t108.5 -66.5t34.5 -124t-55 -146q-59 -70 -174.5 -70t-196.5 29v153 q78 -20 155 -20t77 47q0 20 -21.5 36.5t-87 37t-92 48t-26.5 77.5t28 98q-188 37 -282 182q-82 125 -82 307z" />
<glyph unicode="&#xe8;" horiz-adv-x="1081" d="M72 496q0 266 127 401t360 135q461 0 461 -506v-92q0 -23 -25 -22h-616q6 -123 79.5 -170t212 -47t267.5 24l23 -213q-182 -35 -338 -35q-281 0 -416 129.5t-135 395.5zM281 1425l143 195l375 -348l-103 -127zM379 602h354q0 98 -45 153.5t-131 55.5q-168 0 -178 -209z " />
<glyph unicode="&#xe9;" horiz-adv-x="1081" d="M72 496q0 266 127 401t360 135q461 0 461 -506v-92q0 -23 -25 -22h-616q6 -123 79.5 -170t212 -47t267.5 24l23 -213q-182 -35 -338 -35q-281 0 -416 129.5t-135 395.5zM281 1272l374 348l144 -195l-416 -280zM379 602h354q0 98 -45 153.5t-131 55.5q-168 0 -178 -209z " />
<glyph unicode="&#xea;" horiz-adv-x="1081" d="M72 496q0 266 127 401t360 135q461 0 461 -506v-92q0 -23 -25 -22h-616q6 -123 79.5 -170t212 -47t267.5 24l23 -213q-182 -35 -338 -35q-281 0 -416 129.5t-135 395.5zM186 1255l256 295h197l256 -295l-102 -104l-252 201l-252 -201zM379 602h354q0 98 -45 153.5 t-131 55.5q-168 0 -178 -209z" />
<glyph unicode="&#xeb;" horiz-adv-x="1081" d="M72 496q0 266 127 401t360 135q461 0 461 -506v-92q0 -23 -25 -22h-616q6 -123 79.5 -170t212 -47t267.5 24l23 -213q-182 -35 -338 -35q-281 0 -416 129.5t-135 395.5zM182 1339v23q0 70 34 100.5t103 30.5h13q139 0 139 -131v-23q0 -131 -139 -131h-13q-137 0 -137 131 zM379 602h354q0 98 -45 153.5t-131 55.5q-168 0 -178 -209zM608 1339v23q0 131 140 131h12q70 0 103.5 -30.5t33.5 -100.5v-23q0 -131 -137 -131h-12q-140 0 -140 131z" />
<glyph unicode="&#xec;" horiz-adv-x="550" d="M16 1425l144 195l375 -348l-103 -127zM129 0v1004h293v-1004h-293z" />
<glyph unicode="&#xed;" horiz-adv-x="550" d="M16 1272l375 348l144 -195l-416 -280zM129 0v1004h293v-1004h-293z" />
<glyph unicode="&#xee;" horiz-adv-x="550" d="M-78 1255l256 295h197l256 -295l-103 -104l-252 201l-251 -201zM129 0v1004h293v-1004h-293z" />
<glyph unicode="&#xef;" horiz-adv-x="550" d="M-82 1339v23q0 70 34 100.5t103 30.5h13q139 0 139 -131v-23q0 -131 -139 -131h-13q-137 0 -137 131zM129 0v1004h293v-1004h-293zM344 1339v23q0 131 139 131h13q70 0 103.5 -30.5t33.5 -100.5v-23q0 -131 -137 -131h-13q-139 0 -139 131z" />
<glyph unicode="&#xf0;" horiz-adv-x="1167" d="M82 468q0 226 118.5 353t311.5 127q106 0 217 -53q-51 162 -178 307l-135 -131l-119 119l135 133q-55 49 -156 129q36 33 65 62l81 81q98 -66 170 -116l143 139l119 -119l-133 -131q356 -334 356 -813q0 -272 -124 -428t-374 -156t-373.5 135.5t-123.5 361.5zM387 467 q0 -123 48 -197.5t147 -74.5q193 0 192 358q0 59 -8 158q-90 27 -162 26q-217 0 -217 -270z" />
<glyph unicode="&#xf1;" horiz-adv-x="1173" d="M123 0v1004h254l6 -72q156 100 333 100t259 -81t82 -261v-690h-293v655q0 70 -33 102t-132 31.5t-183 -32.5v-756h-293zM231 1235q0 133 57.5 207t160.5 74q66 0 165 -43t136 -43q68 0 86 94l145 -23q0 -133 -57.5 -206.5t-159.5 -73.5q-66 0 -164 43t-137 43 q-68 0 -86 -95z" />
<glyph unicode="&#xf2;" horiz-adv-x="1163" d="M72 502q0 250 128 390t382 140t382 -140t128 -390t-128 -390.5t-382 -140.5t-382 140.5t-128 390.5zM322 1425l143 195l375 -348l-103 -127zM377 501.5q0 -157.5 48 -232t156.5 -74.5t156.5 74.5t48 232t-48 232.5t-156.5 75t-156.5 -75t-48 -232.5z" />
<glyph unicode="&#xf3;" horiz-adv-x="1163" d="M72 502q0 250 128 390t382 140t382 -140t128 -390t-128 -390.5t-382 -140.5t-382 140.5t-128 390.5zM322 1272l374 348l144 -195l-416 -280zM377 501.5q0 -157.5 48 -232t156.5 -74.5t156.5 74.5t48 232t-48 232.5t-156.5 75t-156.5 -75t-48 -232.5z" />
<glyph unicode="&#xf4;" horiz-adv-x="1163" d="M72 502q0 250 128 390t382 140t382 -140t128 -390t-128 -390.5t-382 -140.5t-382 140.5t-128 390.5zM227 1255l256 295h197l256 -295l-102 -104l-252 201l-252 -201zM377 501.5q0 -157.5 48 -232t156.5 -74.5t156.5 74.5t48 232t-48 232.5t-156.5 75t-156.5 -75 t-48 -232.5z" />
<glyph unicode="&#xf5;" horiz-adv-x="1163" d="M72 502q0 250 128 390t382 140t382 -140t128 -390t-128 -390.5t-382 -140.5t-382 140.5t-128 390.5zM207 1235q0 133 57.5 207t159.5 74q66 0 165 -43t136 -43q68 0 86 94l145 -23q0 -133 -57 -206.5t-160 -73.5q-66 0 -164 43t-137 43q-68 0 -86 -95zM377 501.5 q0 -157.5 48 -232t156.5 -74.5t156.5 74.5t48 232t-48 232.5t-156.5 75t-156.5 -75t-48 -232.5z" />
<glyph unicode="&#xf6;" horiz-adv-x="1163" d="M72 502q0 250 128 390t382 140t382 -140t128 -390t-128 -390.5t-382 -140.5t-382 140.5t-128 390.5zM223 1339v23q0 70 34 100.5t103 30.5h13q139 0 139 -131v-23q0 -131 -139 -131h-13q-137 0 -137 131zM377 501.5q0 -157.5 48 -232t156.5 -74.5t156.5 74.5t48 232 t-48 232.5t-156.5 75t-156.5 -75t-48 -232.5zM649 1339v23q0 131 139 131h13q70 0 103.5 -30.5t33.5 -100.5v-23q0 -131 -137 -131h-13q-139 0 -139 131z" />
<glyph unicode="&#xf8;" horiz-adv-x="1163" d="M72 502q0 250 128 390t382 140q63 0 106 -8l55 152h172l-71 -197q248 -121 248 -477q0 -250 -128 -390.5t-382 -140.5q-63 0 -107 9l-55 -152h-172l71 197q-247 119 -247 477zM377 510.5q0 -149.5 39 -225.5l192 522q-8 2 -26 2q-109 0 -157 -74.5t-48 -224zM555 195h27 q109 0 156.5 74.5t47.5 224t-38 225.5z" />
<glyph unicode="&#xf9;" horiz-adv-x="1165" d="M117 313v691h293v-650q0 -76 32.5 -107.5t126.5 -31.5t181 29v760h292v-1004h-254l-8 68q-154 -96 -327 -96.5t-254.5 80.5t-81.5 261zM324 1425l143 195l375 -348l-103 -127z" />
<glyph unicode="&#xfa;" horiz-adv-x="1165" d="M117 313v691h293v-650q0 -76 32.5 -107.5t126.5 -31.5t181 29v760h292v-1004h-254l-8 68q-154 -96 -327 -96.5t-254.5 80.5t-81.5 261zM324 1272l374 348l144 -195l-416 -280z" />
<glyph unicode="&#xfb;" horiz-adv-x="1165" d="M117 313v691h293v-650q0 -76 32.5 -107.5t126.5 -31.5t181 29v760h292v-1004h-254l-8 68q-154 -96 -327 -96.5t-254.5 80.5t-81.5 261zM227 1255l256 295h197l256 -295l-102 -104l-252 201l-252 -201z" />
<glyph unicode="&#xfc;" horiz-adv-x="1165" d="M117 313v691h293v-650q0 -76 32.5 -107.5t126.5 -31.5t181 29v760h292v-1004h-254l-8 68q-154 -96 -327 -96.5t-254.5 80.5t-81.5 261zM225 1339v23q0 70 34 100.5t103 30.5h13q139 0 139 -131v-23q0 -131 -139 -131h-13q-137 0 -137 131zM651 1339v23q0 131 140 131h12 q70 0 103.5 -30.5t33.5 -100.5v-23q0 -131 -137 -131h-12q-140 0 -140 131z" />
<glyph unicode="&#xfd;" horiz-adv-x="1169" d="M117 313v691h293v-650q0 -70 32.5 -101.5t124.5 -31.5t187 37v746h293v-961q0 -279 -101.5 -405.5t-363.5 -126.5q-133 0 -256 26l-21 217q125 -23 239 -22.5t162 47.5t48 162v122q-145 -82 -308 -81q-329 1 -329 331zM362 1272l375 348l144 -195l-416 -280z" />
<glyph unicode="&#xfe;" horiz-adv-x="1146" d="M123 -461v1925h293v-514q139 82 286.5 82t237.5 -86q135 -133 135 -438q0 -537 -391 -537q-150 0 -268 74v-506h-293zM416 231q66 -29 171 -28.5t143 66t38 235.5t-39 231.5t-130 61.5t-183 -27v-539z" />
<glyph unicode="&#xff;" horiz-adv-x="1169" d="M117 313v691h293v-650q0 -70 32.5 -101.5t124.5 -31.5t187 37v746h293v-961q0 -279 -101.5 -405.5t-363.5 -126.5q-133 0 -256 26l-21 217q125 -23 239 -22.5t162 47.5t48 162v122q-145 -82 -308 -81q-329 1 -329 331zM227 1339v23q0 70 34 100.5t104 30.5h12 q139 0 139 -131v-23q0 -131 -139 -131h-12q-138 0 -138 131zM653 1339v23q0 131 140 131h12q70 0 103.5 -30.5t33.5 -100.5v-23q0 -131 -137 -131h-12q-140 0 -140 131z" />
<glyph unicode="&#x153;" horiz-adv-x="1796" d="M72 502q0 250 128 390t366.5 140t365.5 -117q123 117 342 117q461 0 461 -506v-92q0 -23 -25 -22h-616q4 -106 59 -156q63 -61 254 -61q88 0 235 22l23 -213q-172 -33 -328 -33q-270 0 -403 117q-127 -117 -366.5 -117t-367.5 140.5t-128 390.5zM377 501.5 q0 -157.5 48 -232t154.5 -74.5t154.5 68.5t52 211.5v27q0 158 -48 232.5t-156.5 74.5t-156.5 -75t-48 -232.5zM1094 602h354q0 98 -45 153.5t-131 55.5q-168 0 -178 -209z" />
<glyph unicode="&#x2c6;" horiz-adv-x="876" d="M84 1255l256 295h197l256 -295l-103 -104l-252 201l-252 -201z" />
<glyph unicode="&#x2dc;" horiz-adv-x="876" d="M63 1235q0 133 57.5 207t160.5 74q66 0 165 -43t136 -43q68 0 86 94l145 -23q0 -133 -57.5 -206.5t-159.5 -73.5q-66 0 -164 43t-137 43q-68 0 -86 -95z" />
<glyph unicode="&#x2000;" horiz-adv-x="1015" />
<glyph unicode="&#x2001;" horiz-adv-x="2030" />
<glyph unicode="&#x2002;" horiz-adv-x="1015" />
<glyph unicode="&#x2003;" horiz-adv-x="2030" />
<glyph unicode="&#x2004;" horiz-adv-x="676" />
<glyph unicode="&#x2005;" horiz-adv-x="507" />
<glyph unicode="&#x2006;" horiz-adv-x="338" />
<glyph unicode="&#x2007;" horiz-adv-x="338" />
<glyph unicode="&#x2008;" horiz-adv-x="253" />
<glyph unicode="&#x2009;" horiz-adv-x="406" />
<glyph unicode="&#x200a;" horiz-adv-x="112" />
<glyph unicode="&#x2010;" horiz-adv-x="684" d="M94 410v243h496v-243h-496z" />
<glyph unicode="&#x2011;" horiz-adv-x="684" d="M94 410v243h496v-243h-496z" />
<glyph unicode="&#x2012;" horiz-adv-x="684" d="M94 410v243h496v-243h-496z" />
<glyph unicode="&#x2013;" horiz-adv-x="1024" d="M0 410v243h1024v-243h-1024z" />
<glyph unicode="&#x2014;" horiz-adv-x="2048" d="M0 410v243h2048v-243h-2048z" />
<glyph unicode="&#x2018;" horiz-adv-x="473" d="M90 977v55q0 102 14.5 222t30.5 173h148v-290q68 -23 94 -59t26 -101q0 -154 -149 -154h-14q-150 0 -150 154z" />
<glyph unicode="&#x2019;" horiz-adv-x="473" d="M70 1272v2q0 154 149 153h14q152 0 152 -153v-55q0 -254 -33 -347q-16 -49 -80 -49h-82v291q-68 23 -94 59t-26 99z" />
<glyph unicode="&#x201a;" horiz-adv-x="473" d="M70 125q0 154 149 154h14q150 0 150 -154v-55q0 -102 -14.5 -222t-30.5 -174h-148v291q-68 23 -94 58.5t-26 101.5z" />
<glyph unicode="&#x201c;" horiz-adv-x="890" d="M90 977v55q0 102 14.5 222t30.5 173h148v-290q68 -23 94 -59t26 -101q0 -154 -149 -154h-14q-150 0 -150 154zM508 977v55q0 102 14.5 222t30.5 173h147v-290q68 -23 94.5 -59t26.5 -101q0 -154 -149 -154h-15q-149 0 -149 154z" />
<glyph unicode="&#x201d;" horiz-adv-x="890" d="M70 1274q0 154 149 153h14q150 0 150 -153v-55q0 -102 -14.5 -222t-30.5 -174h-148v291q-68 23 -94 58.5t-26 101.5zM487 1274q0 154 150 153h14q150 0 150 -153v-55q0 -102 -14.5 -222t-30.5 -174h-148v291q-68 23 -94.5 58.5t-26.5 101.5z" />
<glyph unicode="&#x201e;" horiz-adv-x="890" d="M70 125q0 154 149 154h14q150 0 150 -154v-55q0 -102 -14.5 -222t-30.5 -174h-148v291q-68 23 -94 58.5t-26 101.5zM487 125q0 154 150 154h14q150 0 150 -154v-55q0 -102 -14.5 -222t-30.5 -174h-148v291q-68 23 -94.5 58.5t-26.5 101.5z" />
<glyph unicode="&#x2026;" horiz-adv-x="1464" d="M86 113v24q0 141 150 142h16q76 0 111.5 -33t35.5 -109v-24q0 -76 -35.5 -109t-111.5 -33h-16q-150 1 -150 142zM575 113v24q0 141 150 142h14q150 0 150 -142v-24q0 -141 -150 -142h-14q-150 1 -150 142zM1065 113v24q0 76 36 109t111 33h17q150 0 149 -142v-24 q0 -141 -149 -142h-17q-76 0 -111.5 33t-35.5 109z" />
<glyph unicode="&#x202f;" horiz-adv-x="406" />
<glyph unicode="&#x2039;" horiz-adv-x="700" d="M92 534.5q0 57.5 74 137.5l303 329l121 -114l-240 -352l240 -353l-121 -114l-303 329q-74 80 -74 137.5z" />
<glyph unicode="&#x203a;" horiz-adv-x="700" d="M111 182l239 353l-239 352l120 114l304 -329q74 -80 73.5 -137.5t-73.5 -137.5l-304 -329z" />
<glyph unicode="&#x205f;" horiz-adv-x="507" />
<glyph unicode="&#x20ac;" d="M18 451v143l154 20q-2 25 -2 103h-152v145l164 21q90 545 609 544q172 0 327 -47v-229q-150 31 -291 31t-218 -71t-99 -228h309v-166h-323q0 -74 2 -103h321v-163h-293q55 -233 336 -234q131 0 293 35v-234q-162 -47 -340 -47q-272 0 -422.5 121t-199.5 359h-175z" />
<glyph unicode="&#x2122;" horiz-adv-x="1527" d="M25 1253v148h610v-148h-205v-532h-205v532h-200zM719 721v680h180l176 -383l180 383h175v-680h-185v317l-110 -225h-123l-117 229v-321h-176z" />
<glyph unicode="&#xe000;" horiz-adv-x="1004" d="M0 0v1005h1005v-1005h-1005z" />
</font>
</defs>
</svg>
