<?xml version="1.0" standalone="no"?>
<!DOCTYPE svg PUBLIC "-//W3C//DTD SVG 1.1//EN" "http://www.w3.org/Graphics/SVG/1.1/DTD/svg11.dtd" >
<svg xmlns="http://www.w3.org/2000/svg">
<metadata></metadata>
<defs>
<font id="movistar_headlineregular" horiz-adv-x="1040" >
<font-face units-per-em="2048" ascent="1536" descent="-512" />
<missing-glyph horiz-adv-x="389" />
<glyph unicode="&#xfb01;" horiz-adv-x="1179" d="M35 877v98l174 31v135q0 348 342 348q93 0 174 -27v-114h-111q-144 0 -194 -41q-45 -38 -45 -177v-126h540q63 0 86 -24t23 -77v-903h-166v877h-483v-877h-166v877h-174zM825 1346v6q0 108 101 108h12q100 0 100 -108v-6q0 -109 -100 -109h-12q-101 0 -101 109z" />
<glyph unicode="&#xfb02;" horiz-adv-x="1150" d="M35 877v98l174 31v129q0 178 89 266t331 88q23 0 58.5 -1t77.5 -2q79 -2 139.5 -8.5t75.5 -28.5t15 -69v-1380h-166v1348h-215q-144 0 -194 -41q-45 -38 -45 -177v-126h272v-127h-272v-877h-166v877h-174z" />
<glyph horiz-adv-x="2048" />
<glyph horiz-adv-x="2048" />
<glyph unicode="&#xd;" horiz-adv-x="389" />
<glyph unicode=" "  horiz-adv-x="389" />
<glyph unicode="&#x09;" horiz-adv-x="389" />
<glyph unicode="&#xa0;" horiz-adv-x="389" />
<glyph unicode="!" horiz-adv-x="563" d="M172 82v8q0 111 102 111h15q102 0 102 -111v-8q0 -111 -102 -111h-15q-102 0 -102 111zM190 1401h185l-31 -1000q0 -20 -20 -20h-105z" />
<glyph unicode="&#x22;" horiz-adv-x="823" d="M166 1348q-2 31 11 42t46 11h107l-29 -430q-2 -18 -9 -23.5t-30 -5.5h-78zM496 1348q-2 31 11 42t46 11h106l-28 -430q-2 -18 -9.5 -23.5t-29.5 -5.5h-78z" />
<glyph unicode="#" horiz-adv-x="1163" d="M133 451v122h162l43 252h-205v123h223l76 453h135l-75 -453h256l77 453h136l-78 -453h149v-123h-168l-41 -252h209v-122h-229l-74 -451h-135l74 451h-258l-74 -451h-135l73 451h-141zM430 573h258l43 252h-260z" />
<glyph unicode="$" horiz-adv-x="1163" d="M147 1050q0 166 109 267q99 91 281 113v235h133v-231q159 -8 282 -43q33 -8 33 -41v-244h-121q-11 22 -18.5 82.5t-7.5 79.5q-140 14 -211 14q-308 0 -310 -219q0 -94 58 -152q64 -60 203 -102l112 -35q106 -35 175 -70q188 -97 188 -333q0 -176 -107 -279 q-93 -93 -276 -115v-239h-133v231q-215 4 -342 41q-18 6 -25.5 14.5t-7.5 28.5v250h121q11 -22 18.5 -84t7.5 -80q93 -20 236 -20q338 0 338 248q0 96 -49 151q-48 52 -207 100l-107 33q-285 87 -349 253q-24 63 -24 146z" />
<glyph unicode="%" horiz-adv-x="1927" d="M135 1001q0 296 173 391q63 35 153 35q170 0 253 -127q72 -111 72 -299q0 -298 -172 -392q-63 -34 -153 -34q-171 0 -253 127q-73 112 -73 299zM291 1001q0 -152 39 -222t131 -70t131 70t39 222t-39 222.5t-131 70.5t-131 -70.5t-39 -222.5zM524 -29l723 1456h156 l-723 -1456h-156zM1141 397q0 296 173 391q62 35 152 35q170 0 253 -127q73 -113 73 -299q0 -298 -174 -392q-62 -34 -152 -34q-248 0 -308 263q-17 77 -17 163zM1296 397q0 -152 39 -222.5t131 -70.5t131 70.5t39 222.5t-38.5 222.5t-131.5 70.5q-92 0 -131 -70.5 t-39 -222.5z" />
<glyph unicode="&#x26;" horiz-adv-x="1447" d="M82 367q0 141 82 241.5t219 182.5q-102 118 -130 173q-42 84 -42 159.5t25.5 129.5t69.5 93q93 81 229 81q145 0 233 -81q86 -78 86 -205q0 -151 -154 -273q-51 -41 -116 -86l362 -409q107 212 107 585q0 29 10 37.5t33 8.5h243v-127h-159q-9 -374 -144 -605l125 -141 h180v-129q-84 -14 -149 -14t-96 14t-70 61l-78 87q-166 -179 -424 -179q-195 0 -320 109q-122 106 -122 287zM254 379q0 -125 77 -196.5t196.5 -71.5t196.5 36.5t136 102.5l-405 459q-119 -86 -160 -167t-41 -163zM360 1139.5q0 -72.5 36 -129t116 -146.5 q104 78 152.5 138.5t48.5 130.5t-45 118.5t-125 48.5t-131.5 -44t-51.5 -116.5z" />
<glyph unicode="'" horiz-adv-x="493" d="M166 1348q-2 31 11 42t46 11h107l-29 -430q-2 -18 -9 -23.5t-30 -5.5h-78z" />
<glyph unicode="(" horiz-adv-x="673" d="M152 528q0 630 417 992l84 -86q-309 -354 -309 -906q0 -436 184 -734q58 -93 125 -171l-84 -86q-417 358 -417 991z" />
<glyph unicode=")" horiz-adv-x="673" d="M20 -377q310 356 310 905q0 550 -310 906l84 86q418 -359 418 -992q0 -632 -418 -991z" />
<glyph unicode="*" horiz-adv-x="897" d="M70 1061l49 139l278 -129l-24 330h147l-20 -330l278 129l49 -139l-297 -88l203 -240l-115 -90l-169 264l-170 -264l-115 90l203 240z" />
<glyph unicode="+" d="M188 596v133h265v264h133v-264h266v-133h-266v-266h-133v266h-265z" />
<glyph unicode="," horiz-adv-x="464" d="M115 84v6q0 111 104 111h2q59 0 88 -32t29 -87.5t-4 -98t-10 -86.5q-25 -164 -37.5 -175t-34.5 -11h-41v256q-96 21 -96 117z" />
<glyph unicode="-" horiz-adv-x="649" d="M135 463v145h379v-145h-379z" />
<glyph unicode="." horiz-adv-x="464" d="M123 82v8q0 111 102 111h15q102 0 102 -111v-8q0 -111 -102 -111h-15q-102 0 -102 111z" />
<glyph unicode="/" horiz-adv-x="935" d="M90 -29l600 1456h156l-600 -1456h-156z" />
<glyph unicode="0" horiz-adv-x="1159" d="M98 698q0 541 262 680q93 49 222 49q374 0 456 -419q27 -136 27 -310q0 -540 -262 -678q-92 -49 -221 -49q-373 0 -457 418q-27 135 -27 309zM274 698q0 -297 66 -432q69 -141 242 -141q172 0 241 141q66 135 66 432q0 298 -66 432q-70 144 -241 144q-172 0 -242 -144 q-66 -134 -66 -432z" />
<glyph unicode="1" horiz-adv-x="776" d="M94 0v137h246v1135h-242v123q31 2 73 6t84 6t78 4t80 2t69.5 -23.5t25.5 -86.5v-1166h207v-137h-621z" />
<glyph unicode="2" horiz-adv-x="999" d="M61 57q0 78 86 183l314 376q129 152 171 232t54 128t12 97q0 96 -45 138.5t-106.5 53.5t-159.5 11h-272v121q167 30 329 30q428 0 428 -358q0 -130 -71 -251q-61 -106 -236 -306l-319 -369h514q5 111 35 195h110v-309q0 -16 -11 -22.5t-46 -6.5h-780q-7 18 -7 57z" />
<glyph unicode="3" horiz-adv-x="1030" d="M86 1098v272q0 31 57 31h752q6 -12 6 -42t-4 -53.5t-13 -45.5q-19 -42 -59 -93l-305 -381q302 -26 390 -227q30 -70 30 -168q0 -186 -121 -303q-127 -117 -383 -117q-176 0 -313 25v127h217q129 0 217 15.5t131 54.5q78 71 78 193q0 202 -190 252q-74 19 -191 19h-68 q-4 20 -4 46q0 52 64 131l342 428h-490q0 -70 -32 -164h-111z" />
<glyph unicode="4" horiz-adv-x="1118" d="M86 410q0 49 31 135l282 823q8 23 17.5 28t32.5 5h122l-305 -905h459v374h166v-374h158v-136h-158v-360h-166v360h-633q-6 20 -6 50z" />
<glyph unicode="5" horiz-adv-x="1036" d="M127 -2v125h258q231 0 311 80q68 66 68 203.5t-68 203.5q-80 76 -299 76h-207q-27 0 -35 6t-8 25l9 684h643q35 0 46 -7.5t11 -23.5v-272h-111q-32 106 -32 164h-410l-4 -437h123q287 0 401.5 -109t114.5 -319q0 -184 -113 -297q-125 -129 -389 -129q-125 0 -309 27z" />
<glyph unicode="6" horiz-adv-x="1114" d="M117 633v55q0 410 159 590q133 150 402 149q119 0 227 -24v-127h-180q-230 0 -322 -98q-98 -102 -110 -347q179 62 309.5 62t204.5 -31t121 -87q90 -107 90 -314q0 -223 -117 -355q-119 -135 -323 -135q-360 0 -436 385q-25 123 -25 277zM289 606q0 -244 60 -358 q70 -133 237 -133q127 0 197.5 91t70.5 246t-64.5 227.5t-199 72.5t-301.5 -41v-105z" />
<glyph unicode="7" horiz-adv-x="1105" d="M115 1065v307q0 16 11 22.5t46 6.5h848q8 -20 8 -50q0 -55 -31 -130l-432 -1180q-10 -23 -21.5 -32t-39.5 -9h-142l494 1262h-596q-6 -113 -35 -197h-110z" />
<glyph unicode="8" horiz-adv-x="1107" d="M90 358q0 243 277 398q-88 57 -147.5 131.5t-59.5 171t29.5 161t82.5 110.5q110 97 283 97q185 0 287 -94t102 -237q0 -205 -225 -357q139 -75 194 -134q105 -109 105 -238q0 -180 -130 -287q-131 -109 -337 -109q-200 0 -329 105q-132 108 -132 282zM258 365 q0 -111 77 -178.5t215 -67.5t219 66.5t81 179.5q0 103 -116 186q-55 39 -249 139q-227 -135 -227 -325zM326 1085q0 -92 84 -165q65 -55 194 -121q182 144 182 293q0 92 -58 143t-165.5 51t-172 -49t-64.5 -152z" />
<glyph unicode="9" horiz-adv-x="1114" d="M96 938q0 223 117 356q118 133 324 133q359 0 435 -385q25 -122 25 -276v-55q0 -412 -159 -590q-133 -150 -402 -150q-114 0 -227 25v127h180q232 0 322 98q98 102 110 346q-176 -61 -336 -61q-389 0 -389 432zM260 947q0 -155 64.5 -227.5t199 -72.5t301.5 41v105 q0 241 -60 355q-72 136 -237 136q-127 0 -197.5 -91t-70.5 -246z" />
<glyph unicode=":" horiz-adv-x="464" d="M123 82v8q0 111 102 111h15q102 0 102 -111v-8q0 -111 -102 -111h-15q-102 0 -102 111zM123 717v8q0 111 102 111h15q102 0 102 -111v-8q0 -111 -102 -111h-15q-102 0 -102 111z" />
<glyph unicode=";" horiz-adv-x="464" d="M121 84v6q0 111 104 111h2q59 0 88 -32t29 -87.5t-4 -98t-10 -86.5q-22 -161 -41 -179q-8 -7 -31 -7h-41v256q-96 21 -96 117zM123 717v8q0 111 102 111h15q102 0 102 -111v-8q0 -111 -102 -111h-15q-102 0 -102 111z" />
<glyph unicode="&#x3c;" d="M188 596v133l664 338v-154l-510 -251l510 -250v-154z" />
<glyph unicode="=" d="M188 412v133h664v-133h-664zM188 780v133h664v-133h-664z" />
<glyph unicode="&#x3e;" d="M188 258v154l510 250l-510 251v154l664 -338v-133z" />
<glyph unicode="?" horiz-adv-x="847" d="M90 1280v117q145 30 274 30q230 0 328 -94q92 -88 92 -229q0 -112 -32 -175q-51 -103 -160 -220q-102 -113 -130 -167.5t-34 -87t-8 -71.5h-117q-10 35 -10 70t7 66.5t22 62.5q28 56 100 149l20 27q100 130 125 179q41 79 41 163t-55 129q-61 51 -231 51h-232zM256 82v8 q0 111 102 111h15q102 0 102 -111v-8q0 -111 -102 -111h-15q-102 0 -102 111z" />
<glyph unicode="@" horiz-adv-x="1593" d="M76 696q0 333 198 534q193 197 514 197q319 0 512 -191q181 -180 181 -468q0 -228 -101 -346q-84 -96 -243 -96q-122 0 -187 55q-109 -62 -230.5 -62t-186 66t-64.5 170q0 99 59 160q76 74 265 73h143v7q0 94 -28 122t-62.5 34.5t-97.5 6.5h-199v95q105 28 203 28 t156.5 -15t91.5 -49q67 -69 67 -183v-392q31 -6 71 -6q101 0 152 80t51 203.5t-29.5 222t-95.5 177.5q-146 177 -421.5 177t-425.5 -157.5t-150 -446.5q0 -596 703 -596h319v-90q-216 -35 -385 -35t-324 47.5t-256 143.5q-200 192 -200 534zM604 550.5q0 -61.5 38 -90 t111.5 -28.5t182.5 37v215h-145q-117 0 -152 -36t-35 -97.5z" />
<glyph unicode="A" horiz-adv-x="1312" d="M0 0v135h117l415 1266h154q29 0 38 -9.5t19 -33.5l447 -1223h115v-135h-424v135h125l-99 285h-538l-90 -285h112v-135h-391zM414 561h444l-233 656z" />
<glyph unicode="B" horiz-adv-x="1275" d="M127 0v135h141v1131h-141v135h520q436 0 436 -348q0 -106 -51 -188.5t-151 -116.5q133 -25 213 -111t80 -229q0 -301 -252 -376q-105 -32 -252 -32h-543zM446 135h191q192 0 274 64q82 65 82 197q0 211 -183 249q-67 14 -167 14h-197v-524zM446 797h203q141 0 199.5 63 t58.5 177q0 183 -143 217q-53 12 -139 12h-179v-469z" />
<glyph unicode="C" horiz-adv-x="1185" d="M115 698q0 358 174 546q169 183 463 183q171 0 290 -36q33 -8 33 -43v-273h-131q-13 27 -22 98.5t-9 90.5q-73 10 -153 10q-231 0 -347 -135t-116 -445q0 -469 298 -544q105 -27 255 -27h217v-125q-157 -27 -283 -27q-346 0 -497 170q-172 192 -172 557z" />
<glyph unicode="D" horiz-adv-x="1400" d="M127 0v135h141v1131h-141v135h479q195 0 318 -39t202 -121q160 -166 160 -542.5t-160 -544.5q-76 -78 -189.5 -116t-291.5 -38h-518zM446 139h201q239 0 344 113q66 72 90.5 184.5t24.5 268.5q0 319 -125 444q-113 113 -373 113h-162v-1123z" />
<glyph unicode="E" horiz-adv-x="1234" d="M127 0v135h141v1131h-141v135h944q31 0 39 -6t8 -21v-301h-121q-32 85 -32 193h-519v-480h394q20 0 26 -3t6 -15v-127h-426v-506h529q0 114 33 195h120v-303q0 -14 -8 -20.5t-39 -6.5h-954z" />
<glyph unicode="F" horiz-adv-x="1150" d="M127 0v135h141v1131h-141v135h942q31 0 39 -6t8 -21v-301h-121q-32 85 -32 193h-517v-480h398q20 0 26.5 -3t6.5 -15v-127h-431v-506h166v-135h-485z" />
<glyph unicode="G" horiz-adv-x="1343" d="M115 696q0 376 184 566q161 165 459 165h4q156 0 342 -36q33 -8 33 -45v-267h-131q-17 25 -31 189q-92 10 -208 10q-233 0 -343 -123q-129 -145 -129 -447.5t95 -443.5t304 -141q152 0 303 51v371h-217v135h391v-680h-124q-20 25 -31 63q-70 -41 -167 -66.5t-211.5 -25.5 t-218.5 49.5t-171 142.5q-133 183 -133 533z" />
<glyph unicode="H" horiz-adv-x="1511" d="M127 0v135h141v1131h-141v135h461v-135h-142v-480h619v480h-141v135h460v-135h-141v-1131h141v-135h-460v135h141v506h-619v-506h142v-135h-461z" />
<glyph unicode="I" horiz-adv-x="722" d="M131 0v135h141v1131h-141v135h461v-135h-141v-1131h141v-135h-461z" />
<glyph unicode="J" horiz-adv-x="919" d="M115 -10v129h166q153 0 208.5 50t55.5 179v918h-348v135h526v-1036q0 -218 -95 -306t-272 -88q-129 0 -241 19z" />
<glyph unicode="K" horiz-adv-x="1361" d="M127 0v135h141v1131h-141v135h461v-135h-142v-566l551 633q35 41 65 54.5t79 13.5h168v-135h-156l-403 -439l411 -692h164v-131q-117 -10 -184 -10t-93 18.5t-53 63.5l-364 622l-185 -200v-363h142v-135h-461z" />
<glyph unicode="L" horiz-adv-x="1173" d="M127 0v135h141v1131h-141v135h461v-135h-142v-1131h512q0 108 33 195h121v-303q0 -14 -8 -20.5t-39 -6.5h-938z" />
<glyph unicode="M" horiz-adv-x="1806" d="M127 0v135h141v1131h-141v135h188q53 0 75 -11.5t42 -48.5l469 -864l479 860q20 35 42 49.5t69 14.5h188v-135h-141v-1131h141v-135h-448v135h141v883l-405 -707h-99q-29 0 -44 8.5t-29 32.5l-371 674v-891h141v-135h-438z" />
<glyph unicode="N" horiz-adv-x="1562" d="M127 0v135h141v1131h-141v135h188q47 0 69 -8.5t48 -44.5l737 -1045v963h-141v135h436v-135h-141v-1266h-131l-770 1100v-965h141v-135h-436z" />
<glyph unicode="O" horiz-adv-x="1355" d="M115 698q0 362 145.5 545.5t417.5 183.5t417.5 -183t145.5 -546q0 -362 -145.5 -544.5t-417.5 -182.5t-417.5 182.5t-145.5 544.5zM297 698q0 -418 202 -526q73 -39 179 -39q300 0 362 329q19 105 19 236q0 417 -202 528q-73 40 -179 40q-299 0 -362 -332 q-19 -105 -19 -236z" />
<glyph unicode="P" horiz-adv-x="1230" d="M127 0v135h141v1131h-141v135h561q141 0 226 -21q247 -62 247 -382v-5q0 -438 -424 -438q-143 0 -291 23v-443h142v-135h-461zM446 696h220q179 0 245 68q68 68 68 222t-72 220q-68 60 -231 60h-230v-570z" />
<glyph unicode="Q" horiz-adv-x="1355" d="M115 698q0 362 145.5 545.5t417.5 183.5t417.5 -183.5t145.5 -545.5q0 -242 -73.5 -404.5t-196.5 -244.5q68 -10 151 -35q136 -43 201 -92q-17 -61 -80 -141l-242 121q-97 48 -140 56q-61 13 -183 13q-272 0 -417.5 182.5t-145.5 544.5zM297 698q0 -418 202 -526 q73 -39 179 -39q300 0 362 329q19 105 19 236q0 417 -202 528q-73 40 -179 40q-299 0 -362 -332q-19 -105 -19 -236z" />
<glyph unicode="R" horiz-adv-x="1343" d="M127 0v135h141v1131h-141v135h567q141 0 226 -23q247 -64 247 -379q0 -344 -272 -415l231 -449h156v-131q-118 -10 -175.5 -10t-88.5 18.5t-53 63.5l-246 491h-273v-432h142v-135h-461zM446 709h226q179 0 246 67t67 225q0 141 -70 205q-68 60 -231 60h-238v-557z" />
<glyph unicode="S" horiz-adv-x="1161" d="M145 1050q0 166 109 267q127 117 377 117q177 0 319 -43q33 -8 33 -41v-244h-131q-13 25 -20 84t-7 78q-96 14 -200 14q-308 0 -310 -219q0 -96 58 -154q66 -62 202 -102l113 -35q106 -35 175 -70q188 -97 188 -331q0 -176 -107 -279q-127 -123 -397 -123q-208 0 -354 41 q-18 6 -25.5 14.5t-7.5 28.5v250h131q11 -22 18.5 -84t7.5 -80q93 -20 226 -20q338 0 338 248q0 97 -50 151q-49 52 -206 100l-107 33q-285 87 -349 253q-24 63 -24 146z" />
<glyph unicode="T" horiz-adv-x="1267" d="M66 1073v301q0 14 8 20.5t39 6.5h1042q31 0 39 -6t8 -21v-301h-121q-32 85 -32 193h-326v-1131h141v-135h-461v135h142v1131h-326q0 -112 -33 -193h-120z" />
<glyph unicode="U" horiz-adv-x="1464" d="M86 1266v135h461v-135h-141v-768q0 -192 77 -273q86 -94 259 -94q256 0 322 193q21 63 21 161v781h-141v135h434v-135h-141v-791q0 -254 -133 -381q-133 -123 -365 -123q-389 0 -483 294q-29 91 -29 227v774h-141z" />
<glyph unicode="V" horiz-adv-x="1275" d="M8 1266v135h170q70 0 86 -11q25 -15 37 -57l365 -1157l329 1090h-123v135h396v-135h-119l-389 -1266h-160q-33 0 -44 9t-21 36l-396 1221h-131z" />
<glyph unicode="W" horiz-adv-x="1894" d="M8 1266v135h170q72 0 88 -11q23 -14 35 -57l309 -1157l238 1165q8 35 22.5 47.5t55.5 12.5h141l283 -1235l264 1100h-123v135h395v-135h-119l-315 -1266h-166q-33 0 -46 10t-19 35l-258 1122l-244 -1167h-172q-33 0 -45.5 10t-20.5 35l-342 1221h-131z" />
<glyph unicode="X" horiz-adv-x="1224" d="M49 1266v135h176q47 0 68.5 -8.5t40.5 -42.5l289 -512l280 532q10 20 20.5 25.5t30.5 5.5h140q18 0 10 -19l-404 -680l322 -567h154v-131q-82 -8 -153.5 -8t-101.5 15.5t-59 64.5l-270 477l-277 -522q-10 -20 -20 -25.5t-31 -5.5h-139q-20 0 -10 18l399 672l-326 576 h-139z" />
<glyph unicode="Y" horiz-adv-x="1204" d="M8 1266v135h152q59 0 82.5 -14.5t44.5 -51.5l329 -630l299 561h-108v135h389v-135h-113l-393 -701v-430h141v-135h-460v135h141v428l-381 703h-123z" />
<glyph unicode="Z" horiz-adv-x="1187" d="M113 1073v301q0 14 8 20.5t39 6.5h907q6 -23 6 -57q0 -68 -47 -138l-704 -1071h600q0 112 32 197h119v-305q0 -14 -8 -20.5t-39 -6.5h-903q-6 20 -6 57q0 68 47 138l704 1071h-604q0 -112 -33 -193h-118z" />
<glyph unicode="[" horiz-adv-x="720" d="M250 -424v1907h401v-135h-227v-1637h227v-135h-401z" />
<glyph unicode="\" horiz-adv-x="935" d="M90 1427h156l600 -1456h-156z" />
<glyph unicode="]" horiz-adv-x="720" d="M70 -289h227v1637h-227v135h401v-1907h-401v135z" />
<glyph unicode="^" d="M115 821l352 580h106l353 -580h-152l-254 432l-254 -432h-151z" />
<glyph unicode="_" horiz-adv-x="866" d="M49 -92h768v-129h-768v129z" />
<glyph unicode="`" horiz-adv-x="868" d="M215 1456l66 90q18 27 35.5 25t41.5 -25l293 -280l-63 -80z" />
<glyph unicode="a" horiz-adv-x="1083" d="M94 287q0 319 416 319q113 0 223 -8v88q0 107 -45 152q-46 43 -188 43h-312v106q157 45 354 45q280 0 340 -185q17 -54 17 -136v-586h135v-123q-124 -14 -188 -14q-92 0 -109 71q-149 -88 -307 -88q-144 0 -236 78q-100 83 -100 238zM264 300q0 -84 47 -133 q47 -50 177 -50t245 45v313h-205q-145 0 -204 -44q-60 -45 -60 -131z" />
<glyph unicode="b" horiz-adv-x="1105" d="M35 1348v122q104 13 178.5 13t100.5 -26t26 -85v-411q146 71 267.5 71t188 -34.5t111.5 -94.5q105 -146 105 -400q0 -251 -94 -391q-94 -142 -283 -141q-155 0 -318 99q-5 -42 -22 -70h-121v1348h-139zM340 174q118 -51 248 -51q129 0 189 83q63 87 63 304q0 171 -56 272 q-58 99 -184 99t-260 -39v-668z" />
<glyph unicode="c" horiz-adv-x="952" d="M88 507q0 253 141 394q125 131 365 131q114 0 246 -28q20 -4 26 -13.5t6 -29.5v-228h-127q-4 8 -8 27.5t-9 41.5q-11 47 -11 85q-49 6 -118 6q-163 0 -243 -84q-96 -100 -96 -303q0 -204 88 -295q90 -94 311 -94h211v-105q-151 -41 -280 -41q-362 0 -468 309 q-34 99 -34 227z" />
<glyph unicode="d" horiz-adv-x="1128" d="M94 503q0 249 104.5 389t290.5 140q135 0 281 -74v390h-139v122q104 13 178.5 13t100.5 -26t26 -85v-1247h135v-123q-124 -14 -188 -14q-87 0 -105 71v2q-158 -90 -301 -90q-190 0 -286.5 141.5t-96.5 390.5zM266 510q0 -309 144 -368q49 -19 112 -19q140 0 248 47v674 q-141 37 -238 37q-139 0 -202.5 -92.5t-63.5 -278.5z" />
<glyph unicode="e" horiz-adv-x="1036" d="M88 504q0 241 114 380q119 148 324 148q201 0 308.5 -135t107.5 -369v-59q0 -18 -22 -18h-660q8 -172 80 -244q43 -47 114.5 -68.5t194.5 -21.5h254v-103q-158 -43 -315 -43q-500 0 -500 533zM262 582h522q-21 311 -258 311q-127 0 -196 -92q-64 -84 -68 -219z" />
<glyph unicode="f" horiz-adv-x="647" d="M35 877v98l174 31v135q0 260 187 327q61 21 164.5 21t182.5 -27v-114h-129q-144 0 -194 -41q-45 -38 -45 -177v-126h272v-127h-272v-877h-166v877h-174z" />
<glyph unicode="g" horiz-adv-x="1050" d="M84 -174q0 113 90 215q-16 18 -16 55q0 88 114 246q-151 97 -151 313q0 174 103.5 275.5t305.5 101.5q47 0 93 -8l98 264q94 -27 147 -61l-129 -234q201 -92 201 -338q0 -174 -103.5 -275t-306.5 -101q-96 0 -170 24l-36 -153h311q209 0 293 -78t84 -224 q0 -172 -130 -258q-121 -79 -341 -79h-23q-205 0 -319.5 85t-114.5 230zM248 -139q0 -98 66.5 -151.5t224.5 -53.5h4q158 0 232.5 44t74.5 138q0 125 -113 149q-43 9 -112 9h-326q-23 0 -33 2v-4q-18 -83 -18 -133zM281 655q0 -111 54 -175t195 -64t195.5 64t54.5 175 t-54 175.5t-196 64.5q-141 0 -195 -64.5t-54 -175.5z" />
<glyph unicode="h" horiz-adv-x="1179" d="M35 1348v122q104 13 178.5 13t100.5 -26t26 -85v-424q173 84 330 84q168 0 252 -88q71 -75 71 -239v-580h133v-123q-96 -12 -171.5 -12t-101.5 25.5t-26 84.5v566q0 123 -45 168t-166 45q-107 0 -276 -39v-840h-166v1348h-139z" />
<glyph unicode="i" horiz-adv-x="524" d="M59 877v122q104 13 181 13t103 -26t26 -85v-901h-166v877h-144zM170 1319v6q0 109 100 109h13q100 0 100 -109v-6q0 -109 -100 -109h-13q-100 0 -100 109z" />
<glyph unicode="j" horiz-adv-x="524" d="M-57 -330h84q100 0 138 40t38 165v1002h-144v122q104 13 181 13t103 -26t26 -85v-1032q0 -179 -67 -258.5t-212 -79.5q-82 0 -147 14v125zM170 1319v6q0 109 100 109h13q100 0 100 -109v-6q0 -109 -100 -109h-13q-100 0 -100 109z" />
<glyph unicode="k" horiz-adv-x="1093" d="M35 1348v122q104 13 178.5 13t100.5 -26t26 -85v-848l369 410q41 47 71.5 58.5t85.5 11.5h133v-127h-141l-240 -248l318 -503h127v-120q-88 -12 -144.5 -12t-82.5 12q-25 12 -50 53l-280 453l-166 -164v-348h-166v1348h-139z" />
<glyph unicode="l" horiz-adv-x="495" d="M35 1348v122q104 13 178.5 13t100.5 -26t26 -85v-1372h-166v1348h-139z" />
<glyph unicode="m" horiz-adv-x="1789" d="M57 877v120q133 15 188.5 15t80 -15.5t34.5 -50.5q150 86 315.5 86t248.5 -102q203 102 364 102q160 0 244 -88q72 -76 72 -239v-580h133v-123q-96 -12 -172 -12t-102 25.5t-25 84.5v566q0 121 -45 168q-45 45 -156 45q-117 0 -268 -43q16 -46 16 -138v-698h-166v666 q0 123 -45 168t-161 45t-251 -39v-840h-165v877h-140z" />
<glyph unicode="n" horiz-adv-x="1202" d="M57 877v120q133 15 188.5 15t80 -14.5t34.5 -49.5q173 84 332 84q168 0 252 -88q72 -76 72 -239v-580h133v-123q-96 -12 -171.5 -12t-102 25.5t-25.5 84.5v566q0 121 -45 168q-45 45 -166 45q-108 0 -277 -39v-840h-165v877h-140z" />
<glyph unicode="o" horiz-adv-x="1093" d="M88 502q0 248 117 389t342 141t342 -141t117 -389t-117 -389.5t-342 -141.5t-342 141.5t-117 389.5zM260 502q0 -186 65.5 -284.5t221.5 -98.5t221.5 98.5t65.5 284.5t-66 284.5t-221 98.5q-156 0 -221.5 -98.5t-65.5 -284.5z" />
<glyph unicode="p" horiz-adv-x="1126" d="M57 877v120q133 15 188.5 15t80 -13.5t34.5 -48.5q151 82 289 82q186 0 284.5 -140t98.5 -389t-97.5 -390.5t-287.5 -141.5q-150 0 -285 80v-512h-165v1338h-140zM362 170q108 -47 244 -47q130 0 190 83q64 90 64 297.5t-66.5 292.5t-189.5 85q-75 0 -242 -43v-668z" />
<glyph unicode="q" horiz-adv-x="1103" d="M94 505q0 251 109.5 389t312.5 138q133 0 277 -90l20 62h125v-1350h139v-123q-96 -12 -174.5 -12t-104.5 25.5t-26 84.5v424q-151 -82 -297 -82q-190 0 -285.5 141.5t-95.5 392.5zM266 510q0 -199 58.5 -294t191.5 -95t256 51v664q-129 45 -242 45q-264 0 -264 -371z" />
<glyph unicode="r" horiz-adv-x="718" d="M57 877v120q133 15 188.5 15t82 -15.5t32.5 -64.5q111 64 223 91q38 9 64.5 9t38.5 -9t12 -34v-125h-53q-160 0 -283 -26v-838h-165v877h-140z" />
<glyph unicode="s" horiz-adv-x="968" d="M121 739q0 135 90 209q95 84 295 84q166 0 280 -28q25 -6 32 -17.5t7 -30.5v-198h-123q-13 29 -26 131q-93 10 -168 10q-236 0 -236 -147q0 -63 46.5 -96t144.5 -58l123 -31q157 -42 224 -109t67 -195t-93 -210t-301 -82q-174 0 -315 37q-37 10 -37 47v209h123 q11 -34 27 -137q76 -23 208 -23q190 0 224 96q10 29 10 62q0 70 -46 104.5t-145 57.5l-118 31q-164 41 -221 100q-72 72 -72 184z" />
<glyph unicode="t" horiz-adv-x="747" d="M27 877v98l174 31v231q87 25 166 29v-262h272v-127h-272v-566q0 -117 28 -151q30 -43 135 -43h187v-109q-95 -37 -199 -37t-156.5 17.5t-90.5 53.5q-70 66 -70 253v582h-174z" />
<glyph unicode="u" horiz-adv-x="1193" d="M53 877v122q114 13 181 13t93 -26t25 -85v-563q0 -123 45 -168t166 -45q129 0 268 39v713h-133v127h299v-879h140v-119q-124 -14 -203 -14t-98 63q-173 -84 -326 -84q-168 0 -252 88q-72 76 -72 240v578h-133z" />
<glyph unicode="v" horiz-adv-x="1075" d="M12 877v120q133 13 172 13t67 -13.5t46 -66.5l268 -770l244 717h-98v120h352v-120h-96l-322 -877h-115q-47 0 -62 13.5t-30 52.5l-295 811h-131z" />
<glyph unicode="w" horiz-adv-x="1554" d="M12 877v120q133 13 170 13t65.5 -14.5t43.5 -65.5l217 -768l166 776q8 35 23.5 47t50.5 12h147l217 -841l191 721h-97v120h336v-120h-92l-246 -877h-119q-47 0 -67.5 13.5t-30.5 52.5l-196 755l-185 -821h-127q-45 0 -65.5 14.5t-30.5 51.5l-248 811h-123z" />
<glyph unicode="x" horiz-adv-x="1034" d="M57 877v120q96 11 146 11t68 -12q21 -13 55 -58l209 -322l210 357q12 20 22.5 25.5t31.5 5.5h125q18 0 8 -19l-324 -481l248 -379h121v-123q-70 -8 -131 -8t-84 15.5t-51 56.5l-213 323l-209 -358q-12 -20 -22.5 -25.5t-30.5 -5.5h-125q-18 0 -9 18l322 484l-242 375 h-125z" />
<glyph unicode="y" horiz-adv-x="1155" d="M55 877v122q114 13 181 13t93 -26t25 -85v-563q0 -123 45 -168t166 -45q128 0 269 39v713h-134v127h299v-1074q0 -217 -98 -318t-307 -101q-117 0 -244 24v115h193q168 0 229 61q35 35 48.5 89.5t13.5 146.5v106q-168 -82 -322 -82q-168 0 -252 88q-72 76 -72 240v578 h-133z" />
<glyph unicode="z" horiz-adv-x="999" d="M117 54q0 66 53 132l532 691h-432q-14 -110 -26 -144h-125v238q0 33 35 33h739q6 -15 6 -53q0 -60 -53 -134l-533 -692h441q0 69 26 147h125v-239q0 -33 -35 -33h-747q-6 15 -6 54z" />
<glyph unicode="{" horiz-adv-x="749" d="M115 461v135q117 26 161 78q50 61 50 196v365q0 129 58 188.5t198 59.5h86v-135h-52q-72 0 -96 -21.5t-24 -97.5v-361q0 -214 -115 -294q-37 -25 -84 -46q47 -23 84 -47t63 -63q52 -80 52 -230v-358q0 -76 24.5 -97.5t95.5 -21.5h52v-135h-86q-139 0 -197.5 59.5 t-58.5 188.5v362q0 136 -50 197q-44 52 -161 78z" />
<glyph unicode="|" horiz-adv-x="489" d="M174 -518v2066h141v-2066h-141z" />
<glyph unicode="}" horiz-adv-x="749" d="M82 -289h51q72 0 96.5 21.5t24.5 97.5v360q0 217 115 294q37 24 84 46q-102 44 -147 111q-52 80 -52 229v359q0 76 -24.5 97.5t-96.5 21.5h-51v135h86q139 0 197.5 -59.5t58.5 -188.5v-363q0 -135 50 -196q44 -52 161 -78v-135q-117 -26 -161 -78q-50 -61 -50 -197v-364 q0 -129 -58.5 -188.5t-197.5 -59.5h-86v135z" />
<glyph unicode="~" d="M141 659q4 84 49.5 141.5t137.5 57.5q50 0 146 -22q184 -41 226.5 -41t64 15t32.5 56l100 -10q-4 -84 -49 -142.5t-137 -58.5q-46 0 -189 32t-185 32t-63.5 -14.5t-31.5 -55.5z" />
<glyph unicode="&#xa1;" horiz-adv-x="563" d="M172 913v8q0 111 102 111h15q102 0 102 -111v-8q0 -111 -102 -111h-15q-102 0 -102 111zM188 -398l31 1000q0 20 20 20h105l29 -1020h-185z" />
<glyph unicode="&#xa2;" horiz-adv-x="1093" d="M147 504q0 246 136 391q97 105 270 131v238h133v-234q128 -8 185.5 -22.5t64 -23.5t6.5 -26v-233h-117q-8 21 -13 58.5t-8 59t-5 38.5q-72 10 -162 10q-152 0 -235 -92t-83 -287q0 -305 213 -372q72 -23 183 -23h219v-105q-109 -33 -248 -41v-233h-133v239 q-203 27 -304.5 168.5t-101.5 358.5z" />
<glyph unicode="&#xa3;" horiz-adv-x="1185" d="M106 676v94l207 25q-20 106 -20 213q0 203 115 311.5t352 107.5q147 0 268 -32v-119h-221q-199 0 -268.5 -66.5t-69.5 -186.5t20 -226h365v-121h-346q14 -96 14 -177q0 -152 -200 -362h616q0 20 4 47l8 54q7 46 23 98h110v-307q0 -16 -11 -22.5t-46 -6.5h-870 q-9 32 -9 57t3.5 43.5t12.5 37.5q14 28 54.5 81t62 86t36.5 63q30 59 30 138q0 70 -14 170h-226z" />
<glyph unicode="&#xa4;" horiz-adv-x="1163" d="M133 344l154 154q-57 92 -57.5 215t57.5 219l-154 153l90 91l148 -150q86 63 210 63.5t210 -63.5l149 150l90 -91l-153 -153q57 -96 57 -219t-57 -215l153 -154l-90 -90l-149 147q-86 -61 -208.5 -61t-211.5 61l-148 -147zM373 715q0 -106 47 -175t162 -69q209 0 209 244 q0 106 -47.5 174.5t-161.5 68.5q-209 0 -209 -243z" />
<glyph unicode="&#xa5;" horiz-adv-x="1245" d="M66 1266v135h155q57 0 80 -12.5t43 -53.5l293 -630l262 561h-108v135h389v-135h-113l-305 -598h231v-121h-282v-121h282v-121h-282v-170h141v-135h-461v135h141v170h-276v121h276v121h-276v121h223l-291 598h-122z" />
<glyph unicode="&#xa6;" horiz-adv-x="489" d="M174 279h141v-797h-141v797zM174 752v796h141v-796h-141z" />
<glyph unicode="&#xa7;" horiz-adv-x="1048" d="M143 735.5q0 114.5 76 186.5q-76 68 -76 200q0 305 387 305q172 0 326 -45q31 -10 31 -39v-204h-129q-15 36 -27 133q-80 20 -203.5 20t-177 -42t-53.5 -109.5t37 -101t125 -54.5l155 -35q156 -37 223.5 -104.5t67.5 -181t-78 -187.5q78 -70 78 -201q0 -305 -387 -305 q-162 0 -325 45q-31 10 -31 39v205h129q13 -33 26 -133q29 -7 99.5 -14t89.5 -7q139 0 192.5 41t53.5 110t-37 102.5t-125 54.5l-156 35q-155 36 -223 104t-68 182.5zM297 751q0 -60 41 -95t137 -58l156 -35l84 -22q37 53 37 110t-41 92t-138 58l-155 35q-57 10 -84 22 q-37 -47 -37 -107z" />
<glyph unicode="&#xa8;" horiz-adv-x="868" d="M117 1358v4q0 115 106 115h13q106 0 106 -115v-4q0 -115 -106 -115h-13q-106 0 -106 115zM526 1358v4q0 63 30 89t77 26h12q47 0 77 -26t30 -89v-4q0 -63 -30 -89t-77 -26h-12q-107 0 -107 115z" />
<glyph unicode="&#xa9;" horiz-adv-x="1572" d="M82 700q0 309 183 514q191 213 521 213q331 0 522 -213q183 -205 183 -514q0 -310 -183 -514q-89 -100 -221.5 -157.5t-301.5 -57.5t-300 57.5t-220 157.5q-183 204 -183 514zM225 700q0 -279 151 -440q150 -160 410 -160q261 0 411 160q151 161 151 440q0 281 -151 440 q-150 158 -411 158q-260 0 -410 -158q-151 -159 -151 -440zM502 711q0 164 77.5 254t225.5 90q85 0 124 -14.5t42.5 -23.5t3.5 -26v-145h-94q-15 27 -23 96q-10 2 -24 2h-23q-100 0 -141 -58.5t-41 -154.5t13 -142t42 -73q50 -47 180 -47h103v-90q-87 -21 -154 -21 q-168 0 -239.5 94.5t-71.5 258.5z" />
<glyph unicode="&#xaa;" horiz-adv-x="901" d="M121 917.5q0 106.5 76.5 157.5t199.5 51h152v72q0 66 -37 91.5t-129 25.5h-186v94q110 18 233 18q256 0 256 -231v-389h92v-100q-40 -7 -130 -7t-97 54q-96 -60 -201.5 -60t-167 58.5t-61.5 165zM258 914.5q0 -107.5 129 -107.5q99 0 162 37v178h-139q-152 0 -152 -107.5 z" />
<glyph unicode="&#xab;" horiz-adv-x="1146" d="M152 539q0 29 15 54t54 71l266 305l76 -56l-252 -374l252 -375l-76 -55l-266 305q-39 45 -54 70.5t-15 54.5zM612 539q0 29 15.5 54t54.5 71l266 305l76 -56l-252 -374l252 -375l-76 -55l-266 305q-39 45 -54.5 70.5t-15.5 54.5z" />
<glyph unicode="&#xac;" d="M188 780v133h664v-501h-133v368h-531z" />
<glyph unicode="&#xad;" horiz-adv-x="649" d="M135 463v145h379v-145h-379z" />
<glyph unicode="&#xae;" horiz-adv-x="1572" d="M82 700q0 309 183 514q191 213 521 213q331 0 522 -213q183 -205 183 -514q0 -310 -183 -514q-89 -100 -221.5 -157.5t-301.5 -57.5t-300 57.5t-220 157.5q-183 204 -183 514zM225 700q0 -279 151 -440q150 -160 410 -160q261 0 411 160q151 161 151 440q0 281 -151 440 q-150 158 -411 158q-260 0 -410 -158q-151 -159 -151 -440zM518 375v98h62v471h-62v100h262q136 0 189 -50t53 -148q0 -158 -115 -201l97 -172h75v-94q-36 -8 -85.5 -8t-65 11t-27.5 38l-110 211h-91v-158h62v-98h-244zM700 731h74q76 0 103 26t26.5 83t-26 81t-103.5 23 h-74v-213z" />
<glyph unicode="&#xaf;" horiz-adv-x="868" d="M158 1266v143h553v-143h-553z" />
<glyph unicode="&#xb0;" horiz-adv-x="925" d="M123 1059q0 167 89 266q92 102 251 102t251 -102q89 -99 89 -266q0 -166 -89 -267q-91 -102 -251 -102t-251 102q-89 101 -89 267zM276 1059q0 -236 187 -236q186 0 186 236q0 235 -186 235q-187 0 -187 -235z" />
<glyph unicode="&#xb1;" d="M188 0v133h664v-133h-664zM188 596v133h265v264h133v-264h266v-133h-266v-266h-133v266h-265z" />
<glyph unicode="&#xb2;" horiz-adv-x="1024" d="M238 769q0 36 15 68.5t66 88.5l158 178q59 68 89 114t30 97t-33 79t-129 27h-170v105q106 18 225 18t189 -55t70 -150q0 -79 -29 -127q-47 -79 -166 -202l-166 -176h266q4 68 17 106h100v-207q0 -20 -12 -20h-516q-4 20 -4 56z" />
<glyph unicode="&#xb3;" horiz-adv-x="1024" d="M217 1329v176q0 20 12 21h514q12 -58 -2 -91.5t-45 -74.5l-133 -174q98 -16 152.5 -72.5t54.5 -162.5t-75 -182.5t-236 -76.5q-112 0 -217 21v102h182q121 0 161 39t40 108.5t-47.5 100.5t-159.5 31q-4 16 -4 36q0 34 41 89l137 188h-262q-3 -20 -17 -78h-96z" />
<glyph unicode="&#xb4;" horiz-adv-x="868" d="M215 1266l293 280q25 23 42 25t36 -25l65 -90l-372 -270z" />
<glyph unicode="&#xb5;" horiz-adv-x="1204" d="M61 877v122q114 13 182 13t94 -26t25 -85v-582q0 -157 112 -184q42 -10 99 -10q128 0 269 39v713h-133v127h299v-879h137v-119q-124 -14 -202 -14t-97 63q-173 -84 -326 -84q-88 0 -158 27v-459h-165v1338h-136z" />
<glyph unicode="&#xb6;" horiz-adv-x="1232" d="M119 1023q0 271 222 349q83 29 191 29h576v-135h-143v-1682h-148v1682h-162v-1682h-147v1084q-178 0 -283.5 94t-105.5 261z" />
<glyph unicode="&#xb7;" horiz-adv-x="464" d="M123 711v8q0 110 102 110h15q102 0 102 -110v-8q0 -111 -102 -111h-15q-102 0 -102 111z" />
<glyph unicode="&#xb8;" horiz-adv-x="868" d="M236 -379h141q113 0 112 64q0 29 -22.5 45t-92 45t-95 56.5t-25.5 79.5t55 114h80q-14 -35 -14 -63t18.5 -44t90 -44t110.5 -63.5t39 -94.5q0 -97 -55 -152q-62 -58 -170.5 -58t-171.5 27v88z" />
<glyph unicode="&#xb9;" horiz-adv-x="1024" d="M279 713v121h174v571h-166v119q102 8 185 8t104.5 -16.5t21.5 -57.5v-624h147v-121h-466z" />
<glyph unicode="&#xba;" horiz-adv-x="901" d="M127 1065q0 250 179 337q61 30 145 30q158 0 246 -110q77 -96 77 -257q0 -249 -178 -337q-61 -30 -145 -30q-159 0 -247 110q-77 96 -77 257zM274 1065q0 -123 43 -181.5t134 -58.5q90 0 133 58.5t43 181.5t-43 181.5t-133 58.5q-177 0 -177 -240z" />
<glyph unicode="&#xbb;" horiz-adv-x="1146" d="M123 164l252 375l-252 374l76 56l266 -305q39 -45 54.5 -71t15.5 -54q0 -29 -15.5 -54.5t-54.5 -70.5l-266 -305zM584 164l252 375l-252 374l75 56l267 -305q39 -45 54 -71t15 -54q0 -29 -15 -54.5t-54 -70.5l-267 -305z" />
<glyph unicode="&#xbc;" horiz-adv-x="2007" d="M217 592v121h174v571h-166v119q102 8 185 8t105 -16.5t22 -57.5v-624h147v-121h-467zM553 -29l723 1456h156l-723 -1456h-156zM1190 238q0 38 18 90l162 454q12 31 39 31h109l-177 -504h218v217h139v-217h112v-112h-112v-197h-139v197h-363q-6 18 -6 41z" />
<glyph unicode="&#xbd;" horiz-adv-x="2007" d="M211 594v121h174v571h-166v119q102 8 185 8t104.5 -16.5t21.5 -57.5v-624h147v-121h-466zM544 -29l723 1456h156l-723 -1456h-156zM1252 58q0 36 15 68.5t66 88.5l158 178q59 68 89 114t30 97t-33 79t-129 27h-170v105q106 18 225 18t189 -55t70 -150q0 -79 -29 -127 q-47 -79 -166 -202l-166 -176h266q4 68 17 106h100v-207q0 -20 -12 -20h-516q-4 20 -4 56z" />
<glyph unicode="&#xbe;" horiz-adv-x="2007" d="M213 1204v176q0 20 12 21h514q4 -20 4 -47q0 -52 -51 -119l-133 -174q98 -16 152.5 -72.5t54.5 -162t-68 -177.5q-82 -82 -243 -82q-43 0 -91.5 5.5t-77 8.5t-48.5 7v102h182q121 0 161 39t40 108.5t-47.5 100.5t-159.5 31q-4 16 -4 37q0 33 41 88l137 188h-262 q-3 -20 -17 -78h-96zM575 -29l723 1456h156l-723 -1456h-156zM1212 238q0 35 19 90l162 454q6 16 13 23.5t26 7.5h108l-176 -504h217v217h139v-217h113v-112h-113v-197h-139v197h-362q-6 18 -7 41z" />
<glyph unicode="&#xbf;" horiz-adv-x="847" d="M64 -101q0 112 32 175q51 103 160 220q102 113 130 167.5t34 87t8 71.5h117q10 -35 10 -70t-7 -66.5t-22 -62.5q-28 -56 -100 -149l-20 -27q-100 -130 -125 -179q-41 -79 -41 -163t55 -129q61 -51 231 -51h232v-117q-145 -30 -274 -30q-230 0 -328 94q-92 88 -92 229z M373 913v8q0 111 102 111h15q102 0 102 -111v-8q0 -111 -102 -111h-15q-102 0 -102 111z" />
<glyph unicode="&#xc0;" horiz-adv-x="1312" d="M0 0v135h117l415 1266h154q29 0 38 -9.5t19 -33.5l447 -1223h115v-135h-424v135h125l-99 285h-538l-90 -285h112v-135h-391zM397 1804l66 90q18 27 35.5 25t41.5 -25l293 -280l-63 -80zM414 561h444l-233 656z" />
<glyph unicode="&#xc1;" horiz-adv-x="1312" d="M0 0v135h117l415 1266h154q29 0 38 -9.5t19 -33.5l447 -1223h115v-135h-424v135h125l-99 285h-538l-90 -285h112v-135h-391zM414 561h444l-233 656zM438 1614l293 280q25 23 42 25t36 -25l65 -90l-372 -270z" />
<glyph unicode="&#xc2;" horiz-adv-x="1312" d="M0 0v135h117l415 1266h154q29 0 38 -9.5t19 -33.5l447 -1223h115v-135h-424v135h125l-99 285h-538l-90 -285h112v-135h-391zM313 1604l186 227q29 37 49.5 48t59.5 11h33q39 0 59 -11t49 -48l186 -227l-67 -58l-244 211l-244 -211zM414 561h444l-233 656z" />
<glyph unicode="&#xc3;" horiz-adv-x="1312" d="M0 0v135h117l415 1266h154q29 0 38 -9.5t19 -33.5l447 -1223h115v-135h-424v135h125l-99 285h-538l-90 -285h112v-135h-391zM317 1610q4 100 47 156.5t109 56.5q53 0 114.5 -29t93 -41t63.5 -12t47.5 16.5t25.5 59.5l96 -11q-4 -100 -47 -156.5t-96.5 -56.5t-88 12.5 t-67.5 28.5q-88 41 -124 41t-51 -16.5t-26 -59.5zM414 561h444l-233 656z" />
<glyph unicode="&#xc4;" horiz-adv-x="1312" d="M0 0v135h117l415 1266h154q29 0 38 -9.5t19 -33.5l447 -1223h115v-135h-424v135h125l-99 285h-538l-90 -285h112v-135h-391zM305 1706v4q0 115 106 115h13q106 0 106 -115v-4q0 -115 -106 -115h-13q-106 0 -106 115zM414 561h444l-233 656zM714 1706v4q0 63 30 89t77 26 h12q107 0 107 -115v-4q0 -63 -30 -89t-77 -26h-12q-107 0 -107 115z" />
<glyph unicode="&#xc5;" horiz-adv-x="1312" d="M0 0v135h117l415 1266h154q29 0 38 -9.5t19 -33.5l447 -1223h115v-135h-424v135h125l-99 285h-538l-90 -285h112v-135h-391zM387 1761v8q0 232 233 232h6q234 0 234 -232v-8q0 -231 -234 -231h-6q-233 0 -233 231zM414 561h444l-233 656zM507 1765q0 -68 21.5 -95.5 t91.5 -27.5h6q70 0 91.5 28t21.5 95q0 68 -21.5 95.5t-91.5 27.5h-6q-70 0 -91.5 -27.5t-21.5 -95.5z" />
<glyph unicode="&#xc6;" horiz-adv-x="1894" d="M8 0v135h117l692 1200q30 58 63 64q11 2 29 2h822q31 0 39 -6t8 -21v-301h-121q-33 87 -33 193h-518v-480h393q20 0 26.5 -3t6.5 -15v-127h-426v-506h528q0 108 33 195h121v-303q0 -14 -8 -20.5t-39 -6.5h-955v135h142v285h-471l-160 -285h113v-135h-402zM537 561h391 v688z" />
<glyph unicode="&#xc7;" horiz-adv-x="1185" d="M115 698q0 358 174 546q169 183 463 183q171 0 290 -36q33 -8 33 -43v-273h-131q-13 27 -22 98.5t-9 90.5q-73 10 -153 10q-231 0 -347 -135t-116 -445q0 -469 298 -544q105 -27 255 -27h217v-125q-157 -27 -283 -27l-69 2v-12q0 -27 18.5 -43t90 -44t110.5 -63.5 t39 -94.5q0 -97 -58.5 -153.5t-197.5 -56.5q-77 0 -142 27v88h142q113 0 112 64q0 29 -22.5 45t-92 45t-95 56.5t-25.5 70.5t22 82q-221 35 -329 157q-172 192 -172 557z" />
<glyph unicode="&#xc8;" horiz-adv-x="1243" d="M127 0v135h141v1131h-141v135h944q31 0 39 -6t8 -21v-301h-121q-32 85 -32 193h-519v-480h394q20 0 26 -3t6 -15v-127h-426v-506h529q0 114 33 195h120v-303q0 -14 -8 -20.5t-39 -6.5h-954zM403 1804l66 90q18 27 35.5 25t41.5 -25l293 -280l-63 -80z" />
<glyph unicode="&#xc9;" horiz-adv-x="1243" d="M127 0v135h141v1131h-141v135h944q31 0 39 -6t8 -21v-301h-121q-32 85 -32 193h-519v-480h394q20 0 26 -3t6 -15v-127h-426v-506h529q0 114 33 195h120v-303q0 -14 -8 -20.5t-39 -6.5h-954zM444 1614l293 280q25 23 42 25t36 -25l65 -90l-372 -270z" />
<glyph unicode="&#xca;" horiz-adv-x="1243" d="M127 0v135h141v1131h-141v135h944q31 0 39 -6t8 -21v-301h-121q-32 85 -32 193h-519v-480h394q20 0 26 -3t6 -15v-127h-426v-506h529q0 114 33 195h120v-303q0 -14 -8 -20.5t-39 -6.5h-954zM326 1604l186 227q29 37 49.5 48t59.5 11h33q39 0 59 -11t49 -48l186 -227 l-67 -58l-244 211l-244 -211z" />
<glyph unicode="&#xcb;" horiz-adv-x="1243" d="M127 0v135h141v1131h-141v135h944q31 0 39 -6t8 -21v-301h-121q-32 85 -32 193h-519v-480h394q20 0 26 -3t6 -15v-127h-426v-506h529q0 114 33 195h120v-303q0 -14 -8 -20.5t-39 -6.5h-954zM320 1706v4q0 115 106 115h13q106 0 106 -115v-4q0 -115 -106 -115h-13 q-106 0 -106 115zM729 1706v4q0 63 30 89t77 26h12q107 0 107 -115v-4q0 -63 -30 -89t-77 -26h-12q-107 0 -107 115z" />
<glyph unicode="&#xcc;" horiz-adv-x="722" d="M131 0v135h141v1131h-141v135h461v-135h-141v-1131h141v-135h-461zM145 1804l66 90q18 27 35.5 25t41.5 -25l293 -280l-63 -80z" />
<glyph unicode="&#xcd;" horiz-adv-x="722" d="M131 0v135h141v1131h-141v135h461v-135h-141v-1131h141v-135h-461zM145 1614l293 280q25 23 42 25t36 -25l65 -90l-372 -270z" />
<glyph unicode="&#xce;" horiz-adv-x="722" d="M53 1604l186 227q29 37 49.5 48t59.5 11h33q39 0 59 -11t49 -48l186 -227l-67 -58l-244 211l-244 -211zM131 0v135h141v1131h-141v135h461v-135h-141v-1131h141v-135h-461z" />
<glyph unicode="&#xcf;" horiz-adv-x="722" d="M47 1706v4q0 115 106 115h13q106 0 106 -115v-4q0 -115 -106 -115h-13q-106 0 -106 115zM131 0v135h141v1131h-141v135h461v-135h-141v-1131h141v-135h-461zM456 1706v4q0 63 30 89t77 26h12q107 0 107 -115v-4q0 -63 -30 -89t-77 -26h-12q-107 0 -107 115z" />
<glyph unicode="&#xd0;" horiz-adv-x="1415" d="M102 643v115l181 22v486h-142v135h480q195 0 317.5 -39t202.5 -121q160 -166 159.5 -542.5t-159.5 -544.5q-76 -78 -189.5 -116t-292.5 -38h-518v135h142v508h-181zM461 139h201q237 0 344 113q66 72 90 184.5t24 268.5q0 319 -125 444q-113 113 -372 113h-162v-478h284 v-141h-284v-504z" />
<glyph unicode="&#xd1;" horiz-adv-x="1562" d="M127 0v135h141v1131h-141v135h188q47 0 69 -8.5t48 -44.5l737 -1045v963h-141v135h436v-135h-141v-1266h-131l-770 1100v-965h141v-135h-436zM483 1610q4 100 47 156.5t109 56.5q53 0 114.5 -29t93 -41t63.5 -12t47.5 16.5t25.5 59.5l96 -11q-4 -100 -47 -156.5 t-96.5 -56.5t-88 12.5t-67.5 28.5q-88 41 -124 41t-51 -16.5t-26 -59.5z" />
<glyph unicode="&#xd2;" horiz-adv-x="1355" d="M115 698q0 362 145.5 545.5t417.5 183.5t417.5 -183t145.5 -546q0 -362 -145.5 -544.5t-417.5 -182.5t-417.5 182.5t-145.5 544.5zM297 698q0 -418 202 -526q73 -39 179 -39q300 0 362 329q19 105 19 236q0 417 -202 528q-73 40 -179 40q-299 0 -362 -332 q-19 -105 -19 -236zM459 1804l66 90q18 27 35.5 25t41.5 -25l293 -280l-63 -80z" />
<glyph unicode="&#xd3;" horiz-adv-x="1355" d="M115 698q0 362 145.5 545.5t417.5 183.5t417.5 -183t145.5 -546q0 -362 -145.5 -544.5t-417.5 -182.5t-417.5 182.5t-145.5 544.5zM297 698q0 -418 202 -526q73 -39 179 -39q300 0 362 329q19 105 19 236q0 417 -202 528q-73 40 -179 40q-299 0 -362 -332 q-19 -105 -19 -236zM459 1614l293 280q25 23 42 25t36 -25l65 -90l-372 -270z" />
<glyph unicode="&#xd4;" horiz-adv-x="1355" d="M115 698q0 362 145.5 545.5t417.5 183.5t417.5 -183t145.5 -546q0 -362 -145.5 -544.5t-417.5 -182.5t-417.5 182.5t-145.5 544.5zM297 698q0 -418 202 -526q73 -39 179 -39q300 0 362 329q19 105 19 236q0 417 -202 528q-73 40 -179 40q-299 0 -362 -332 q-19 -105 -19 -236zM367 1604l186 227q29 37 49.5 48t59.5 11h33q39 0 59 -11t49 -48l186 -227l-67 -58l-244 211l-244 -211z" />
<glyph unicode="&#xd5;" horiz-adv-x="1355" d="M115 698q0 362 145.5 545.5t417.5 183.5t417.5 -183t145.5 -546q0 -362 -145.5 -544.5t-417.5 -182.5t-417.5 182.5t-145.5 544.5zM297 698q0 -418 202 -526q73 -39 179 -39q300 0 362 329q19 105 19 236q0 417 -202 528q-73 40 -179 40q-299 0 -362 -332 q-19 -105 -19 -236zM379 1610q4 100 47 156.5t109 56.5q53 0 114.5 -29t93 -41t63.5 -12t47.5 16.5t25.5 59.5l96 -11q-4 -100 -47 -156.5t-96.5 -56.5t-88 12.5t-67.5 28.5q-88 41 -124 41t-51 -16.5t-26 -59.5z" />
<glyph unicode="&#xd6;" horiz-adv-x="1355" d="M115 698q0 362 145.5 545.5t417.5 183.5t417.5 -183t145.5 -546q0 -362 -145.5 -544.5t-417.5 -182.5t-417.5 182.5t-145.5 544.5zM297 698q0 -418 202 -526q73 -39 179 -39q300 0 362 329q19 105 19 236q0 417 -202 528q-73 40 -179 40q-299 0 -362 -332 q-19 -105 -19 -236zM361 1706v4q0 115 106 115h13q106 0 106 -115v-4q0 -115 -106 -115h-13q-106 0 -106 115zM770 1706v4q0 63 30 89t77 26h12q107 0 107 -115v-4q0 -63 -30 -89t-77 -26h-12q-107 0 -107 115z" />
<glyph unicode="&#xd7;" d="M238 475l186 187l-186 186l94 94l186 -186l189 188l94 -94l-189 -188l189 -189l-94 -94l-189 188l-186 -186z" />
<glyph unicode="&#xd8;" horiz-adv-x="1355" d="M115 698q0 362 145.5 545.5t417.5 183.5q88 0 168 -22l55 158h125l-70 -201q285 -160 285 -664q0 -362 -145.5 -544.5t-417.5 -182.5q-100 0 -191 29l-53 -160h-127l72 207q-264 164 -264 651zM297 698q0 -351 139 -483l357 1036q-68 15 -144.5 15t-149.5 -40t-118 -114 q-84 -138 -84 -414zM541 154q59 -21 151 -21t165 39t118 112q84 138 84 414q0 375 -158 500z" />
<glyph unicode="&#xd9;" horiz-adv-x="1464" d="M86 1266v135h461v-135h-141v-768q0 -192 77 -273q86 -94 259 -94q256 0 322 193q21 63 21 161v781h-141v135h434v-135h-141v-791q0 -254 -133 -381q-133 -123 -365 -123q-389 0 -483 294q-29 91 -29 227v774h-141zM530 1804l66 90q18 27 35.5 25t41.5 -25l293 -280 l-63 -80z" />
<glyph unicode="&#xda;" horiz-adv-x="1464" d="M86 1266v135h461v-135h-141v-768q0 -192 77 -273q86 -94 259 -94q256 0 322 193q21 63 21 161v781h-141v135h434v-135h-141v-791q0 -254 -133 -381q-133 -123 -365 -123q-389 0 -483 294q-29 91 -29 227v774h-141zM528 1614l293 280q25 23 42 25t36 -25l65 -90l-372 -270 z" />
<glyph unicode="&#xdb;" horiz-adv-x="1464" d="M86 1266v135h461v-135h-141v-768q0 -192 77 -273q86 -94 259 -94q256 0 322 193q21 63 21 161v781h-141v135h434v-135h-141v-791q0 -254 -133 -381q-133 -123 -365 -123q-389 0 -483 294q-29 91 -29 227v774h-141zM436 1604l186 227q29 37 49.5 48t59.5 11h33 q39 0 59 -11t49 -48l186 -227l-67 -58l-244 211l-244 -211z" />
<glyph unicode="&#xdc;" horiz-adv-x="1464" d="M86 1266v135h461v-135h-141v-768q0 -192 77 -273q86 -94 259 -94q256 0 322 193q21 63 21 161v781h-141v135h434v-135h-141v-791q0 -254 -133 -381q-133 -123 -365 -123q-389 0 -483 294q-29 91 -29 227v774h-141zM428 1706v4q0 115 106 115h13q106 0 106 -115v-4 q0 -115 -106 -115h-13q-106 0 -106 115zM837 1706v4q0 63 30 89t77 26h12q107 0 107 -115v-4q0 -63 -30 -89t-77 -26h-12q-107 0 -107 115z" />
<glyph unicode="&#xdd;" horiz-adv-x="1204" d="M8 1266v135h152q59 0 82.5 -14.5t44.5 -51.5l329 -630l299 561h-108v135h389v-135h-113l-393 -701v-430h141v-135h-460v135h141v428l-381 703h-123zM420 1614l293 280q25 23 42 25t36 -25l65 -90l-372 -270z" />
<glyph unicode="&#xde;" horiz-adv-x="1236" d="M131 0v135h141v1131h-141v135h461v-135h-141v-136h239q141 0 226 -22q249 -62 247 -385q0 -438 -424 -438q-131 0 -288 22v-172h141v-135h-461zM451 426h217q179 0 245 68q68 68 68 222t-72 220q-67 59 -231 59h-227v-569z" />
<glyph unicode="&#xdf;" horiz-adv-x="1288" d="M35 877v98l174 31v34q0 217 132 338q122 111 333 111q164 0 253 -79t89 -198q0 -160 -169 -275q-108 -74 -138.5 -108t-30.5 -65t12 -50.5t41 -37.5q47 -31 159 -72t170 -71.5t97 -68.5q78 -76 78 -199.5t-97 -208.5t-300 -85q-153 0 -287 39q-33 10 -33 45v203h121 q14 -35 27 -135q83 -19 193.5 -19t165 45.5t54.5 112.5q0 73 -52 114q-54 44 -165.5 82t-172 68.5t-97.5 63.5q-68 61 -68 140t43 136.5t135.5 121.5t126 108.5t33.5 111t-56 108.5t-142 42q-289 0 -289 -344v-1014h-166v877h-174z" />
<glyph unicode="&#xe0;" horiz-adv-x="1083" d="M94 287q0 319 416 319q113 0 223 -8v88q0 107 -45 152q-46 43 -188 43h-312v106q157 45 354 45q280 0 340 -185q17 -54 17 -136v-586h135v-123q-124 -14 -188 -14q-92 0 -109 71q-149 -88 -307 -88q-144 0 -236 78q-100 83 -100 238zM264.5 302q-0.5 -85 46.5 -135 t177 -50t245 45v313h-205q-145 0 -204 -44t-59.5 -129zM336 1456l66 90q18 27 35.5 25t41.5 -25l293 -280l-63 -80z" />
<glyph unicode="&#xe1;" horiz-adv-x="1083" d="M94 287q0 319 416 319q113 0 223 -8v88q0 107 -45 152q-46 43 -188 43h-312v106q157 45 354 45q280 0 340 -185q17 -54 17 -136v-586h135v-123q-124 -14 -188 -14q-92 0 -109 71q-149 -88 -307 -88q-144 0 -236 78q-100 83 -100 238zM264.5 302q-0.5 -85 46.5 -135 t177 -50t245 45v313h-205q-145 0 -204 -44t-59.5 -129zM354 1266l293 280q25 23 42 25t36 -25l65 -90l-372 -270z" />
<glyph unicode="&#xe2;" horiz-adv-x="1083" d="M94 287q0 319 416 319q113 0 223 -8v88q0 107 -45 152q-46 43 -188 43h-312v106q157 45 354 45q280 0 340 -185q17 -54 17 -136v-586h135v-123q-124 -14 -188 -14q-92 0 -109 71q-149 -88 -307 -88q-144 0 -236 78q-100 83 -100 238zM217 1255l186 228q29 37 49.5 48 t59.5 11h33q39 0 59 -11t49 -48l186 -228l-67 -57l-244 211l-244 -211zM264.5 302q-0.5 -85 46.5 -135t177 -50t245 45v313h-205q-145 0 -204 -44t-59.5 -129z" />
<glyph unicode="&#xe3;" horiz-adv-x="1083" d="M94 287q0 319 416 319q113 0 223 -8v88q0 107 -45 152q-46 43 -188 43h-312v106q157 45 354 45q280 0 340 -185q17 -54 17 -136v-586h135v-123q-124 -14 -188 -14q-92 0 -109 71q-149 -88 -307 -88q-144 0 -236 78q-100 83 -100 238zM223 1262q4 100 47 156.5t109 56.5 q53 0 114.5 -29t93 -41t63.5 -12t47.5 16t25.5 59l96 -10q-4 -100 -47 -156.5t-96.5 -56.5t-88 12.5t-67.5 27.5t-64.5 28.5t-63.5 13.5t-47 -16.5t-26 -59.5zM264.5 302q-0.5 -85 46.5 -135t177 -50t245 45v313h-205q-145 0 -204 -44t-59.5 -129z" />
<glyph unicode="&#xe4;" horiz-adv-x="1083" d="M94 287q0 319 416 319q113 0 223 -8v88q0 107 -45 152q-46 43 -188 43h-312v106q157 45 354 45q280 0 340 -185q17 -54 17 -136v-586h135v-123q-124 -14 -188 -14q-92 0 -109 71q-149 -88 -307 -88q-144 0 -236 78q-100 83 -100 238zM217 1358v4q0 115 106 115h13 q106 0 106 -115v-4q0 -115 -106 -115h-13q-106 0 -106 115zM264.5 302q-0.5 -85 46.5 -135t177 -50t245 45v313h-205q-145 0 -204 -44t-59.5 -129zM626 1358v4q0 63 30 89t77 26h12q47 0 77 -26t30 -89v-4q0 -63 -30 -89t-77 -26h-12q-107 0 -107 115z" />
<glyph unicode="&#xe5;" horiz-adv-x="1083" d="M94 287q0 319 416 319q113 0 223 -8v88q0 107 -45 152q-46 43 -188 43h-312v106q157 45 354 45q280 0 340 -185q17 -54 17 -136v-586h135v-123q-124 -14 -188 -14q-92 0 -109 71q-149 -88 -307 -88q-144 0 -236 78q-100 83 -100 238zM264.5 302q-0.5 -85 46.5 -135 t177 -50t245 45v313h-205q-145 0 -204 -44t-59.5 -129zM301 1413v8q0 232 233 232h6q234 0 234 -232v-8q0 -231 -234 -231h-6q-233 0 -233 231zM421 1417q0 -68 21.5 -95.5t91.5 -27.5h6q70 0 91.5 28t21.5 95q0 68 -21.5 95.5t-91.5 27.5h-6q-70 0 -91.5 -27.5t-21.5 -95.5 z" />
<glyph unicode="&#xe6;" horiz-adv-x="1671" d="M94 287q0 319 416 319q113 0 223 -8v88q0 107 -45 152q-46 43 -188 43h-312v106q157 45 370.5 45t297.5 -129q112 129 305 129q201 0 308.5 -135t107.5 -369v-59q0 -18 -23 -18h-659q8 -172 80 -244q43 -47 114.5 -68.5t194.5 -21.5h254v-103q-158 -43 -315 -43 q-248 0 -367 123q-192 -123 -412 -123q-170 0 -260 83t-90 233zM264 295q0 -86 48 -129q55 -49 158 -49q165 0 321 73q-54 109 -58 285h-205q-145 0 -204 -44t-60 -136zM897 582h522q-21 311 -258 311q-127 0 -197 -92q-63 -84 -67 -219z" />
<glyph unicode="&#xe7;" horiz-adv-x="952" d="M88 507q0 253 141 394q125 131 365 131q114 0 246 -28q20 -4 26 -13.5t6 -29.5v-228h-127q-4 8 -8 27.5t-9 41.5q-11 47 -11 85q-49 6 -118 6q-163 0 -243 -84q-96 -100 -96 -303q0 -204 88 -295q90 -94 311 -94h211v-105q-151 -41 -280 -41l-55 2v-12q0 -27 18 -43 t90 -44t111 -63.5t39 -95t-15 -93.5q-53 -116 -242 -116q-76 0 -141 27v88h142q113 0 112 64q0 29 -22.5 45t-92 45t-95 56.5t-25.5 73.5t24 83q-234 53 -316 292q-34 99 -34 227z" />
<glyph unicode="&#xe8;" horiz-adv-x="1036" d="M88 504q0 241 114 380q119 148 324 148q201 0 308.5 -135t107.5 -369v-59q0 -18 -22 -18h-660q8 -172 80 -244q43 -47 114.5 -68.5t194.5 -21.5h254v-103q-158 -43 -315 -43q-500 0 -500 533zM262 582h522q-21 311 -258 311q-127 0 -196 -92q-64 -84 -68 -219zM324 1456 l66 90q18 27 35.5 25t41.5 -25l293 -280l-63 -80z" />
<glyph unicode="&#xe9;" horiz-adv-x="1036" d="M88 504q0 241 114 380q119 148 324 148q201 0 308.5 -135t107.5 -369v-59q0 -18 -22 -18h-660q8 -172 80 -244q43 -47 114.5 -68.5t194.5 -21.5h254v-103q-158 -43 -315 -43q-500 0 -500 533zM262 582h522q-21 311 -258 311q-127 0 -196 -92q-64 -84 -68 -219zM311 1266 l293 280q25 23 42 25t36 -25l65 -90l-372 -270z" />
<glyph unicode="&#xea;" horiz-adv-x="1036" d="M88 504q0 241 114 380q119 148 324 148q201 0 308.5 -135t107.5 -369v-59q0 -18 -22 -18h-660q8 -172 80 -244q43 -47 114.5 -68.5t194.5 -21.5h254v-103q-158 -43 -315 -43q-500 0 -500 533zM219 1255l186 228q29 37 49.5 48t59.5 11h33q39 0 59 -11t49 -48l186 -228 l-67 -57l-244 211l-244 -211zM262 582h522q-21 311 -258 311q-127 0 -196 -92q-64 -84 -68 -219z" />
<glyph unicode="&#xeb;" horiz-adv-x="1036" d="M88 504q0 241 114 380q119 148 324 148q201 0 308.5 -135t107.5 -369v-59q0 -18 -22 -18h-660q8 -172 80 -244q43 -47 114.5 -68.5t194.5 -21.5h254v-103q-158 -43 -315 -43q-500 0 -500 533zM211 1358v4q0 115 106 115h13q106 0 106 -115v-4q0 -115 -106 -115h-13 q-106 0 -106 115zM262 582h522q-21 311 -258 311q-127 0 -196 -92q-64 -84 -68 -219zM620 1358v4q0 63 30 89t77 26h12q47 0 77 -26t30 -89v-4q0 -63 -30 -89t-77 -26h-12q-107 0 -107 115z" />
<glyph unicode="&#xec;" horiz-adv-x="524" d="M14 1456l66 90q18 27 35.5 25t41.5 -25l293 -280l-63 -80zM59 877v122q104 13 181 13t103 -26t26 -85v-901h-166v877h-144z" />
<glyph unicode="&#xed;" horiz-adv-x="524" d="M59 877v122q104 13 181 13t103 -26t26 -85v-901h-166v877h-144zM63 1266l293 280q25 23 42 25t36 -25l65 -90l-372 -270z" />
<glyph unicode="&#xee;" horiz-adv-x="524" d="M-53 1255l186 228q29 37 49.5 48t59.5 11h33q39 0 59 -11t49 -48l186 -228l-67 -57l-244 211l-244 -211zM59 877v122q104 13 181 13t103 -26t26 -85v-901h-166v877h-144z" />
<glyph unicode="&#xef;" horiz-adv-x="524" d="M-59 1358v4q0 115 106 115h13q106 0 106 -115v-4q0 -115 -106 -115h-13q-106 0 -106 115zM59 877v122q104 13 181 13t103 -26t26 -85v-901h-166v877h-144zM350 1358v4q0 63 30 89t77 26h12q47 0 77 -26t30 -89v-4q0 -63 -30 -89t-77 -26h-12q-107 0 -107 115z" />
<glyph unicode="&#xf0;" horiz-adv-x="1110" d="M94 473q0 230 122 361q117 127 312 127q124 0 273 -52q-57 197 -185 379l-147 -119l-70 86l152 121q-50 63 -139 156l73 70q96 -83 160 -150l180 145l70 -86l-176 -141q297 -352 297 -811q0 -268 -116 -424q-123 -166 -349 -166q-219 0 -340 143q-117 139 -117 361z M264 473q0 -155 72 -256q74 -104 213 -104q297 0 297 467q0 106 -19 211q-130 32 -247 32q-316 0 -316 -350z" />
<glyph unicode="&#xf1;" horiz-adv-x="1202" d="M57 877v120q133 15 188.5 15t80 -14.5t34.5 -49.5q173 84 332 84q168 0 252 -88q72 -76 72 -239v-580h133v-123q-96 -12 -171.5 -12t-102 25.5t-25.5 84.5v566q0 121 -45 168q-45 45 -166 45q-108 0 -277 -39v-840h-165v877h-140zM346 1262q4 100 47 156.5t109 56.5 q53 0 114.5 -29t93 -41t63.5 -12t47.5 16t25.5 59l96 -10q-4 -100 -47 -156.5t-96.5 -56.5t-88 12.5t-67.5 27.5t-64.5 28.5t-63.5 13.5t-47 -16.5t-26 -59.5z" />
<glyph unicode="&#xf2;" horiz-adv-x="1093" d="M88 502q0 248 117 389t342 141t342 -141t117 -389t-117 -389.5t-342 -141.5t-342 141.5t-117 389.5zM260 502q0 -186 65.5 -284.5t221.5 -98.5t221.5 98.5t65.5 284.5t-66 284.5t-221 98.5q-156 0 -221.5 -98.5t-65.5 -284.5zM328 1456l66 90q18 27 35.5 25t41.5 -25 l293 -280l-63 -80z" />
<glyph unicode="&#xf3;" horiz-adv-x="1093" d="M88 502q0 248 117 389t342 141t342 -141t117 -389t-117 -389.5t-342 -141.5t-342 141.5t-117 389.5zM260 502q0 -186 65.5 -284.5t221.5 -98.5t221.5 98.5t65.5 284.5t-66 284.5t-221 98.5q-156 0 -221.5 -98.5t-65.5 -284.5zM340 1266l293 280q25 23 42 25t36 -25 l65 -90l-372 -270z" />
<glyph unicode="&#xf4;" horiz-adv-x="1093" d="M88 502q0 248 117 389t342 141t342 -141t117 -389t-117 -389.5t-342 -141.5t-342 141.5t-117 389.5zM236 1255l186 228q29 37 49.5 48t59.5 11h33q39 0 59 -11t49 -48l186 -228l-67 -57l-244 211l-244 -211zM260 502q0 -186 65.5 -284.5t221.5 -98.5t221.5 98.5 t65.5 284.5t-66 284.5t-221 98.5q-156 0 -221.5 -98.5t-65.5 -284.5z" />
<glyph unicode="&#xf5;" horiz-adv-x="1093" d="M88 502q0 248 117 389t342 141t342 -141t117 -389t-117 -389.5t-342 -141.5t-342 141.5t-117 389.5zM248 1262q4 100 47 156.5t109 56.5q53 0 114.5 -29t93 -41t63.5 -12t47.5 16t25.5 59l96 -10q-4 -100 -47 -156.5t-96.5 -56.5t-88 12.5t-67.5 27.5t-64.5 28.5 t-63.5 13.5t-47 -16.5t-26 -59.5zM260 502q0 -186 65.5 -284.5t221.5 -98.5t221.5 98.5t65.5 284.5t-66 284.5t-221 98.5q-156 0 -221.5 -98.5t-65.5 -284.5z" />
<glyph unicode="&#xf6;" horiz-adv-x="1093" d="M88 502q0 248 117 389t342 141t342 -141t117 -389t-117 -389.5t-342 -141.5t-342 141.5t-117 389.5zM230 1358v4q0 115 106 115h13q106 0 106 -115v-4q0 -115 -106 -115h-13q-106 0 -106 115zM260 502q0 -186 65.5 -284.5t221.5 -98.5t221.5 98.5t65.5 284.5t-66 284.5 t-221 98.5q-156 0 -221.5 -98.5t-65.5 -284.5zM639 1358v4q0 63 30 89t77 26h12q47 0 77 -26t30 -89v-4q0 -63 -30 -89t-77 -26h-12q-107 0 -107 115z" />
<glyph unicode="&#xf7;" d="M188 596v133h664v-133h-664zM412 317v5q0 110 102 110h10q103 0 103 -110v-5q0 -110 -103 -110h-10q-102 0 -102 110zM412 1004v4q0 110 102 110h10q103 0 103 -110v-4q0 -111 -103 -111h-10q-102 0 -102 111z" />
<glyph unicode="&#xf8;" horiz-adv-x="1093" d="M88 502q0 248 117 389t342 141q55 0 123 -14l55 158h121l-70 -197q230 -118 230 -477q0 -248 -117 -389.5t-342 -141.5q-63 0 -119 13l-53 -156h-123l67 192q-231 116 -231 482zM260 502q0 -249 111 -332l250 709q-35 6 -74 6q-156 0 -221.5 -98.5t-65.5 -284.5zM477 125 q33 -6 70 -6q156 0 221.5 98.5t65.5 284.5q0 237 -109 327z" />
<glyph unicode="&#xf9;" horiz-adv-x="1193" d="M53 877v122q114 13 181 13t93 -26t25 -85v-563q0 -123 45 -168t166 -45q129 0 268 39v713h-133v127h299v-879h140v-119q-124 -14 -203 -14t-98 63q-173 -84 -326 -84q-168 0 -252 88q-72 76 -72 240v578h-133zM334 1456l66 90q18 27 35.5 25t41.5 -25l293 -280l-63 -80z " />
<glyph unicode="&#xfa;" horiz-adv-x="1193" d="M53 877v122q114 13 181 13t93 -26t25 -85v-563q0 -123 45 -168t166 -45q129 0 268 39v713h-133v127h299v-879h140v-119q-124 -14 -203 -14t-98 63q-173 -84 -326 -84q-168 0 -252 88q-72 76 -72 240v578h-133zM416 1266l293 280q25 23 42 25t36 -25l65 -90l-372 -270z " />
<glyph unicode="&#xfb;" horiz-adv-x="1193" d="M53 877v122q114 13 181 13t93 -26t25 -85v-563q0 -123 45 -168t166 -45q129 0 268 39v713h-133v127h299v-879h140v-119q-124 -14 -203 -14t-98 63q-173 -84 -326 -84q-168 0 -252 88q-72 76 -72 240v578h-133zM283 1255l186 228q29 37 49.5 48t59.5 11h33q39 0 59 -11 t49 -48l186 -228l-67 -57l-244 211l-244 -211z" />
<glyph unicode="&#xfc;" horiz-adv-x="1193" d="M53 877v122q114 13 181 13t93 -26t25 -85v-563q0 -123 45 -168t166 -45q129 0 268 39v713h-133v127h299v-879h140v-119q-124 -14 -203 -14t-98 63q-173 -84 -326 -84q-168 0 -252 88q-72 76 -72 240v578h-133zM258 1358v4q0 115 106 115h13q106 0 106 -115v-4 q0 -115 -106 -115h-13q-106 0 -106 115zM667 1358v4q0 63 30 89t77 26h12q47 0 77 -26t30 -89v-4q0 -63 -30 -89t-77 -26h-12q-107 0 -107 115z" />
<glyph unicode="&#xfd;" horiz-adv-x="1155" d="M55 877v122q114 13 181 13t93 -26t25 -85v-563q0 -123 45 -168t166 -45q128 0 269 39v713h-134v127h299v-1074q0 -217 -98 -318t-307 -101q-117 0 -244 24v115h193q168 0 229 61q35 35 48.5 89.5t13.5 146.5v106q-168 -82 -322 -82q-168 0 -252 88q-72 76 -72 240v578 h-133zM389 1266l293 280q25 23 42 25t36 -25l65 -90l-372 -270z" />
<glyph unicode="&#xfe;" horiz-adv-x="1103" d="M35 1348v122q104 13 178.5 13t100.5 -26t26 -85v-422q146 82 287 82q186 0 284.5 -140t98.5 -389t-97.5 -390.5t-287.5 -141.5q-150 0 -285 80v-512h-166v1809h-139zM340 170q108 -47 244 -47q129 0 189 83q65 89 65 297t-66.5 293t-189.5 85q-78 0 -242 -43v-668z" />
<glyph unicode="&#xff;" horiz-adv-x="1155" d="M55 877v122q114 13 181 13t93 -26t25 -85v-563q0 -123 45 -168t166 -45q128 0 269 39v713h-134v127h299v-1074q0 -217 -98 -318t-307 -101q-117 0 -244 24v115h193q168 0 229 61q35 35 48.5 89.5t13.5 146.5v106q-168 -82 -322 -82q-168 0 -252 88q-72 76 -72 240v578 h-133zM260 1358v4q0 115 106 115h13q106 0 106 -115v-4q0 -115 -106 -115h-13q-106 0 -106 115zM669 1358v4q0 63 30 89t77 26h12q47 0 77 -26t30 -89v-4q0 -63 -30 -89t-77 -26h-12q-107 0 -107 115z" />
<glyph unicode="&#x152;" horiz-adv-x="1931" d="M106 700q0 334 177 521q172 180 522 180h954q31 0 39 -6t8 -21v-301h-120q-33 87 -33 193h-518v-480h393q20 0 26.5 -3t6.5 -15v-127h-426v-506h528q0 114 33 195h121v-303q0 -14 -8.5 -20.5t-39.5 -6.5h-964q-350 0 -524 183t-175 517zM289 700q0 -283 133 -428 q122 -133 403 -133h133l-2 1123h-131q-282 0 -403 -134q-133 -145 -133 -428z" />
<glyph unicode="&#x153;" horiz-adv-x="1783" d="M88 502q0 248 117 389t342 141q256 0 375 -188q115 188 354 188q203 0 308.5 -133t105.5 -371v-59q0 -18 -23 -18h-659q8 -172 79 -244q43 -47 115 -68.5t195 -21.5h254v-103q-158 -43 -301 -43q-264 0 -385 129q-20 20 -45 56q-117 -185 -373 -185q-225 0 -342 141.5 t-117 389.5zM260 502q0 -186 65.5 -284.5t221.5 -98.5t221.5 98.5t65.5 284.5t-66 284.5t-221 98.5q-156 0 -221.5 -98.5t-65.5 -284.5zM1010 582h522q-10 150 -71.5 230.5t-186.5 80.5t-197 -91q-63 -80 -67 -220z" />
<glyph unicode="&#x178;" horiz-adv-x="1204" d="M8 1266v135h152q59 0 82.5 -14.5t44.5 -51.5l329 -630l299 561h-108v135h389v-135h-113l-393 -701v-430h141v-135h-460v135h141v428l-381 703h-123zM289 1706v4q0 115 106 115h13q106 0 106 -115v-4q0 -115 -106 -115h-13q-106 0 -106 115zM698 1706v4q0 63 30 89t77 26 h12q107 0 107 -115v-4q0 -63 -30 -89t-77 -26h-12q-107 0 -107 115z" />
<glyph unicode="&#x2c6;" horiz-adv-x="868" d="M123 1255l186 228q29 37 49.5 48t59.5 11h33q39 0 59 -11t49 -48l186 -228l-67 -57l-244 211l-244 -211z" />
<glyph unicode="&#x2dc;" horiz-adv-x="868" d="M135 1262q4 100 47 156.5t109 56.5q53 0 114.5 -29t93 -41t63.5 -12t47.5 16t25.5 59l96 -10q-4 -100 -47 -156.5t-96.5 -56.5t-88 12.5t-67.5 27.5t-64.5 28.5t-63.5 13.5t-47 -16.5t-26 -59.5z" />
<glyph unicode="&#x2000;" horiz-adv-x="1000" />
<glyph unicode="&#x2001;" horiz-adv-x="2001" />
<glyph unicode="&#x2002;" horiz-adv-x="1000" />
<glyph unicode="&#x2003;" horiz-adv-x="2001" />
<glyph unicode="&#x2004;" horiz-adv-x="667" />
<glyph unicode="&#x2005;" horiz-adv-x="500" />
<glyph unicode="&#x2006;" horiz-adv-x="333" />
<glyph unicode="&#x2007;" horiz-adv-x="333" />
<glyph unicode="&#x2008;" horiz-adv-x="250" />
<glyph unicode="&#x2009;" horiz-adv-x="400" />
<glyph unicode="&#x200a;" horiz-adv-x="111" />
<glyph unicode="&#x2010;" horiz-adv-x="649" d="M135 463v145h379v-145h-379z" />
<glyph unicode="&#x2011;" horiz-adv-x="649" d="M135 463v145h379v-145h-379z" />
<glyph unicode="&#x2012;" horiz-adv-x="649" d="M135 463v145h379v-145h-379z" />
<glyph unicode="&#x2013;" horiz-adv-x="1024" d="M0 463v145h1024v-145h-1024z" />
<glyph unicode="&#x2014;" horiz-adv-x="2048" d="M0 463v145h2048v-145h-2048z" />
<glyph unicode="&#x2018;" horiz-adv-x="448" d="M123 1056.5q0 55.5 4 98.5t10 87q22 161 41 178q8 7 31 7h41v-256q96 -21 96 -116v-6q0 -111 -104 -111h-2q-59 0 -88 31.5t-29 87z" />
<glyph unicode="&#x2019;" horiz-adv-x="448" d="M102 1311v6q0 110 105 110h2q59 0 88 -31.5t29 -87t-4.5 -98.5t-10.5 -87q-22 -161 -41 -177q-8 -8 -30 -8h-41v256q-97 22 -97 117z" />
<glyph unicode="&#x201a;" horiz-adv-x="448" d="M102 59v7q0 110 105 110h2q59 0 88 -31.5t29 -87t-4.5 -98.5t-10.5 -87q-22 -163 -41 -178q-8 -7 -30 -7h-41v256q-97 22 -97 116z" />
<glyph unicode="&#x201c;" horiz-adv-x="788" d="M123 1056.5q0 55.5 4 98.5t10 87q22 161 41 178q8 7 31 7h41v-256q96 -21 96 -116v-6q0 -111 -104 -111h-2q-59 0 -88 31.5t-29 87zM463 1056.5q0 55.5 4 98.5t10 87q22 161 41 178q8 7 31 7h41v-256q96 -21 96 -116v-6q0 -111 -104 -111h-2q-59 0 -88 31.5t-29 87z" />
<glyph unicode="&#x201d;" horiz-adv-x="788" d="M102 1311v6q0 110 105 110h2q59 0 88 -31.5t29 -87t-4.5 -98.5t-10.5 -87q-22 -161 -41 -177q-8 -8 -30 -8h-41v256q-97 22 -97 117zM442 1311v6q0 110 105 110h2q59 0 88 -31.5t29 -87t-4.5 -98.5t-10.5 -87q-22 -161 -41 -177q-8 -8 -30 -8h-41v256q-97 22 -97 117z " />
<glyph unicode="&#x201e;" horiz-adv-x="788" d="M102 59v7q0 110 105 110h2q59 0 88 -31.5t29 -87t-4.5 -98.5t-10.5 -87q-22 -163 -41 -178q-8 -7 -30 -7h-41v256q-97 22 -97 116zM442 59v7q0 110 105 110h2q59 0 88 -31.5t29 -87t-4.5 -98.5t-10.5 -87q-22 -163 -41 -178q-8 -7 -30 -7h-41v256q-97 22 -97 116z" />
<glyph unicode="&#x2022;" horiz-adv-x="733" d="M111 709v24q0 135 58 193.5t171 58.5h53q113 0 171.5 -58.5t58.5 -193.5v-24q0 -135 -58.5 -193.5t-171.5 -58.5h-53q-113 0 -171 58t-58 194z" />
<glyph unicode="&#x2026;" horiz-adv-x="1394" d="M123 82v8q0 111 102 111h15q102 0 102 -111v-8q0 -111 -102 -111h-15q-102 0 -102 111zM588 82v8q0 111 102 111h15q102 0 102 -111v-8q0 -111 -102 -111h-15q-102 0 -102 111zM1053 82v8q0 111 102 111h14q103 0 103 -111v-8q0 -111 -103 -111h-14q-102 0 -102 111z" />
<glyph unicode="&#x202f;" horiz-adv-x="400" />
<glyph unicode="&#x2039;" horiz-adv-x="686" d="M152 539q0 29 15 54t54 71l266 305l76 -56l-252 -374l252 -375l-76 -55l-266 305q-39 45 -54 70.5t-15 54.5z" />
<glyph unicode="&#x203a;" horiz-adv-x="686" d="M123 164l252 375l-252 374l76 56l266 -305q39 -45 54.5 -71t15.5 -54q0 -29 -15.5 -54.5t-54.5 -70.5l-266 -305z" />
<glyph unicode="&#x205f;" horiz-adv-x="500" />
<glyph unicode="&#x20ac;" horiz-adv-x="1222" d="M94 477v98l146 15q-2 27 -2 54v97h-144v99l152 14q29 276 171 424.5t408 148.5q152 0 267 -34q23 -6 27.5 -16.5t4.5 -26.5v-275l-118 -2q-17 34 -24 106t-7 91q-58 8 -141 8q-193 0 -290.5 -102.5t-121.5 -313.5h395v-121h-403v-94q0 -24 2 -49h401v-121h-389 q29 -188 138 -271q116 -87 356 -87h190v-121q-158 -27 -279.5 -27t-227 34t-177.5 99q-139 124 -176 373h-158z" />
<glyph unicode="&#x2122;" horiz-adv-x="1562" d="M33 1194v168q0 27 11 33t46 6h526q33 0 45.5 -6t12.5 -33v-168h-109q-3 13 -10 113h-133v-484h67v-102h-272v102h68v484h-133l-13 -113h-106zM752 721v102h69v475h-69v103h102q33 0 47 -7.5t37 -41.5l190 -310l203 310q23 33 37 41t49 8h96v-103h-69v-475h69v-102h-262 v102h68v305l-135 -190h-76q-29 0 -39 5t-22 24l-109 170v-314h63v-102h-249z" />
<glyph unicode="&#xe000;" horiz-adv-x="1003" d="M0 0v1004h1004v-1004h-1004z" />
</font>
</defs>
</svg>
